%TF.GenerationSoftware,KiCad,Pcbnew,(5.1.9)-1*%
%TF.CreationDate,2021-01-16T23:23:18+11:00*%
%TF.ProjectId,megatosimm,6d656761-746f-4736-996d-6d2e6b696361,rev?*%
%TF.SameCoordinates,Original*%
%TF.FileFunction,Legend,Top*%
%TF.FilePolarity,Positive*%
%FSLAX46Y46*%
G04 Gerber Fmt 4.6, Leading zero omitted, Abs format (unit mm)*
G04 Created by KiCad (PCBNEW (5.1.9)-1) date 2021-01-16 23:23:18*
%MOMM*%
%LPD*%
G01*
G04 APERTURE LIST*
%ADD10C,0.150000*%
%ADD11C,0.120000*%
G04 APERTURE END LIST*
D10*
X110490095Y-76335000D02*
X110394857Y-76287380D01*
X110252000Y-76287380D01*
X110109142Y-76335000D01*
X110013904Y-76430238D01*
X109966285Y-76525476D01*
X109918666Y-76715952D01*
X109918666Y-76858809D01*
X109966285Y-77049285D01*
X110013904Y-77144523D01*
X110109142Y-77239761D01*
X110252000Y-77287380D01*
X110347238Y-77287380D01*
X110490095Y-77239761D01*
X110537714Y-77192142D01*
X110537714Y-76858809D01*
X110347238Y-76858809D01*
X110966285Y-77287380D02*
X110966285Y-76287380D01*
X111537714Y-77287380D01*
X111537714Y-76287380D01*
X112013904Y-77287380D02*
X112013904Y-76287380D01*
X112252000Y-76287380D01*
X112394857Y-76335000D01*
X112490095Y-76430238D01*
X112537714Y-76525476D01*
X112585333Y-76715952D01*
X112585333Y-76858809D01*
X112537714Y-77049285D01*
X112490095Y-77144523D01*
X112394857Y-77239761D01*
X112252000Y-77287380D01*
X112013904Y-77287380D01*
X109934523Y-79779761D02*
X110077380Y-79827380D01*
X110315476Y-79827380D01*
X110410714Y-79779761D01*
X110458333Y-79732142D01*
X110505952Y-79636904D01*
X110505952Y-79541666D01*
X110458333Y-79446428D01*
X110410714Y-79398809D01*
X110315476Y-79351190D01*
X110125000Y-79303571D01*
X110029761Y-79255952D01*
X109982142Y-79208333D01*
X109934523Y-79113095D01*
X109934523Y-79017857D01*
X109982142Y-78922619D01*
X110029761Y-78875000D01*
X110125000Y-78827380D01*
X110363095Y-78827380D01*
X110505952Y-78875000D01*
X111505952Y-79732142D02*
X111458333Y-79779761D01*
X111315476Y-79827380D01*
X111220238Y-79827380D01*
X111077380Y-79779761D01*
X110982142Y-79684523D01*
X110934523Y-79589285D01*
X110886904Y-79398809D01*
X110886904Y-79255952D01*
X110934523Y-79065476D01*
X110982142Y-78970238D01*
X111077380Y-78875000D01*
X111220238Y-78827380D01*
X111315476Y-78827380D01*
X111458333Y-78875000D01*
X111505952Y-78922619D01*
X112410714Y-79827380D02*
X111934523Y-79827380D01*
X111934523Y-78827380D01*
X110037714Y-82319761D02*
X110180571Y-82367380D01*
X110418666Y-82367380D01*
X110513904Y-82319761D01*
X110561523Y-82272142D01*
X110609142Y-82176904D01*
X110609142Y-82081666D01*
X110561523Y-81986428D01*
X110513904Y-81938809D01*
X110418666Y-81891190D01*
X110228190Y-81843571D01*
X110132952Y-81795952D01*
X110085333Y-81748333D01*
X110037714Y-81653095D01*
X110037714Y-81557857D01*
X110085333Y-81462619D01*
X110132952Y-81415000D01*
X110228190Y-81367380D01*
X110466285Y-81367380D01*
X110609142Y-81415000D01*
X111037714Y-82367380D02*
X111037714Y-81367380D01*
X111275809Y-81367380D01*
X111418666Y-81415000D01*
X111513904Y-81510238D01*
X111561523Y-81605476D01*
X111609142Y-81795952D01*
X111609142Y-81938809D01*
X111561523Y-82129285D01*
X111513904Y-82224523D01*
X111418666Y-82319761D01*
X111275809Y-82367380D01*
X111037714Y-82367380D01*
X111990095Y-82081666D02*
X112466285Y-82081666D01*
X111894857Y-82367380D02*
X112228190Y-81367380D01*
X112561523Y-82367380D01*
X110045666Y-83907380D02*
X110379000Y-84907380D01*
X110712333Y-83907380D01*
X111617095Y-84812142D02*
X111569476Y-84859761D01*
X111426619Y-84907380D01*
X111331380Y-84907380D01*
X111188523Y-84859761D01*
X111093285Y-84764523D01*
X111045666Y-84669285D01*
X110998047Y-84478809D01*
X110998047Y-84335952D01*
X111045666Y-84145476D01*
X111093285Y-84050238D01*
X111188523Y-83955000D01*
X111331380Y-83907380D01*
X111426619Y-83907380D01*
X111569476Y-83955000D01*
X111617095Y-84002619D01*
X112617095Y-84812142D02*
X112569476Y-84859761D01*
X112426619Y-84907380D01*
X112331380Y-84907380D01*
X112188523Y-84859761D01*
X112093285Y-84764523D01*
X112045666Y-84669285D01*
X111998047Y-84478809D01*
X111998047Y-84335952D01*
X112045666Y-84145476D01*
X112093285Y-84050238D01*
X112188523Y-83955000D01*
X112331380Y-83907380D01*
X112426619Y-83907380D01*
X112569476Y-83955000D01*
X112617095Y-84002619D01*
X103743761Y-122229619D02*
X103791380Y-122182000D01*
X103886619Y-122134380D01*
X104124714Y-122134380D01*
X104219952Y-122182000D01*
X104267571Y-122229619D01*
X104315190Y-122324857D01*
X104315190Y-122420095D01*
X104267571Y-122562952D01*
X103696142Y-123134380D01*
X104315190Y-123134380D01*
X104934238Y-122134380D02*
X105029476Y-122134380D01*
X105124714Y-122182000D01*
X105172333Y-122229619D01*
X105219952Y-122324857D01*
X105267571Y-122515333D01*
X105267571Y-122753428D01*
X105219952Y-122943904D01*
X105172333Y-123039142D01*
X105124714Y-123086761D01*
X105029476Y-123134380D01*
X104934238Y-123134380D01*
X104839000Y-123086761D01*
X104791380Y-123039142D01*
X104743761Y-122943904D01*
X104696142Y-122753428D01*
X104696142Y-122515333D01*
X104743761Y-122324857D01*
X104791380Y-122229619D01*
X104839000Y-122182000D01*
X104934238Y-122134380D01*
X105648523Y-122229619D02*
X105696142Y-122182000D01*
X105791380Y-122134380D01*
X106029476Y-122134380D01*
X106124714Y-122182000D01*
X106172333Y-122229619D01*
X106219952Y-122324857D01*
X106219952Y-122420095D01*
X106172333Y-122562952D01*
X105600904Y-123134380D01*
X106219952Y-123134380D01*
X107172333Y-123134380D02*
X106600904Y-123134380D01*
X106886619Y-123134380D02*
X106886619Y-122134380D01*
X106791380Y-122277238D01*
X106696142Y-122372476D01*
X106600904Y-122420095D01*
X108362809Y-122753428D02*
X109124714Y-122753428D01*
X110219952Y-122134380D02*
X110553285Y-123134380D01*
X110886619Y-122134380D01*
X112505666Y-123134380D02*
X111934238Y-123134380D01*
X112219952Y-123134380D02*
X112219952Y-122134380D01*
X112124714Y-122277238D01*
X112029476Y-122372476D01*
X111934238Y-122420095D01*
X112934238Y-123039142D02*
X112981857Y-123086761D01*
X112934238Y-123134380D01*
X112886619Y-123086761D01*
X112934238Y-123039142D01*
X112934238Y-123134380D01*
X113600904Y-122134380D02*
X113696142Y-122134380D01*
X113791380Y-122182000D01*
X113839000Y-122229619D01*
X113886619Y-122324857D01*
X113934238Y-122515333D01*
X113934238Y-122753428D01*
X113886619Y-122943904D01*
X113839000Y-123039142D01*
X113791380Y-123086761D01*
X113696142Y-123134380D01*
X113600904Y-123134380D01*
X113505666Y-123086761D01*
X113458047Y-123039142D01*
X113410428Y-122943904D01*
X113362809Y-122753428D01*
X113362809Y-122515333D01*
X113410428Y-122324857D01*
X113458047Y-122229619D01*
X113505666Y-122182000D01*
X113600904Y-122134380D01*
X192952619Y-111190738D02*
X191952619Y-111524071D01*
X192952619Y-111857404D01*
X192047857Y-112762166D02*
X192000238Y-112714547D01*
X191952619Y-112571690D01*
X191952619Y-112476452D01*
X192000238Y-112333595D01*
X192095476Y-112238357D01*
X192190714Y-112190738D01*
X192381190Y-112143119D01*
X192524047Y-112143119D01*
X192714523Y-112190738D01*
X192809761Y-112238357D01*
X192905000Y-112333595D01*
X192952619Y-112476452D01*
X192952619Y-112571690D01*
X192905000Y-112714547D01*
X192857380Y-112762166D01*
X192047857Y-113762166D02*
X192000238Y-113714547D01*
X191952619Y-113571690D01*
X191952619Y-113476452D01*
X192000238Y-113333595D01*
X192095476Y-113238357D01*
X192190714Y-113190738D01*
X192381190Y-113143119D01*
X192524047Y-113143119D01*
X192714523Y-113190738D01*
X192809761Y-113238357D01*
X192905000Y-113333595D01*
X192952619Y-113476452D01*
X192952619Y-113571690D01*
X192905000Y-113714547D01*
X192857380Y-113762166D01*
X189412619Y-105237595D02*
X190412619Y-105237595D01*
X190412619Y-105475690D01*
X190365000Y-105618547D01*
X190269761Y-105713785D01*
X190174523Y-105761404D01*
X189984047Y-105809023D01*
X189841190Y-105809023D01*
X189650714Y-105761404D01*
X189555476Y-105713785D01*
X189460238Y-105618547D01*
X189412619Y-105475690D01*
X189412619Y-105237595D01*
X189412619Y-106237595D02*
X190412619Y-106237595D01*
X190412619Y-106618547D01*
X190365000Y-106713785D01*
X190317380Y-106761404D01*
X190222142Y-106809023D01*
X190079285Y-106809023D01*
X189984047Y-106761404D01*
X189936428Y-106713785D01*
X189888809Y-106618547D01*
X189888809Y-106237595D01*
X189793571Y-107999500D02*
X189793571Y-108761404D01*
X189412619Y-109999500D02*
X190412619Y-109999500D01*
X190412619Y-110237595D01*
X190365000Y-110380452D01*
X190269761Y-110475690D01*
X190174523Y-110523309D01*
X189984047Y-110570928D01*
X189841190Y-110570928D01*
X189650714Y-110523309D01*
X189555476Y-110475690D01*
X189460238Y-110380452D01*
X189412619Y-110237595D01*
X189412619Y-109999500D01*
X190412619Y-110904261D02*
X190412619Y-111523309D01*
X190031666Y-111189976D01*
X190031666Y-111332833D01*
X189984047Y-111428071D01*
X189936428Y-111475690D01*
X189841190Y-111523309D01*
X189603095Y-111523309D01*
X189507857Y-111475690D01*
X189460238Y-111428071D01*
X189412619Y-111332833D01*
X189412619Y-111047119D01*
X189460238Y-110951880D01*
X189507857Y-110904261D01*
X189984047Y-112094738D02*
X190031666Y-111999500D01*
X190079285Y-111951880D01*
X190174523Y-111904261D01*
X190222142Y-111904261D01*
X190317380Y-111951880D01*
X190365000Y-111999500D01*
X190412619Y-112094738D01*
X190412619Y-112285214D01*
X190365000Y-112380452D01*
X190317380Y-112428071D01*
X190222142Y-112475690D01*
X190174523Y-112475690D01*
X190079285Y-112428071D01*
X190031666Y-112380452D01*
X189984047Y-112285214D01*
X189984047Y-112094738D01*
X189936428Y-111999500D01*
X189888809Y-111951880D01*
X189793571Y-111904261D01*
X189603095Y-111904261D01*
X189507857Y-111951880D01*
X189460238Y-111999500D01*
X189412619Y-112094738D01*
X189412619Y-112285214D01*
X189460238Y-112380452D01*
X189507857Y-112428071D01*
X189603095Y-112475690D01*
X189793571Y-112475690D01*
X189888809Y-112428071D01*
X189936428Y-112380452D01*
X189984047Y-112285214D01*
X186967857Y-105809023D02*
X186920238Y-105761404D01*
X186872619Y-105618547D01*
X186872619Y-105523309D01*
X186920238Y-105380452D01*
X187015476Y-105285214D01*
X187110714Y-105237595D01*
X187301190Y-105189976D01*
X187444047Y-105189976D01*
X187634523Y-105237595D01*
X187729761Y-105285214D01*
X187825000Y-105380452D01*
X187872619Y-105523309D01*
X187872619Y-105618547D01*
X187825000Y-105761404D01*
X187777380Y-105809023D01*
X187158333Y-106189976D02*
X187158333Y-106666166D01*
X186872619Y-106094738D02*
X187872619Y-106428071D01*
X186872619Y-106761404D01*
X186920238Y-107047119D02*
X186872619Y-107189976D01*
X186872619Y-107428071D01*
X186920238Y-107523309D01*
X186967857Y-107570928D01*
X187063095Y-107618547D01*
X187158333Y-107618547D01*
X187253571Y-107570928D01*
X187301190Y-107523309D01*
X187348809Y-107428071D01*
X187396428Y-107237595D01*
X187444047Y-107142357D01*
X187491666Y-107094738D01*
X187586904Y-107047119D01*
X187682142Y-107047119D01*
X187777380Y-107094738D01*
X187825000Y-107142357D01*
X187872619Y-107237595D01*
X187872619Y-107475690D01*
X187825000Y-107618547D01*
X186872619Y-108047119D02*
X187872619Y-108047119D01*
X187872619Y-108428071D01*
X187825000Y-108523309D01*
X187777380Y-108570928D01*
X187682142Y-108618547D01*
X187539285Y-108618547D01*
X187444047Y-108570928D01*
X187396428Y-108523309D01*
X187348809Y-108428071D01*
X187348809Y-108047119D01*
X187253571Y-109809023D02*
X187253571Y-110570928D01*
X186872619Y-111809023D02*
X187872619Y-111809023D01*
X187872619Y-112047119D01*
X187825000Y-112189976D01*
X187729761Y-112285214D01*
X187634523Y-112332833D01*
X187444047Y-112380452D01*
X187301190Y-112380452D01*
X187110714Y-112332833D01*
X187015476Y-112285214D01*
X186920238Y-112189976D01*
X186872619Y-112047119D01*
X186872619Y-111809023D01*
X187872619Y-112713785D02*
X187872619Y-113332833D01*
X187491666Y-112999500D01*
X187491666Y-113142357D01*
X187444047Y-113237595D01*
X187396428Y-113285214D01*
X187301190Y-113332833D01*
X187063095Y-113332833D01*
X186967857Y-113285214D01*
X186920238Y-113237595D01*
X186872619Y-113142357D01*
X186872619Y-112856642D01*
X186920238Y-112761404D01*
X186967857Y-112713785D01*
X186872619Y-113809023D02*
X186872619Y-113999500D01*
X186920238Y-114094738D01*
X186967857Y-114142357D01*
X187110714Y-114237595D01*
X187301190Y-114285214D01*
X187682142Y-114285214D01*
X187777380Y-114237595D01*
X187825000Y-114189976D01*
X187872619Y-114094738D01*
X187872619Y-113904261D01*
X187825000Y-113809023D01*
X187777380Y-113761404D01*
X187682142Y-113713785D01*
X187444047Y-113713785D01*
X187348809Y-113761404D01*
X187301190Y-113809023D01*
X187253571Y-113904261D01*
X187253571Y-114094738D01*
X187301190Y-114189976D01*
X187348809Y-114237595D01*
X187444047Y-114285214D01*
X184459619Y-105809023D02*
X184935809Y-105475690D01*
X184459619Y-105237595D02*
X185459619Y-105237595D01*
X185459619Y-105618547D01*
X185412000Y-105713785D01*
X185364380Y-105761404D01*
X185269142Y-105809023D01*
X185126285Y-105809023D01*
X185031047Y-105761404D01*
X184983428Y-105713785D01*
X184935809Y-105618547D01*
X184935809Y-105237595D01*
X184745333Y-106189976D02*
X184745333Y-106666166D01*
X184459619Y-106094738D02*
X185459619Y-106428071D01*
X184459619Y-106761404D01*
X184507238Y-107047119D02*
X184459619Y-107189976D01*
X184459619Y-107428071D01*
X184507238Y-107523309D01*
X184554857Y-107570928D01*
X184650095Y-107618547D01*
X184745333Y-107618547D01*
X184840571Y-107570928D01*
X184888190Y-107523309D01*
X184935809Y-107428071D01*
X184983428Y-107237595D01*
X185031047Y-107142357D01*
X185078666Y-107094738D01*
X185173904Y-107047119D01*
X185269142Y-107047119D01*
X185364380Y-107094738D01*
X185412000Y-107142357D01*
X185459619Y-107237595D01*
X185459619Y-107475690D01*
X185412000Y-107618547D01*
X184840571Y-108809023D02*
X184840571Y-109570928D01*
X184459619Y-110809023D02*
X185459619Y-110809023D01*
X185459619Y-111047119D01*
X185412000Y-111189976D01*
X185316761Y-111285214D01*
X185221523Y-111332833D01*
X185031047Y-111380452D01*
X184888190Y-111380452D01*
X184697714Y-111332833D01*
X184602476Y-111285214D01*
X184507238Y-111189976D01*
X184459619Y-111047119D01*
X184459619Y-110809023D01*
X185126285Y-112237595D02*
X184459619Y-112237595D01*
X185507238Y-111999500D02*
X184792952Y-111761404D01*
X184792952Y-112380452D01*
X185459619Y-112951880D02*
X185459619Y-113047119D01*
X185412000Y-113142357D01*
X185364380Y-113189976D01*
X185269142Y-113237595D01*
X185078666Y-113285214D01*
X184840571Y-113285214D01*
X184650095Y-113237595D01*
X184554857Y-113189976D01*
X184507238Y-113142357D01*
X184459619Y-113047119D01*
X184459619Y-112951880D01*
X184507238Y-112856642D01*
X184554857Y-112809023D01*
X184650095Y-112761404D01*
X184840571Y-112713785D01*
X185078666Y-112713785D01*
X185269142Y-112761404D01*
X185364380Y-112809023D01*
X185412000Y-112856642D01*
X185459619Y-112951880D01*
X181824380Y-105904261D02*
X181872000Y-105809023D01*
X181967238Y-105713785D01*
X182110095Y-105570928D01*
X182157714Y-105475690D01*
X182157714Y-105380452D01*
X181919619Y-105428071D02*
X181967238Y-105332833D01*
X182062476Y-105237595D01*
X182252952Y-105189976D01*
X182586285Y-105189976D01*
X182776761Y-105237595D01*
X182872000Y-105332833D01*
X182919619Y-105428071D01*
X182919619Y-105618547D01*
X182872000Y-105713785D01*
X182776761Y-105809023D01*
X182586285Y-105856642D01*
X182252952Y-105856642D01*
X182062476Y-105809023D01*
X181967238Y-105713785D01*
X181919619Y-105618547D01*
X181919619Y-105428071D01*
X181919619Y-106285214D02*
X182919619Y-106285214D01*
X182919619Y-106666166D01*
X182872000Y-106761404D01*
X182824380Y-106809023D01*
X182729142Y-106856642D01*
X182586285Y-106856642D01*
X182491047Y-106809023D01*
X182443428Y-106761404D01*
X182395809Y-106666166D01*
X182395809Y-106285214D01*
X182300571Y-108047119D02*
X182300571Y-108809023D01*
X181919619Y-110047119D02*
X182919619Y-110047119D01*
X182919619Y-110285214D01*
X182872000Y-110428071D01*
X182776761Y-110523309D01*
X182681523Y-110570928D01*
X182491047Y-110618547D01*
X182348190Y-110618547D01*
X182157714Y-110570928D01*
X182062476Y-110523309D01*
X181967238Y-110428071D01*
X181919619Y-110285214D01*
X181919619Y-110047119D01*
X182586285Y-111475690D02*
X181919619Y-111475690D01*
X182967238Y-111237595D02*
X182252952Y-110999500D01*
X182252952Y-111618547D01*
X181919619Y-112523309D02*
X181919619Y-111951880D01*
X181919619Y-112237595D02*
X182919619Y-112237595D01*
X182776761Y-112142357D01*
X182681523Y-112047119D01*
X182633904Y-111951880D01*
X179252619Y-105237595D02*
X180252619Y-105237595D01*
X180252619Y-105475690D01*
X180205000Y-105618547D01*
X180109761Y-105713785D01*
X180014523Y-105761404D01*
X179824047Y-105809023D01*
X179681190Y-105809023D01*
X179490714Y-105761404D01*
X179395476Y-105713785D01*
X179300238Y-105618547D01*
X179252619Y-105475690D01*
X179252619Y-105237595D01*
X179157380Y-106904261D02*
X179205000Y-106809023D01*
X179300238Y-106713785D01*
X179443095Y-106570928D01*
X179490714Y-106475690D01*
X179490714Y-106380452D01*
X179252619Y-106428071D02*
X179300238Y-106332833D01*
X179395476Y-106237595D01*
X179585952Y-106189976D01*
X179919285Y-106189976D01*
X180109761Y-106237595D01*
X180205000Y-106332833D01*
X180252619Y-106428071D01*
X180252619Y-106618547D01*
X180205000Y-106713785D01*
X180109761Y-106809023D01*
X179919285Y-106856642D01*
X179585952Y-106856642D01*
X179395476Y-106809023D01*
X179300238Y-106713785D01*
X179252619Y-106618547D01*
X179252619Y-106428071D01*
X180252619Y-107189976D02*
X180252619Y-107856642D01*
X179252619Y-107428071D01*
X179633571Y-108999500D02*
X179633571Y-109761404D01*
X179252619Y-110999500D02*
X180252619Y-110999500D01*
X180252619Y-111237595D01*
X180205000Y-111380452D01*
X180109761Y-111475690D01*
X180014523Y-111523309D01*
X179824047Y-111570928D01*
X179681190Y-111570928D01*
X179490714Y-111523309D01*
X179395476Y-111475690D01*
X179300238Y-111380452D01*
X179252619Y-111237595D01*
X179252619Y-110999500D01*
X179919285Y-112428071D02*
X179252619Y-112428071D01*
X180300238Y-112189976D02*
X179585952Y-111951880D01*
X179585952Y-112570928D01*
X180157380Y-112904261D02*
X180205000Y-112951880D01*
X180252619Y-113047119D01*
X180252619Y-113285214D01*
X180205000Y-113380452D01*
X180157380Y-113428071D01*
X180062142Y-113475690D01*
X179966904Y-113475690D01*
X179824047Y-113428071D01*
X179252619Y-112856642D01*
X179252619Y-113475690D01*
X176998333Y-105189976D02*
X176998333Y-105666166D01*
X176712619Y-105094738D02*
X177712619Y-105428071D01*
X176712619Y-105761404D01*
X176712619Y-106618547D02*
X176712619Y-106047119D01*
X176712619Y-106332833D02*
X177712619Y-106332833D01*
X177569761Y-106237595D01*
X177474523Y-106142357D01*
X177426904Y-106047119D01*
X176712619Y-107570928D02*
X176712619Y-106999500D01*
X176712619Y-107285214D02*
X177712619Y-107285214D01*
X177569761Y-107189976D01*
X177474523Y-107094738D01*
X177426904Y-106999500D01*
X177093571Y-108761404D02*
X177093571Y-109523309D01*
X176712619Y-110761404D02*
X177712619Y-110761404D01*
X177712619Y-110999500D01*
X177665000Y-111142357D01*
X177569761Y-111237595D01*
X177474523Y-111285214D01*
X177284047Y-111332833D01*
X177141190Y-111332833D01*
X176950714Y-111285214D01*
X176855476Y-111237595D01*
X176760238Y-111142357D01*
X176712619Y-110999500D01*
X176712619Y-110761404D01*
X177379285Y-112189976D02*
X176712619Y-112189976D01*
X177760238Y-111951880D02*
X177045952Y-111713785D01*
X177045952Y-112332833D01*
X177712619Y-112618547D02*
X177712619Y-113237595D01*
X177331666Y-112904261D01*
X177331666Y-113047119D01*
X177284047Y-113142357D01*
X177236428Y-113189976D01*
X177141190Y-113237595D01*
X176903095Y-113237595D01*
X176807857Y-113189976D01*
X176760238Y-113142357D01*
X176712619Y-113047119D01*
X176712619Y-112761404D01*
X176760238Y-112666166D01*
X176807857Y-112618547D01*
X174172619Y-105237595D02*
X175172619Y-105237595D01*
X175172619Y-105475690D01*
X175125000Y-105618547D01*
X175029761Y-105713785D01*
X174934523Y-105761404D01*
X174744047Y-105809023D01*
X174601190Y-105809023D01*
X174410714Y-105761404D01*
X174315476Y-105713785D01*
X174220238Y-105618547D01*
X174172619Y-105475690D01*
X174172619Y-105237595D01*
X174077380Y-106904261D02*
X174125000Y-106809023D01*
X174220238Y-106713785D01*
X174363095Y-106570928D01*
X174410714Y-106475690D01*
X174410714Y-106380452D01*
X174172619Y-106428071D02*
X174220238Y-106332833D01*
X174315476Y-106237595D01*
X174505952Y-106189976D01*
X174839285Y-106189976D01*
X175029761Y-106237595D01*
X175125000Y-106332833D01*
X175172619Y-106428071D01*
X175172619Y-106618547D01*
X175125000Y-106713785D01*
X175029761Y-106809023D01*
X174839285Y-106856642D01*
X174505952Y-106856642D01*
X174315476Y-106809023D01*
X174220238Y-106713785D01*
X174172619Y-106618547D01*
X174172619Y-106428071D01*
X175172619Y-107713785D02*
X175172619Y-107523309D01*
X175125000Y-107428071D01*
X175077380Y-107380452D01*
X174934523Y-107285214D01*
X174744047Y-107237595D01*
X174363095Y-107237595D01*
X174267857Y-107285214D01*
X174220238Y-107332833D01*
X174172619Y-107428071D01*
X174172619Y-107618547D01*
X174220238Y-107713785D01*
X174267857Y-107761404D01*
X174363095Y-107809023D01*
X174601190Y-107809023D01*
X174696428Y-107761404D01*
X174744047Y-107713785D01*
X174791666Y-107618547D01*
X174791666Y-107428071D01*
X174744047Y-107332833D01*
X174696428Y-107285214D01*
X174601190Y-107237595D01*
X174553571Y-108999500D02*
X174553571Y-109761404D01*
X174172619Y-110999500D02*
X175172619Y-110999500D01*
X175172619Y-111237595D01*
X175125000Y-111380452D01*
X175029761Y-111475690D01*
X174934523Y-111523309D01*
X174744047Y-111570928D01*
X174601190Y-111570928D01*
X174410714Y-111523309D01*
X174315476Y-111475690D01*
X174220238Y-111380452D01*
X174172619Y-111237595D01*
X174172619Y-110999500D01*
X174839285Y-112428071D02*
X174172619Y-112428071D01*
X175220238Y-112189976D02*
X174505952Y-111951880D01*
X174505952Y-112570928D01*
X174839285Y-113380452D02*
X174172619Y-113380452D01*
X175220238Y-113142357D02*
X174505952Y-112904261D01*
X174505952Y-113523309D01*
X172585000Y-105761404D02*
X172632619Y-105666166D01*
X172632619Y-105523309D01*
X172585000Y-105380452D01*
X172489761Y-105285214D01*
X172394523Y-105237595D01*
X172204047Y-105189976D01*
X172061190Y-105189976D01*
X171870714Y-105237595D01*
X171775476Y-105285214D01*
X171680238Y-105380452D01*
X171632619Y-105523309D01*
X171632619Y-105618547D01*
X171680238Y-105761404D01*
X171727857Y-105809023D01*
X172061190Y-105809023D01*
X172061190Y-105618547D01*
X171632619Y-106237595D02*
X172632619Y-106237595D01*
X171632619Y-106809023D01*
X172632619Y-106809023D01*
X171632619Y-107285214D02*
X172632619Y-107285214D01*
X172632619Y-107523309D01*
X172585000Y-107666166D01*
X172489761Y-107761404D01*
X172394523Y-107809023D01*
X172204047Y-107856642D01*
X172061190Y-107856642D01*
X171870714Y-107809023D01*
X171775476Y-107761404D01*
X171680238Y-107666166D01*
X171632619Y-107523309D01*
X171632619Y-107285214D01*
X170092619Y-104888357D02*
X169092619Y-105126452D01*
X169806904Y-105316928D01*
X169092619Y-105507404D01*
X170092619Y-105745500D01*
X169616428Y-106126452D02*
X169616428Y-106459785D01*
X169092619Y-106602642D02*
X169092619Y-106126452D01*
X170092619Y-106126452D01*
X170092619Y-106602642D01*
X169473571Y-107793119D02*
X169473571Y-108555023D01*
X169092619Y-109793119D02*
X170092619Y-109793119D01*
X170092619Y-110031214D01*
X170045000Y-110174071D01*
X169949761Y-110269309D01*
X169854523Y-110316928D01*
X169664047Y-110364547D01*
X169521190Y-110364547D01*
X169330714Y-110316928D01*
X169235476Y-110269309D01*
X169140238Y-110174071D01*
X169092619Y-110031214D01*
X169092619Y-109793119D01*
X169759285Y-111221690D02*
X169092619Y-111221690D01*
X170140238Y-110983595D02*
X169425952Y-110745500D01*
X169425952Y-111364547D01*
X170092619Y-112221690D02*
X170092619Y-111745500D01*
X169616428Y-111697880D01*
X169664047Y-111745500D01*
X169711666Y-111840738D01*
X169711666Y-112078833D01*
X169664047Y-112174071D01*
X169616428Y-112221690D01*
X169521190Y-112269309D01*
X169283095Y-112269309D01*
X169187857Y-112221690D01*
X169140238Y-112174071D01*
X169092619Y-112078833D01*
X169092619Y-111840738D01*
X169140238Y-111745500D01*
X169187857Y-111697880D01*
X166552619Y-105237595D02*
X167552619Y-105237595D01*
X167552619Y-105475690D01*
X167505000Y-105618547D01*
X167409761Y-105713785D01*
X167314523Y-105761404D01*
X167124047Y-105809023D01*
X166981190Y-105809023D01*
X166790714Y-105761404D01*
X166695476Y-105713785D01*
X166600238Y-105618547D01*
X166552619Y-105475690D01*
X166552619Y-105237595D01*
X166457380Y-106904261D02*
X166505000Y-106809023D01*
X166600238Y-106713785D01*
X166743095Y-106570928D01*
X166790714Y-106475690D01*
X166790714Y-106380452D01*
X166552619Y-106428071D02*
X166600238Y-106332833D01*
X166695476Y-106237595D01*
X166885952Y-106189976D01*
X167219285Y-106189976D01*
X167409761Y-106237595D01*
X167505000Y-106332833D01*
X167552619Y-106428071D01*
X167552619Y-106618547D01*
X167505000Y-106713785D01*
X167409761Y-106809023D01*
X167219285Y-106856642D01*
X166885952Y-106856642D01*
X166695476Y-106809023D01*
X166600238Y-106713785D01*
X166552619Y-106618547D01*
X166552619Y-106428071D01*
X167552619Y-107761404D02*
X167552619Y-107285214D01*
X167076428Y-107237595D01*
X167124047Y-107285214D01*
X167171666Y-107380452D01*
X167171666Y-107618547D01*
X167124047Y-107713785D01*
X167076428Y-107761404D01*
X166981190Y-107809023D01*
X166743095Y-107809023D01*
X166647857Y-107761404D01*
X166600238Y-107713785D01*
X166552619Y-107618547D01*
X166552619Y-107380452D01*
X166600238Y-107285214D01*
X166647857Y-107237595D01*
X166933571Y-108999500D02*
X166933571Y-109761404D01*
X166552619Y-110999500D02*
X167552619Y-110999500D01*
X167552619Y-111237595D01*
X167505000Y-111380452D01*
X167409761Y-111475690D01*
X167314523Y-111523309D01*
X167124047Y-111570928D01*
X166981190Y-111570928D01*
X166790714Y-111523309D01*
X166695476Y-111475690D01*
X166600238Y-111380452D01*
X166552619Y-111237595D01*
X166552619Y-110999500D01*
X167219285Y-112428071D02*
X166552619Y-112428071D01*
X167600238Y-112189976D02*
X166885952Y-111951880D01*
X166885952Y-112570928D01*
X167552619Y-113380452D02*
X167552619Y-113189976D01*
X167505000Y-113094738D01*
X167457380Y-113047119D01*
X167314523Y-112951880D01*
X167124047Y-112904261D01*
X166743095Y-112904261D01*
X166647857Y-112951880D01*
X166600238Y-112999500D01*
X166552619Y-113094738D01*
X166552619Y-113285214D01*
X166600238Y-113380452D01*
X166647857Y-113428071D01*
X166743095Y-113475690D01*
X166981190Y-113475690D01*
X167076428Y-113428071D01*
X167124047Y-113380452D01*
X167171666Y-113285214D01*
X167171666Y-113094738D01*
X167124047Y-112999500D01*
X167076428Y-112951880D01*
X166981190Y-112904261D01*
X164298333Y-105189976D02*
X164298333Y-105666166D01*
X164012619Y-105094738D02*
X165012619Y-105428071D01*
X164012619Y-105761404D01*
X164012619Y-106142357D02*
X164012619Y-106332833D01*
X164060238Y-106428071D01*
X164107857Y-106475690D01*
X164250714Y-106570928D01*
X164441190Y-106618547D01*
X164822142Y-106618547D01*
X164917380Y-106570928D01*
X164965000Y-106523309D01*
X165012619Y-106428071D01*
X165012619Y-106237595D01*
X164965000Y-106142357D01*
X164917380Y-106094738D01*
X164822142Y-106047119D01*
X164584047Y-106047119D01*
X164488809Y-106094738D01*
X164441190Y-106142357D01*
X164393571Y-106237595D01*
X164393571Y-106428071D01*
X164441190Y-106523309D01*
X164488809Y-106570928D01*
X164584047Y-106618547D01*
X164393571Y-107809023D02*
X164393571Y-108570928D01*
X164012619Y-109809023D02*
X165012619Y-109809023D01*
X165012619Y-110047119D01*
X164965000Y-110189976D01*
X164869761Y-110285214D01*
X164774523Y-110332833D01*
X164584047Y-110380452D01*
X164441190Y-110380452D01*
X164250714Y-110332833D01*
X164155476Y-110285214D01*
X164060238Y-110189976D01*
X164012619Y-110047119D01*
X164012619Y-109809023D01*
X164679285Y-111237595D02*
X164012619Y-111237595D01*
X165060238Y-110999500D02*
X164345952Y-110761404D01*
X164345952Y-111380452D01*
X165012619Y-111666166D02*
X165012619Y-112332833D01*
X164012619Y-111904261D01*
X161758333Y-105189976D02*
X161758333Y-105666166D01*
X161472619Y-105094738D02*
X162472619Y-105428071D01*
X161472619Y-105761404D01*
X161472619Y-106142357D02*
X161472619Y-106332833D01*
X161520238Y-106428071D01*
X161567857Y-106475690D01*
X161710714Y-106570928D01*
X161901190Y-106618547D01*
X162282142Y-106618547D01*
X162377380Y-106570928D01*
X162425000Y-106523309D01*
X162472619Y-106428071D01*
X162472619Y-106237595D01*
X162425000Y-106142357D01*
X162377380Y-106094738D01*
X162282142Y-106047119D01*
X162044047Y-106047119D01*
X161948809Y-106094738D01*
X161901190Y-106142357D01*
X161853571Y-106237595D01*
X161853571Y-106428071D01*
X161901190Y-106523309D01*
X161948809Y-106570928D01*
X162044047Y-106618547D01*
X161853571Y-107809023D02*
X161853571Y-108570928D01*
X161472619Y-109809023D02*
X162472619Y-109809023D01*
X162472619Y-110047119D01*
X162425000Y-110189976D01*
X162329761Y-110285214D01*
X162234523Y-110332833D01*
X162044047Y-110380452D01*
X161901190Y-110380452D01*
X161710714Y-110332833D01*
X161615476Y-110285214D01*
X161520238Y-110189976D01*
X161472619Y-110047119D01*
X161472619Y-109809023D01*
X162472619Y-110713785D02*
X162472619Y-111332833D01*
X162091666Y-110999500D01*
X162091666Y-111142357D01*
X162044047Y-111237595D01*
X161996428Y-111285214D01*
X161901190Y-111332833D01*
X161663095Y-111332833D01*
X161567857Y-111285214D01*
X161520238Y-111237595D01*
X161472619Y-111142357D01*
X161472619Y-110856642D01*
X161520238Y-110761404D01*
X161567857Y-110713785D01*
X162472619Y-111666166D02*
X162472619Y-112332833D01*
X161472619Y-111904261D01*
X159218333Y-105062976D02*
X159218333Y-105539166D01*
X158932619Y-104967738D02*
X159932619Y-105301071D01*
X158932619Y-105634404D01*
X159504047Y-106110595D02*
X159551666Y-106015357D01*
X159599285Y-105967738D01*
X159694523Y-105920119D01*
X159742142Y-105920119D01*
X159837380Y-105967738D01*
X159885000Y-106015357D01*
X159932619Y-106110595D01*
X159932619Y-106301071D01*
X159885000Y-106396309D01*
X159837380Y-106443928D01*
X159742142Y-106491547D01*
X159694523Y-106491547D01*
X159599285Y-106443928D01*
X159551666Y-106396309D01*
X159504047Y-106301071D01*
X159504047Y-106110595D01*
X159456428Y-106015357D01*
X159408809Y-105967738D01*
X159313571Y-105920119D01*
X159123095Y-105920119D01*
X159027857Y-105967738D01*
X158980238Y-106015357D01*
X158932619Y-106110595D01*
X158932619Y-106301071D01*
X158980238Y-106396309D01*
X159027857Y-106443928D01*
X159123095Y-106491547D01*
X159313571Y-106491547D01*
X159408809Y-106443928D01*
X159456428Y-106396309D01*
X159504047Y-106301071D01*
X159313571Y-107682023D02*
X159313571Y-108443928D01*
X158932619Y-109682023D02*
X159932619Y-109682023D01*
X159932619Y-109920119D01*
X159885000Y-110062976D01*
X159789761Y-110158214D01*
X159694523Y-110205833D01*
X159504047Y-110253452D01*
X159361190Y-110253452D01*
X159170714Y-110205833D01*
X159075476Y-110158214D01*
X158980238Y-110062976D01*
X158932619Y-109920119D01*
X158932619Y-109682023D01*
X159932619Y-110586785D02*
X159932619Y-111205833D01*
X159551666Y-110872500D01*
X159551666Y-111015357D01*
X159504047Y-111110595D01*
X159456428Y-111158214D01*
X159361190Y-111205833D01*
X159123095Y-111205833D01*
X159027857Y-111158214D01*
X158980238Y-111110595D01*
X158932619Y-111015357D01*
X158932619Y-110729642D01*
X158980238Y-110634404D01*
X159027857Y-110586785D01*
X159932619Y-112062976D02*
X159932619Y-111872500D01*
X159885000Y-111777261D01*
X159837380Y-111729642D01*
X159694523Y-111634404D01*
X159504047Y-111586785D01*
X159123095Y-111586785D01*
X159027857Y-111634404D01*
X158980238Y-111682023D01*
X158932619Y-111777261D01*
X158932619Y-111967738D01*
X158980238Y-112062976D01*
X159027857Y-112110595D01*
X159123095Y-112158214D01*
X159361190Y-112158214D01*
X159456428Y-112110595D01*
X159504047Y-112062976D01*
X159551666Y-111967738D01*
X159551666Y-111777261D01*
X159504047Y-111682023D01*
X159456428Y-111634404D01*
X159361190Y-111586785D01*
X156392619Y-104983595D02*
X157392619Y-104983595D01*
X157392619Y-105221690D01*
X157345000Y-105364547D01*
X157249761Y-105459785D01*
X157154523Y-105507404D01*
X156964047Y-105555023D01*
X156821190Y-105555023D01*
X156630714Y-105507404D01*
X156535476Y-105459785D01*
X156440238Y-105364547D01*
X156392619Y-105221690D01*
X156392619Y-104983595D01*
X156297380Y-106650261D02*
X156345000Y-106555023D01*
X156440238Y-106459785D01*
X156583095Y-106316928D01*
X156630714Y-106221690D01*
X156630714Y-106126452D01*
X156392619Y-106174071D02*
X156440238Y-106078833D01*
X156535476Y-105983595D01*
X156725952Y-105935976D01*
X157059285Y-105935976D01*
X157249761Y-105983595D01*
X157345000Y-106078833D01*
X157392619Y-106174071D01*
X157392619Y-106364547D01*
X157345000Y-106459785D01*
X157249761Y-106555023D01*
X157059285Y-106602642D01*
X156725952Y-106602642D01*
X156535476Y-106555023D01*
X156440238Y-106459785D01*
X156392619Y-106364547D01*
X156392619Y-106174071D01*
X157059285Y-107459785D02*
X156392619Y-107459785D01*
X157440238Y-107221690D02*
X156725952Y-106983595D01*
X156725952Y-107602642D01*
X156773571Y-108745500D02*
X156773571Y-109507404D01*
X156392619Y-110745500D02*
X157392619Y-110745500D01*
X157392619Y-110983595D01*
X157345000Y-111126452D01*
X157249761Y-111221690D01*
X157154523Y-111269309D01*
X156964047Y-111316928D01*
X156821190Y-111316928D01*
X156630714Y-111269309D01*
X156535476Y-111221690D01*
X156440238Y-111126452D01*
X156392619Y-110983595D01*
X156392619Y-110745500D01*
X157392619Y-111650261D02*
X157392619Y-112269309D01*
X157011666Y-111935976D01*
X157011666Y-112078833D01*
X156964047Y-112174071D01*
X156916428Y-112221690D01*
X156821190Y-112269309D01*
X156583095Y-112269309D01*
X156487857Y-112221690D01*
X156440238Y-112174071D01*
X156392619Y-112078833D01*
X156392619Y-111793119D01*
X156440238Y-111697880D01*
X156487857Y-111650261D01*
X157392619Y-113174071D02*
X157392619Y-112697880D01*
X156916428Y-112650261D01*
X156964047Y-112697880D01*
X157011666Y-112793119D01*
X157011666Y-113031214D01*
X156964047Y-113126452D01*
X156916428Y-113174071D01*
X156821190Y-113221690D01*
X156583095Y-113221690D01*
X156487857Y-113174071D01*
X156440238Y-113126452D01*
X156392619Y-113031214D01*
X156392619Y-112793119D01*
X156440238Y-112697880D01*
X156487857Y-112650261D01*
X154138333Y-105062976D02*
X154138333Y-105539166D01*
X153852619Y-104967738D02*
X154852619Y-105301071D01*
X153852619Y-105634404D01*
X154852619Y-105872500D02*
X154852619Y-106539166D01*
X153852619Y-106110595D01*
X154233571Y-107682023D02*
X154233571Y-108443928D01*
X153852619Y-109682023D02*
X154852619Y-109682023D01*
X154852619Y-109920119D01*
X154805000Y-110062976D01*
X154709761Y-110158214D01*
X154614523Y-110205833D01*
X154424047Y-110253452D01*
X154281190Y-110253452D01*
X154090714Y-110205833D01*
X153995476Y-110158214D01*
X153900238Y-110062976D01*
X153852619Y-109920119D01*
X153852619Y-109682023D01*
X154852619Y-110586785D02*
X154852619Y-111205833D01*
X154471666Y-110872500D01*
X154471666Y-111015357D01*
X154424047Y-111110595D01*
X154376428Y-111158214D01*
X154281190Y-111205833D01*
X154043095Y-111205833D01*
X153947857Y-111158214D01*
X153900238Y-111110595D01*
X153852619Y-111015357D01*
X153852619Y-110729642D01*
X153900238Y-110634404D01*
X153947857Y-110586785D01*
X154519285Y-112062976D02*
X153852619Y-112062976D01*
X154900238Y-111824880D02*
X154185952Y-111586785D01*
X154185952Y-112205833D01*
X151598333Y-105189976D02*
X151598333Y-105666166D01*
X151312619Y-105094738D02*
X152312619Y-105428071D01*
X151312619Y-105761404D01*
X152312619Y-106523309D02*
X152312619Y-106332833D01*
X152265000Y-106237595D01*
X152217380Y-106189976D01*
X152074523Y-106094738D01*
X151884047Y-106047119D01*
X151503095Y-106047119D01*
X151407857Y-106094738D01*
X151360238Y-106142357D01*
X151312619Y-106237595D01*
X151312619Y-106428071D01*
X151360238Y-106523309D01*
X151407857Y-106570928D01*
X151503095Y-106618547D01*
X151741190Y-106618547D01*
X151836428Y-106570928D01*
X151884047Y-106523309D01*
X151931666Y-106428071D01*
X151931666Y-106237595D01*
X151884047Y-106142357D01*
X151836428Y-106094738D01*
X151741190Y-106047119D01*
X151693571Y-107809023D02*
X151693571Y-108570928D01*
X151312619Y-109809023D02*
X152312619Y-109809023D01*
X152312619Y-110047119D01*
X152265000Y-110189976D01*
X152169761Y-110285214D01*
X152074523Y-110332833D01*
X151884047Y-110380452D01*
X151741190Y-110380452D01*
X151550714Y-110332833D01*
X151455476Y-110285214D01*
X151360238Y-110189976D01*
X151312619Y-110047119D01*
X151312619Y-109809023D01*
X152312619Y-110713785D02*
X152312619Y-111332833D01*
X151931666Y-110999500D01*
X151931666Y-111142357D01*
X151884047Y-111237595D01*
X151836428Y-111285214D01*
X151741190Y-111332833D01*
X151503095Y-111332833D01*
X151407857Y-111285214D01*
X151360238Y-111237595D01*
X151312619Y-111142357D01*
X151312619Y-110856642D01*
X151360238Y-110761404D01*
X151407857Y-110713785D01*
X152312619Y-111666166D02*
X152312619Y-112285214D01*
X151931666Y-111951880D01*
X151931666Y-112094738D01*
X151884047Y-112189976D01*
X151836428Y-112237595D01*
X151741190Y-112285214D01*
X151503095Y-112285214D01*
X151407857Y-112237595D01*
X151360238Y-112189976D01*
X151312619Y-112094738D01*
X151312619Y-111809023D01*
X151360238Y-111713785D01*
X151407857Y-111666166D01*
X148772619Y-105110595D02*
X149772619Y-105110595D01*
X149772619Y-105348690D01*
X149725000Y-105491547D01*
X149629761Y-105586785D01*
X149534523Y-105634404D01*
X149344047Y-105682023D01*
X149201190Y-105682023D01*
X149010714Y-105634404D01*
X148915476Y-105586785D01*
X148820238Y-105491547D01*
X148772619Y-105348690D01*
X148772619Y-105110595D01*
X148677380Y-106777261D02*
X148725000Y-106682023D01*
X148820238Y-106586785D01*
X148963095Y-106443928D01*
X149010714Y-106348690D01*
X149010714Y-106253452D01*
X148772619Y-106301071D02*
X148820238Y-106205833D01*
X148915476Y-106110595D01*
X149105952Y-106062976D01*
X149439285Y-106062976D01*
X149629761Y-106110595D01*
X149725000Y-106205833D01*
X149772619Y-106301071D01*
X149772619Y-106491547D01*
X149725000Y-106586785D01*
X149629761Y-106682023D01*
X149439285Y-106729642D01*
X149105952Y-106729642D01*
X148915476Y-106682023D01*
X148820238Y-106586785D01*
X148772619Y-106491547D01*
X148772619Y-106301071D01*
X149772619Y-107062976D02*
X149772619Y-107682023D01*
X149391666Y-107348690D01*
X149391666Y-107491547D01*
X149344047Y-107586785D01*
X149296428Y-107634404D01*
X149201190Y-107682023D01*
X148963095Y-107682023D01*
X148867857Y-107634404D01*
X148820238Y-107586785D01*
X148772619Y-107491547D01*
X148772619Y-107205833D01*
X148820238Y-107110595D01*
X148867857Y-107062976D01*
X149153571Y-108872500D02*
X149153571Y-109634404D01*
X148772619Y-110872500D02*
X149772619Y-110872500D01*
X149772619Y-111110595D01*
X149725000Y-111253452D01*
X149629761Y-111348690D01*
X149534523Y-111396309D01*
X149344047Y-111443928D01*
X149201190Y-111443928D01*
X149010714Y-111396309D01*
X148915476Y-111348690D01*
X148820238Y-111253452D01*
X148772619Y-111110595D01*
X148772619Y-110872500D01*
X149772619Y-111777261D02*
X149772619Y-112396309D01*
X149391666Y-112062976D01*
X149391666Y-112205833D01*
X149344047Y-112301071D01*
X149296428Y-112348690D01*
X149201190Y-112396309D01*
X148963095Y-112396309D01*
X148867857Y-112348690D01*
X148820238Y-112301071D01*
X148772619Y-112205833D01*
X148772619Y-111920119D01*
X148820238Y-111824880D01*
X148867857Y-111777261D01*
X149677380Y-112777261D02*
X149725000Y-112824880D01*
X149772619Y-112920119D01*
X149772619Y-113158214D01*
X149725000Y-113253452D01*
X149677380Y-113301071D01*
X149582142Y-113348690D01*
X149486904Y-113348690D01*
X149344047Y-113301071D01*
X148772619Y-112729642D01*
X148772619Y-113348690D01*
X146518333Y-105189976D02*
X146518333Y-105666166D01*
X146232619Y-105094738D02*
X147232619Y-105428071D01*
X146232619Y-105761404D01*
X147232619Y-106570928D02*
X147232619Y-106094738D01*
X146756428Y-106047119D01*
X146804047Y-106094738D01*
X146851666Y-106189976D01*
X146851666Y-106428071D01*
X146804047Y-106523309D01*
X146756428Y-106570928D01*
X146661190Y-106618547D01*
X146423095Y-106618547D01*
X146327857Y-106570928D01*
X146280238Y-106523309D01*
X146232619Y-106428071D01*
X146232619Y-106189976D01*
X146280238Y-106094738D01*
X146327857Y-106047119D01*
X146613571Y-107809023D02*
X146613571Y-108570928D01*
X146232619Y-109809023D02*
X147232619Y-109809023D01*
X147232619Y-110047119D01*
X147185000Y-110189976D01*
X147089761Y-110285214D01*
X146994523Y-110332833D01*
X146804047Y-110380452D01*
X146661190Y-110380452D01*
X146470714Y-110332833D01*
X146375476Y-110285214D01*
X146280238Y-110189976D01*
X146232619Y-110047119D01*
X146232619Y-109809023D01*
X147232619Y-110713785D02*
X147232619Y-111332833D01*
X146851666Y-110999500D01*
X146851666Y-111142357D01*
X146804047Y-111237595D01*
X146756428Y-111285214D01*
X146661190Y-111332833D01*
X146423095Y-111332833D01*
X146327857Y-111285214D01*
X146280238Y-111237595D01*
X146232619Y-111142357D01*
X146232619Y-110856642D01*
X146280238Y-110761404D01*
X146327857Y-110713785D01*
X146232619Y-112285214D02*
X146232619Y-111713785D01*
X146232619Y-111999500D02*
X147232619Y-111999500D01*
X147089761Y-111904261D01*
X146994523Y-111809023D01*
X146946904Y-111713785D01*
X143978333Y-105189976D02*
X143978333Y-105666166D01*
X143692619Y-105094738D02*
X144692619Y-105428071D01*
X143692619Y-105761404D01*
X144359285Y-106523309D02*
X143692619Y-106523309D01*
X144740238Y-106285214D02*
X144025952Y-106047119D01*
X144025952Y-106666166D01*
X144073571Y-107809023D02*
X144073571Y-108570928D01*
X143692619Y-109809023D02*
X144692619Y-109809023D01*
X144692619Y-110047119D01*
X144645000Y-110189976D01*
X144549761Y-110285214D01*
X144454523Y-110332833D01*
X144264047Y-110380452D01*
X144121190Y-110380452D01*
X143930714Y-110332833D01*
X143835476Y-110285214D01*
X143740238Y-110189976D01*
X143692619Y-110047119D01*
X143692619Y-109809023D01*
X144692619Y-110713785D02*
X144692619Y-111332833D01*
X144311666Y-110999500D01*
X144311666Y-111142357D01*
X144264047Y-111237595D01*
X144216428Y-111285214D01*
X144121190Y-111332833D01*
X143883095Y-111332833D01*
X143787857Y-111285214D01*
X143740238Y-111237595D01*
X143692619Y-111142357D01*
X143692619Y-110856642D01*
X143740238Y-110761404D01*
X143787857Y-110713785D01*
X144692619Y-111951880D02*
X144692619Y-112047119D01*
X144645000Y-112142357D01*
X144597380Y-112189976D01*
X144502142Y-112237595D01*
X144311666Y-112285214D01*
X144073571Y-112285214D01*
X143883095Y-112237595D01*
X143787857Y-112189976D01*
X143740238Y-112142357D01*
X143692619Y-112047119D01*
X143692619Y-111951880D01*
X143740238Y-111856642D01*
X143787857Y-111809023D01*
X143883095Y-111761404D01*
X144073571Y-111713785D01*
X144311666Y-111713785D01*
X144502142Y-111761404D01*
X144597380Y-111809023D01*
X144645000Y-111856642D01*
X144692619Y-111951880D01*
X141152619Y-105110595D02*
X142152619Y-105110595D01*
X142152619Y-105348690D01*
X142105000Y-105491547D01*
X142009761Y-105586785D01*
X141914523Y-105634404D01*
X141724047Y-105682023D01*
X141581190Y-105682023D01*
X141390714Y-105634404D01*
X141295476Y-105586785D01*
X141200238Y-105491547D01*
X141152619Y-105348690D01*
X141152619Y-105110595D01*
X141057380Y-106777261D02*
X141105000Y-106682023D01*
X141200238Y-106586785D01*
X141343095Y-106443928D01*
X141390714Y-106348690D01*
X141390714Y-106253452D01*
X141152619Y-106301071D02*
X141200238Y-106205833D01*
X141295476Y-106110595D01*
X141485952Y-106062976D01*
X141819285Y-106062976D01*
X142009761Y-106110595D01*
X142105000Y-106205833D01*
X142152619Y-106301071D01*
X142152619Y-106491547D01*
X142105000Y-106586785D01*
X142009761Y-106682023D01*
X141819285Y-106729642D01*
X141485952Y-106729642D01*
X141295476Y-106682023D01*
X141200238Y-106586785D01*
X141152619Y-106491547D01*
X141152619Y-106301071D01*
X142057380Y-107110595D02*
X142105000Y-107158214D01*
X142152619Y-107253452D01*
X142152619Y-107491547D01*
X142105000Y-107586785D01*
X142057380Y-107634404D01*
X141962142Y-107682023D01*
X141866904Y-107682023D01*
X141724047Y-107634404D01*
X141152619Y-107062976D01*
X141152619Y-107682023D01*
X141533571Y-108872500D02*
X141533571Y-109634404D01*
X141152619Y-110872500D02*
X142152619Y-110872500D01*
X142152619Y-111110595D01*
X142105000Y-111253452D01*
X142009761Y-111348690D01*
X141914523Y-111396309D01*
X141724047Y-111443928D01*
X141581190Y-111443928D01*
X141390714Y-111396309D01*
X141295476Y-111348690D01*
X141200238Y-111253452D01*
X141152619Y-111110595D01*
X141152619Y-110872500D01*
X142057380Y-111824880D02*
X142105000Y-111872500D01*
X142152619Y-111967738D01*
X142152619Y-112205833D01*
X142105000Y-112301071D01*
X142057380Y-112348690D01*
X141962142Y-112396309D01*
X141866904Y-112396309D01*
X141724047Y-112348690D01*
X141152619Y-111777261D01*
X141152619Y-112396309D01*
X141152619Y-112872500D02*
X141152619Y-113062976D01*
X141200238Y-113158214D01*
X141247857Y-113205833D01*
X141390714Y-113301071D01*
X141581190Y-113348690D01*
X141962142Y-113348690D01*
X142057380Y-113301071D01*
X142105000Y-113253452D01*
X142152619Y-113158214D01*
X142152619Y-112967738D01*
X142105000Y-112872500D01*
X142057380Y-112824880D01*
X141962142Y-112777261D01*
X141724047Y-112777261D01*
X141628809Y-112824880D01*
X141581190Y-112872500D01*
X141533571Y-112967738D01*
X141533571Y-113158214D01*
X141581190Y-113253452D01*
X141628809Y-113301071D01*
X141724047Y-113348690D01*
X139565000Y-105761404D02*
X139612619Y-105666166D01*
X139612619Y-105523309D01*
X139565000Y-105380452D01*
X139469761Y-105285214D01*
X139374523Y-105237595D01*
X139184047Y-105189976D01*
X139041190Y-105189976D01*
X138850714Y-105237595D01*
X138755476Y-105285214D01*
X138660238Y-105380452D01*
X138612619Y-105523309D01*
X138612619Y-105618547D01*
X138660238Y-105761404D01*
X138707857Y-105809023D01*
X139041190Y-105809023D01*
X139041190Y-105618547D01*
X138612619Y-106237595D02*
X139612619Y-106237595D01*
X138612619Y-106809023D01*
X139612619Y-106809023D01*
X138612619Y-107285214D02*
X139612619Y-107285214D01*
X139612619Y-107523309D01*
X139565000Y-107666166D01*
X139469761Y-107761404D01*
X139374523Y-107809023D01*
X139184047Y-107856642D01*
X139041190Y-107856642D01*
X138850714Y-107809023D01*
X138755476Y-107761404D01*
X138660238Y-107666166D01*
X138612619Y-107523309D01*
X138612619Y-107285214D01*
X136358333Y-105189976D02*
X136358333Y-105666166D01*
X136072619Y-105094738D02*
X137072619Y-105428071D01*
X136072619Y-105761404D01*
X137072619Y-105999500D02*
X137072619Y-106618547D01*
X136691666Y-106285214D01*
X136691666Y-106428071D01*
X136644047Y-106523309D01*
X136596428Y-106570928D01*
X136501190Y-106618547D01*
X136263095Y-106618547D01*
X136167857Y-106570928D01*
X136120238Y-106523309D01*
X136072619Y-106428071D01*
X136072619Y-106142357D01*
X136120238Y-106047119D01*
X136167857Y-105999500D01*
X136453571Y-107809023D02*
X136453571Y-108570928D01*
X136072619Y-109809023D02*
X137072619Y-109809023D01*
X137072619Y-110047119D01*
X137025000Y-110189976D01*
X136929761Y-110285214D01*
X136834523Y-110332833D01*
X136644047Y-110380452D01*
X136501190Y-110380452D01*
X136310714Y-110332833D01*
X136215476Y-110285214D01*
X136120238Y-110189976D01*
X136072619Y-110047119D01*
X136072619Y-109809023D01*
X136977380Y-110761404D02*
X137025000Y-110809023D01*
X137072619Y-110904261D01*
X137072619Y-111142357D01*
X137025000Y-111237595D01*
X136977380Y-111285214D01*
X136882142Y-111332833D01*
X136786904Y-111332833D01*
X136644047Y-111285214D01*
X136072619Y-110713785D01*
X136072619Y-111332833D01*
X136644047Y-111904261D02*
X136691666Y-111809023D01*
X136739285Y-111761404D01*
X136834523Y-111713785D01*
X136882142Y-111713785D01*
X136977380Y-111761404D01*
X137025000Y-111809023D01*
X137072619Y-111904261D01*
X137072619Y-112094738D01*
X137025000Y-112189976D01*
X136977380Y-112237595D01*
X136882142Y-112285214D01*
X136834523Y-112285214D01*
X136739285Y-112237595D01*
X136691666Y-112189976D01*
X136644047Y-112094738D01*
X136644047Y-111904261D01*
X136596428Y-111809023D01*
X136548809Y-111761404D01*
X136453571Y-111713785D01*
X136263095Y-111713785D01*
X136167857Y-111761404D01*
X136120238Y-111809023D01*
X136072619Y-111904261D01*
X136072619Y-112094738D01*
X136120238Y-112189976D01*
X136167857Y-112237595D01*
X136263095Y-112285214D01*
X136453571Y-112285214D01*
X136548809Y-112237595D01*
X136596428Y-112189976D01*
X136644047Y-112094738D01*
X133818333Y-105189976D02*
X133818333Y-105666166D01*
X133532619Y-105094738D02*
X134532619Y-105428071D01*
X133532619Y-105761404D01*
X134437380Y-106047119D02*
X134485000Y-106094738D01*
X134532619Y-106189976D01*
X134532619Y-106428071D01*
X134485000Y-106523309D01*
X134437380Y-106570928D01*
X134342142Y-106618547D01*
X134246904Y-106618547D01*
X134104047Y-106570928D01*
X133532619Y-105999500D01*
X133532619Y-106618547D01*
X133913571Y-107809023D02*
X133913571Y-108570928D01*
X133532619Y-109809023D02*
X134532619Y-109809023D01*
X134532619Y-110047119D01*
X134485000Y-110189976D01*
X134389761Y-110285214D01*
X134294523Y-110332833D01*
X134104047Y-110380452D01*
X133961190Y-110380452D01*
X133770714Y-110332833D01*
X133675476Y-110285214D01*
X133580238Y-110189976D01*
X133532619Y-110047119D01*
X133532619Y-109809023D01*
X134437380Y-110761404D02*
X134485000Y-110809023D01*
X134532619Y-110904261D01*
X134532619Y-111142357D01*
X134485000Y-111237595D01*
X134437380Y-111285214D01*
X134342142Y-111332833D01*
X134246904Y-111332833D01*
X134104047Y-111285214D01*
X133532619Y-110713785D01*
X133532619Y-111332833D01*
X134532619Y-111666166D02*
X134532619Y-112332833D01*
X133532619Y-111904261D01*
X130992619Y-105110595D02*
X131992619Y-105110595D01*
X131992619Y-105348690D01*
X131945000Y-105491547D01*
X131849761Y-105586785D01*
X131754523Y-105634404D01*
X131564047Y-105682023D01*
X131421190Y-105682023D01*
X131230714Y-105634404D01*
X131135476Y-105586785D01*
X131040238Y-105491547D01*
X130992619Y-105348690D01*
X130992619Y-105110595D01*
X130897380Y-106777261D02*
X130945000Y-106682023D01*
X131040238Y-106586785D01*
X131183095Y-106443928D01*
X131230714Y-106348690D01*
X131230714Y-106253452D01*
X130992619Y-106301071D02*
X131040238Y-106205833D01*
X131135476Y-106110595D01*
X131325952Y-106062976D01*
X131659285Y-106062976D01*
X131849761Y-106110595D01*
X131945000Y-106205833D01*
X131992619Y-106301071D01*
X131992619Y-106491547D01*
X131945000Y-106586785D01*
X131849761Y-106682023D01*
X131659285Y-106729642D01*
X131325952Y-106729642D01*
X131135476Y-106682023D01*
X131040238Y-106586785D01*
X130992619Y-106491547D01*
X130992619Y-106301071D01*
X130992619Y-107682023D02*
X130992619Y-107110595D01*
X130992619Y-107396309D02*
X131992619Y-107396309D01*
X131849761Y-107301071D01*
X131754523Y-107205833D01*
X131706904Y-107110595D01*
X131373571Y-108872500D02*
X131373571Y-109634404D01*
X130992619Y-110872500D02*
X131992619Y-110872500D01*
X131992619Y-111110595D01*
X131945000Y-111253452D01*
X131849761Y-111348690D01*
X131754523Y-111396309D01*
X131564047Y-111443928D01*
X131421190Y-111443928D01*
X131230714Y-111396309D01*
X131135476Y-111348690D01*
X131040238Y-111253452D01*
X130992619Y-111110595D01*
X130992619Y-110872500D01*
X131897380Y-111824880D02*
X131945000Y-111872500D01*
X131992619Y-111967738D01*
X131992619Y-112205833D01*
X131945000Y-112301071D01*
X131897380Y-112348690D01*
X131802142Y-112396309D01*
X131706904Y-112396309D01*
X131564047Y-112348690D01*
X130992619Y-111777261D01*
X130992619Y-112396309D01*
X131992619Y-113253452D02*
X131992619Y-113062976D01*
X131945000Y-112967738D01*
X131897380Y-112920119D01*
X131754523Y-112824880D01*
X131564047Y-112777261D01*
X131183095Y-112777261D01*
X131087857Y-112824880D01*
X131040238Y-112872500D01*
X130992619Y-112967738D01*
X130992619Y-113158214D01*
X131040238Y-113253452D01*
X131087857Y-113301071D01*
X131183095Y-113348690D01*
X131421190Y-113348690D01*
X131516428Y-113301071D01*
X131564047Y-113253452D01*
X131611666Y-113158214D01*
X131611666Y-112967738D01*
X131564047Y-112872500D01*
X131516428Y-112824880D01*
X131421190Y-112777261D01*
X128738333Y-105189976D02*
X128738333Y-105666166D01*
X128452619Y-105094738D02*
X129452619Y-105428071D01*
X128452619Y-105761404D01*
X128452619Y-106618547D02*
X128452619Y-106047119D01*
X128452619Y-106332833D02*
X129452619Y-106332833D01*
X129309761Y-106237595D01*
X129214523Y-106142357D01*
X129166904Y-106047119D01*
X128833571Y-107809023D02*
X128833571Y-108570928D01*
X128452619Y-109809023D02*
X129452619Y-109809023D01*
X129452619Y-110047119D01*
X129405000Y-110189976D01*
X129309761Y-110285214D01*
X129214523Y-110332833D01*
X129024047Y-110380452D01*
X128881190Y-110380452D01*
X128690714Y-110332833D01*
X128595476Y-110285214D01*
X128500238Y-110189976D01*
X128452619Y-110047119D01*
X128452619Y-109809023D01*
X129357380Y-110761404D02*
X129405000Y-110809023D01*
X129452619Y-110904261D01*
X129452619Y-111142357D01*
X129405000Y-111237595D01*
X129357380Y-111285214D01*
X129262142Y-111332833D01*
X129166904Y-111332833D01*
X129024047Y-111285214D01*
X128452619Y-110713785D01*
X128452619Y-111332833D01*
X129452619Y-112237595D02*
X129452619Y-111761404D01*
X128976428Y-111713785D01*
X129024047Y-111761404D01*
X129071666Y-111856642D01*
X129071666Y-112094738D01*
X129024047Y-112189976D01*
X128976428Y-112237595D01*
X128881190Y-112285214D01*
X128643095Y-112285214D01*
X128547857Y-112237595D01*
X128500238Y-112189976D01*
X128452619Y-112094738D01*
X128452619Y-111856642D01*
X128500238Y-111761404D01*
X128547857Y-111713785D01*
X126198333Y-105189976D02*
X126198333Y-105666166D01*
X125912619Y-105094738D02*
X126912619Y-105428071D01*
X125912619Y-105761404D01*
X126912619Y-106285214D02*
X126912619Y-106380452D01*
X126865000Y-106475690D01*
X126817380Y-106523309D01*
X126722142Y-106570928D01*
X126531666Y-106618547D01*
X126293571Y-106618547D01*
X126103095Y-106570928D01*
X126007857Y-106523309D01*
X125960238Y-106475690D01*
X125912619Y-106380452D01*
X125912619Y-106285214D01*
X125960238Y-106189976D01*
X126007857Y-106142357D01*
X126103095Y-106094738D01*
X126293571Y-106047119D01*
X126531666Y-106047119D01*
X126722142Y-106094738D01*
X126817380Y-106142357D01*
X126865000Y-106189976D01*
X126912619Y-106285214D01*
X126293571Y-107809023D02*
X126293571Y-108570928D01*
X125912619Y-109809023D02*
X126912619Y-109809023D01*
X126912619Y-110047119D01*
X126865000Y-110189976D01*
X126769761Y-110285214D01*
X126674523Y-110332833D01*
X126484047Y-110380452D01*
X126341190Y-110380452D01*
X126150714Y-110332833D01*
X126055476Y-110285214D01*
X125960238Y-110189976D01*
X125912619Y-110047119D01*
X125912619Y-109809023D01*
X126817380Y-110761404D02*
X126865000Y-110809023D01*
X126912619Y-110904261D01*
X126912619Y-111142357D01*
X126865000Y-111237595D01*
X126817380Y-111285214D01*
X126722142Y-111332833D01*
X126626904Y-111332833D01*
X126484047Y-111285214D01*
X125912619Y-110713785D01*
X125912619Y-111332833D01*
X126579285Y-112189976D02*
X125912619Y-112189976D01*
X126960238Y-111951880D02*
X126245952Y-111713785D01*
X126245952Y-112332833D01*
X119165619Y-110682738D02*
X118165619Y-111016071D01*
X119165619Y-111349404D01*
X118260857Y-112254166D02*
X118213238Y-112206547D01*
X118165619Y-112063690D01*
X118165619Y-111968452D01*
X118213238Y-111825595D01*
X118308476Y-111730357D01*
X118403714Y-111682738D01*
X118594190Y-111635119D01*
X118737047Y-111635119D01*
X118927523Y-111682738D01*
X119022761Y-111730357D01*
X119118000Y-111825595D01*
X119165619Y-111968452D01*
X119165619Y-112063690D01*
X119118000Y-112206547D01*
X119070380Y-112254166D01*
X118260857Y-113254166D02*
X118213238Y-113206547D01*
X118165619Y-113063690D01*
X118165619Y-112968452D01*
X118213238Y-112825595D01*
X118308476Y-112730357D01*
X118403714Y-112682738D01*
X118594190Y-112635119D01*
X118737047Y-112635119D01*
X118927523Y-112682738D01*
X119022761Y-112730357D01*
X119118000Y-112825595D01*
X119165619Y-112968452D01*
X119165619Y-113063690D01*
X119118000Y-113206547D01*
X119070380Y-113254166D01*
X123372619Y-105110595D02*
X124372619Y-105110595D01*
X124372619Y-105348690D01*
X124325000Y-105491547D01*
X124229761Y-105586785D01*
X124134523Y-105634404D01*
X123944047Y-105682023D01*
X123801190Y-105682023D01*
X123610714Y-105634404D01*
X123515476Y-105586785D01*
X123420238Y-105491547D01*
X123372619Y-105348690D01*
X123372619Y-105110595D01*
X123277380Y-106777261D02*
X123325000Y-106682023D01*
X123420238Y-106586785D01*
X123563095Y-106443928D01*
X123610714Y-106348690D01*
X123610714Y-106253452D01*
X123372619Y-106301071D02*
X123420238Y-106205833D01*
X123515476Y-106110595D01*
X123705952Y-106062976D01*
X124039285Y-106062976D01*
X124229761Y-106110595D01*
X124325000Y-106205833D01*
X124372619Y-106301071D01*
X124372619Y-106491547D01*
X124325000Y-106586785D01*
X124229761Y-106682023D01*
X124039285Y-106729642D01*
X123705952Y-106729642D01*
X123515476Y-106682023D01*
X123420238Y-106586785D01*
X123372619Y-106491547D01*
X123372619Y-106301071D01*
X124372619Y-107348690D02*
X124372619Y-107443928D01*
X124325000Y-107539166D01*
X124277380Y-107586785D01*
X124182142Y-107634404D01*
X123991666Y-107682023D01*
X123753571Y-107682023D01*
X123563095Y-107634404D01*
X123467857Y-107586785D01*
X123420238Y-107539166D01*
X123372619Y-107443928D01*
X123372619Y-107348690D01*
X123420238Y-107253452D01*
X123467857Y-107205833D01*
X123563095Y-107158214D01*
X123753571Y-107110595D01*
X123991666Y-107110595D01*
X124182142Y-107158214D01*
X124277380Y-107205833D01*
X124325000Y-107253452D01*
X124372619Y-107348690D01*
X123753571Y-108872500D02*
X123753571Y-109634404D01*
X123372619Y-110872500D02*
X124372619Y-110872500D01*
X124372619Y-111110595D01*
X124325000Y-111253452D01*
X124229761Y-111348690D01*
X124134523Y-111396309D01*
X123944047Y-111443928D01*
X123801190Y-111443928D01*
X123610714Y-111396309D01*
X123515476Y-111348690D01*
X123420238Y-111253452D01*
X123372619Y-111110595D01*
X123372619Y-110872500D01*
X124277380Y-111824880D02*
X124325000Y-111872500D01*
X124372619Y-111967738D01*
X124372619Y-112205833D01*
X124325000Y-112301071D01*
X124277380Y-112348690D01*
X124182142Y-112396309D01*
X124086904Y-112396309D01*
X123944047Y-112348690D01*
X123372619Y-111777261D01*
X123372619Y-112396309D01*
X124372619Y-112729642D02*
X124372619Y-113348690D01*
X123991666Y-113015357D01*
X123991666Y-113158214D01*
X123944047Y-113253452D01*
X123896428Y-113301071D01*
X123801190Y-113348690D01*
X123563095Y-113348690D01*
X123467857Y-113301071D01*
X123420238Y-113253452D01*
X123372619Y-113158214D01*
X123372619Y-112872500D01*
X123420238Y-112777261D01*
X123467857Y-112729642D01*
X120927857Y-105682023D02*
X120880238Y-105634404D01*
X120832619Y-105491547D01*
X120832619Y-105396309D01*
X120880238Y-105253452D01*
X120975476Y-105158214D01*
X121070714Y-105110595D01*
X121261190Y-105062976D01*
X121404047Y-105062976D01*
X121594523Y-105110595D01*
X121689761Y-105158214D01*
X121785000Y-105253452D01*
X121832619Y-105396309D01*
X121832619Y-105491547D01*
X121785000Y-105634404D01*
X121737380Y-105682023D01*
X121118333Y-106062976D02*
X121118333Y-106539166D01*
X120832619Y-105967738D02*
X121832619Y-106301071D01*
X120832619Y-106634404D01*
X120880238Y-106920119D02*
X120832619Y-107062976D01*
X120832619Y-107301071D01*
X120880238Y-107396309D01*
X120927857Y-107443928D01*
X121023095Y-107491547D01*
X121118333Y-107491547D01*
X121213571Y-107443928D01*
X121261190Y-107396309D01*
X121308809Y-107301071D01*
X121356428Y-107110595D01*
X121404047Y-107015357D01*
X121451666Y-106967738D01*
X121546904Y-106920119D01*
X121642142Y-106920119D01*
X121737380Y-106967738D01*
X121785000Y-107015357D01*
X121832619Y-107110595D01*
X121832619Y-107348690D01*
X121785000Y-107491547D01*
X121213571Y-108682023D02*
X121213571Y-109443928D01*
X120832619Y-110682023D02*
X121832619Y-110682023D01*
X121832619Y-110920119D01*
X121785000Y-111062976D01*
X121689761Y-111158214D01*
X121594523Y-111205833D01*
X121404047Y-111253452D01*
X121261190Y-111253452D01*
X121070714Y-111205833D01*
X120975476Y-111158214D01*
X120880238Y-111062976D01*
X120832619Y-110920119D01*
X120832619Y-110682023D01*
X121737380Y-111634404D02*
X121785000Y-111682023D01*
X121832619Y-111777261D01*
X121832619Y-112015357D01*
X121785000Y-112110595D01*
X121737380Y-112158214D01*
X121642142Y-112205833D01*
X121546904Y-112205833D01*
X121404047Y-112158214D01*
X120832619Y-111586785D01*
X120832619Y-112205833D01*
X121737380Y-112586785D02*
X121785000Y-112634404D01*
X121832619Y-112729642D01*
X121832619Y-112967738D01*
X121785000Y-113062976D01*
X121737380Y-113110595D01*
X121642142Y-113158214D01*
X121546904Y-113158214D01*
X121404047Y-113110595D01*
X120832619Y-112539166D01*
X120832619Y-113158214D01*
X103951428Y-120816666D02*
X104427619Y-120816666D01*
X103856190Y-121102380D02*
X104189523Y-120102380D01*
X104522857Y-121102380D01*
X104856190Y-121102380D02*
X104856190Y-120435714D01*
X104856190Y-120626190D02*
X104903809Y-120530952D01*
X104951428Y-120483333D01*
X105046666Y-120435714D01*
X105141904Y-120435714D01*
X105903809Y-121102380D02*
X105903809Y-120102380D01*
X105903809Y-121054761D02*
X105808571Y-121102380D01*
X105618095Y-121102380D01*
X105522857Y-121054761D01*
X105475238Y-121007142D01*
X105427619Y-120911904D01*
X105427619Y-120626190D01*
X105475238Y-120530952D01*
X105522857Y-120483333D01*
X105618095Y-120435714D01*
X105808571Y-120435714D01*
X105903809Y-120483333D01*
X106808571Y-120435714D02*
X106808571Y-121102380D01*
X106380000Y-120435714D02*
X106380000Y-120959523D01*
X106427619Y-121054761D01*
X106522857Y-121102380D01*
X106665714Y-121102380D01*
X106760952Y-121054761D01*
X106808571Y-121007142D01*
X107284761Y-121102380D02*
X107284761Y-120435714D01*
X107284761Y-120102380D02*
X107237142Y-120150000D01*
X107284761Y-120197619D01*
X107332380Y-120150000D01*
X107284761Y-120102380D01*
X107284761Y-120197619D01*
X107760952Y-120435714D02*
X107760952Y-121102380D01*
X107760952Y-120530952D02*
X107808571Y-120483333D01*
X107903809Y-120435714D01*
X108046666Y-120435714D01*
X108141904Y-120483333D01*
X108189523Y-120578571D01*
X108189523Y-121102380D01*
X108808571Y-121102380D02*
X108713333Y-121054761D01*
X108665714Y-121007142D01*
X108618095Y-120911904D01*
X108618095Y-120626190D01*
X108665714Y-120530952D01*
X108713333Y-120483333D01*
X108808571Y-120435714D01*
X108951428Y-120435714D01*
X109046666Y-120483333D01*
X109094285Y-120530952D01*
X109141904Y-120626190D01*
X109141904Y-120911904D01*
X109094285Y-121007142D01*
X109046666Y-121054761D01*
X108951428Y-121102380D01*
X108808571Y-121102380D01*
X110332380Y-121102380D02*
X110332380Y-120102380D01*
X110665714Y-120816666D01*
X110999047Y-120102380D01*
X110999047Y-121102380D01*
X111856190Y-121054761D02*
X111760952Y-121102380D01*
X111570476Y-121102380D01*
X111475238Y-121054761D01*
X111427619Y-120959523D01*
X111427619Y-120578571D01*
X111475238Y-120483333D01*
X111570476Y-120435714D01*
X111760952Y-120435714D01*
X111856190Y-120483333D01*
X111903809Y-120578571D01*
X111903809Y-120673809D01*
X111427619Y-120769047D01*
X112760952Y-120435714D02*
X112760952Y-121245238D01*
X112713333Y-121340476D01*
X112665714Y-121388095D01*
X112570476Y-121435714D01*
X112427619Y-121435714D01*
X112332380Y-121388095D01*
X112760952Y-121054761D02*
X112665714Y-121102380D01*
X112475238Y-121102380D01*
X112380000Y-121054761D01*
X112332380Y-121007142D01*
X112284761Y-120911904D01*
X112284761Y-120626190D01*
X112332380Y-120530952D01*
X112380000Y-120483333D01*
X112475238Y-120435714D01*
X112665714Y-120435714D01*
X112760952Y-120483333D01*
X113665714Y-121102380D02*
X113665714Y-120578571D01*
X113618095Y-120483333D01*
X113522857Y-120435714D01*
X113332380Y-120435714D01*
X113237142Y-120483333D01*
X113665714Y-121054761D02*
X113570476Y-121102380D01*
X113332380Y-121102380D01*
X113237142Y-121054761D01*
X113189523Y-120959523D01*
X113189523Y-120864285D01*
X113237142Y-120769047D01*
X113332380Y-120721428D01*
X113570476Y-120721428D01*
X113665714Y-120673809D01*
X114094285Y-120197619D02*
X114141904Y-120150000D01*
X114237142Y-120102380D01*
X114475238Y-120102380D01*
X114570476Y-120150000D01*
X114618095Y-120197619D01*
X114665714Y-120292857D01*
X114665714Y-120388095D01*
X114618095Y-120530952D01*
X114046666Y-121102380D01*
X114665714Y-121102380D01*
X115570476Y-120102380D02*
X115094285Y-120102380D01*
X115046666Y-120578571D01*
X115094285Y-120530952D01*
X115189523Y-120483333D01*
X115427619Y-120483333D01*
X115522857Y-120530952D01*
X115570476Y-120578571D01*
X115618095Y-120673809D01*
X115618095Y-120911904D01*
X115570476Y-121007142D01*
X115522857Y-121054761D01*
X115427619Y-121102380D01*
X115189523Y-121102380D01*
X115094285Y-121054761D01*
X115046666Y-121007142D01*
X116475238Y-120102380D02*
X116284761Y-120102380D01*
X116189523Y-120150000D01*
X116141904Y-120197619D01*
X116046666Y-120340476D01*
X115999047Y-120530952D01*
X115999047Y-120911904D01*
X116046666Y-121007142D01*
X116094285Y-121054761D01*
X116189523Y-121102380D01*
X116380000Y-121102380D01*
X116475238Y-121054761D01*
X116522857Y-121007142D01*
X116570476Y-120911904D01*
X116570476Y-120673809D01*
X116522857Y-120578571D01*
X116475238Y-120530952D01*
X116380000Y-120483333D01*
X116189523Y-120483333D01*
X116094285Y-120530952D01*
X116046666Y-120578571D01*
X115999047Y-120673809D01*
X117189523Y-120102380D02*
X117284761Y-120102380D01*
X117380000Y-120150000D01*
X117427619Y-120197619D01*
X117475238Y-120292857D01*
X117522857Y-120483333D01*
X117522857Y-120721428D01*
X117475238Y-120911904D01*
X117427619Y-121007142D01*
X117380000Y-121054761D01*
X117284761Y-121102380D01*
X117189523Y-121102380D01*
X117094285Y-121054761D01*
X117046666Y-121007142D01*
X116999047Y-120911904D01*
X116951428Y-120721428D01*
X116951428Y-120483333D01*
X116999047Y-120292857D01*
X117046666Y-120197619D01*
X117094285Y-120150000D01*
X117189523Y-120102380D01*
X118570476Y-120435714D02*
X118951428Y-120435714D01*
X118713333Y-120102380D02*
X118713333Y-120959523D01*
X118760952Y-121054761D01*
X118856190Y-121102380D01*
X118951428Y-121102380D01*
X119427619Y-121102380D02*
X119332380Y-121054761D01*
X119284761Y-121007142D01*
X119237142Y-120911904D01*
X119237142Y-120626190D01*
X119284761Y-120530952D01*
X119332380Y-120483333D01*
X119427619Y-120435714D01*
X119570476Y-120435714D01*
X119665714Y-120483333D01*
X119713333Y-120530952D01*
X119760952Y-120626190D01*
X119760952Y-120911904D01*
X119713333Y-121007142D01*
X119665714Y-121054761D01*
X119570476Y-121102380D01*
X119427619Y-121102380D01*
X120856190Y-120102380D02*
X121475238Y-120102380D01*
X121141904Y-120483333D01*
X121284761Y-120483333D01*
X121380000Y-120530952D01*
X121427619Y-120578571D01*
X121475238Y-120673809D01*
X121475238Y-120911904D01*
X121427619Y-121007142D01*
X121380000Y-121054761D01*
X121284761Y-121102380D01*
X120999047Y-121102380D01*
X120903809Y-121054761D01*
X120856190Y-121007142D01*
X122094285Y-120102380D02*
X122189523Y-120102380D01*
X122284761Y-120150000D01*
X122332380Y-120197619D01*
X122380000Y-120292857D01*
X122427619Y-120483333D01*
X122427619Y-120721428D01*
X122380000Y-120911904D01*
X122332380Y-121007142D01*
X122284761Y-121054761D01*
X122189523Y-121102380D01*
X122094285Y-121102380D01*
X121999047Y-121054761D01*
X121951428Y-121007142D01*
X121903809Y-120911904D01*
X121856190Y-120721428D01*
X121856190Y-120483333D01*
X121903809Y-120292857D01*
X121951428Y-120197619D01*
X121999047Y-120150000D01*
X122094285Y-120102380D01*
X123618095Y-121102380D02*
X123618095Y-120102380D01*
X123999047Y-120102380D01*
X124094285Y-120150000D01*
X124141904Y-120197619D01*
X124189523Y-120292857D01*
X124189523Y-120435714D01*
X124141904Y-120530952D01*
X124094285Y-120578571D01*
X123999047Y-120626190D01*
X123618095Y-120626190D01*
X124618095Y-121102380D02*
X124618095Y-120435714D01*
X124618095Y-120102380D02*
X124570476Y-120150000D01*
X124618095Y-120197619D01*
X124665714Y-120150000D01*
X124618095Y-120102380D01*
X124618095Y-120197619D01*
X125094285Y-120435714D02*
X125094285Y-121102380D01*
X125094285Y-120530952D02*
X125141904Y-120483333D01*
X125237142Y-120435714D01*
X125380000Y-120435714D01*
X125475238Y-120483333D01*
X125522857Y-120578571D01*
X125522857Y-121102380D01*
X126713333Y-121054761D02*
X126856190Y-121102380D01*
X127094285Y-121102380D01*
X127189523Y-121054761D01*
X127237142Y-121007142D01*
X127284761Y-120911904D01*
X127284761Y-120816666D01*
X127237142Y-120721428D01*
X127189523Y-120673809D01*
X127094285Y-120626190D01*
X126903809Y-120578571D01*
X126808571Y-120530952D01*
X126760952Y-120483333D01*
X126713333Y-120388095D01*
X126713333Y-120292857D01*
X126760952Y-120197619D01*
X126808571Y-120150000D01*
X126903809Y-120102380D01*
X127141904Y-120102380D01*
X127284761Y-120150000D01*
X127713333Y-121102380D02*
X127713333Y-120102380D01*
X128189523Y-121102380D02*
X128189523Y-120102380D01*
X128522857Y-120816666D01*
X128856190Y-120102380D01*
X128856190Y-121102380D01*
X129332380Y-121102380D02*
X129332380Y-120102380D01*
X129665714Y-120816666D01*
X129999047Y-120102380D01*
X129999047Y-121102380D01*
X131237142Y-121102380D02*
X131237142Y-120102380D01*
X131475238Y-120102380D01*
X131618095Y-120150000D01*
X131713333Y-120245238D01*
X131760952Y-120340476D01*
X131808571Y-120530952D01*
X131808571Y-120673809D01*
X131760952Y-120864285D01*
X131713333Y-120959523D01*
X131618095Y-121054761D01*
X131475238Y-121102380D01*
X131237142Y-121102380D01*
X132808571Y-121102380D02*
X132475238Y-120626190D01*
X132237142Y-121102380D02*
X132237142Y-120102380D01*
X132618095Y-120102380D01*
X132713333Y-120150000D01*
X132760952Y-120197619D01*
X132808571Y-120292857D01*
X132808571Y-120435714D01*
X132760952Y-120530952D01*
X132713333Y-120578571D01*
X132618095Y-120626190D01*
X132237142Y-120626190D01*
X133189523Y-120816666D02*
X133665714Y-120816666D01*
X133094285Y-121102380D02*
X133427619Y-120102380D01*
X133760952Y-121102380D01*
X134094285Y-121102380D02*
X134094285Y-120102380D01*
X134427619Y-120816666D01*
X134760952Y-120102380D01*
X134760952Y-121102380D01*
D11*
%TO.C,R26*%
X186445000Y-91913000D02*
X186445000Y-90713000D01*
X188205000Y-90713000D02*
X188205000Y-91913000D01*
%TO.C,R24*%
X188985000Y-91913000D02*
X188985000Y-90713000D01*
X190745000Y-90713000D02*
X190745000Y-91913000D01*
%TO.C,R23*%
X183905000Y-91913000D02*
X183905000Y-90713000D01*
X185665000Y-90713000D02*
X185665000Y-91913000D01*
%TO.C,R21*%
X168665000Y-91913000D02*
X168665000Y-90713000D01*
X170425000Y-90713000D02*
X170425000Y-91913000D01*
%TO.C,R20*%
X176285000Y-91913000D02*
X176285000Y-90713000D01*
X178045000Y-90713000D02*
X178045000Y-91913000D01*
%TO.C,R19*%
X163585000Y-91913000D02*
X163585000Y-90713000D01*
X165345000Y-90713000D02*
X165345000Y-91913000D01*
%TO.C,R17*%
X158505000Y-91913000D02*
X158505000Y-90713000D01*
X160265000Y-90713000D02*
X160265000Y-91913000D01*
%TO.C,R16*%
X153298000Y-91913000D02*
X153298000Y-90713000D01*
X155058000Y-90713000D02*
X155058000Y-91913000D01*
%TO.C,R14*%
X145805000Y-91913000D02*
X145805000Y-90713000D01*
X147565000Y-90713000D02*
X147565000Y-91913000D01*
%TO.C,R12*%
X135645000Y-91913000D02*
X135645000Y-90713000D01*
X137405000Y-90713000D02*
X137405000Y-91913000D01*
%TO.C,R10*%
X128025000Y-91913000D02*
X128025000Y-90713000D01*
X129785000Y-90713000D02*
X129785000Y-91913000D01*
%TO.C,R8*%
X178825000Y-91913000D02*
X178825000Y-90713000D01*
X180585000Y-90713000D02*
X180585000Y-91913000D01*
%TO.C,R6*%
X166125000Y-91913000D02*
X166125000Y-90713000D01*
X167885000Y-90713000D02*
X167885000Y-91913000D01*
%TO.C,R4*%
X148345000Y-91913000D02*
X148345000Y-90713000D01*
X150105000Y-90713000D02*
X150105000Y-91913000D01*
%TO.C,R2*%
X130565000Y-91913000D02*
X130565000Y-90713000D01*
X132325000Y-90713000D02*
X132325000Y-91913000D01*
%TO.C,D26*%
X188075000Y-81620000D02*
X186575000Y-81620000D01*
X188075000Y-81620000D02*
X188075000Y-84820000D01*
X186575000Y-84820000D02*
X186575000Y-81620000D01*
%TO.C,D24*%
X190615000Y-81620000D02*
X189115000Y-81620000D01*
X190615000Y-81620000D02*
X190615000Y-84820000D01*
X189115000Y-84820000D02*
X189115000Y-81620000D01*
%TO.C,D23*%
X185535000Y-81620000D02*
X184035000Y-81620000D01*
X185535000Y-81620000D02*
X185535000Y-84820000D01*
X184035000Y-84820000D02*
X184035000Y-81620000D01*
%TO.C,D21*%
X170295000Y-81620000D02*
X168795000Y-81620000D01*
X170295000Y-81620000D02*
X170295000Y-84820000D01*
X168795000Y-84820000D02*
X168795000Y-81620000D01*
%TO.C,D20*%
X177915000Y-81620000D02*
X176415000Y-81620000D01*
X177915000Y-81620000D02*
X177915000Y-84820000D01*
X176415000Y-84820000D02*
X176415000Y-81620000D01*
%TO.C,D19*%
X165215000Y-81620000D02*
X163715000Y-81620000D01*
X165215000Y-81620000D02*
X165215000Y-84820000D01*
X163715000Y-84820000D02*
X163715000Y-81620000D01*
%TO.C,D17*%
X160135000Y-81620000D02*
X158635000Y-81620000D01*
X160135000Y-81620000D02*
X160135000Y-84820000D01*
X158635000Y-84820000D02*
X158635000Y-81620000D01*
%TO.C,D16*%
X154928000Y-81620000D02*
X153428000Y-81620000D01*
X154928000Y-81620000D02*
X154928000Y-84820000D01*
X153428000Y-84820000D02*
X153428000Y-81620000D01*
%TO.C,D14*%
X147435000Y-81620000D02*
X145935000Y-81620000D01*
X147435000Y-81620000D02*
X147435000Y-84820000D01*
X145935000Y-84820000D02*
X145935000Y-81620000D01*
%TO.C,D12*%
X137275000Y-81620000D02*
X135775000Y-81620000D01*
X137275000Y-81620000D02*
X137275000Y-84820000D01*
X135775000Y-84820000D02*
X135775000Y-81620000D01*
%TO.C,D10*%
X129655000Y-81620000D02*
X128155000Y-81620000D01*
X129655000Y-81620000D02*
X129655000Y-84820000D01*
X128155000Y-84820000D02*
X128155000Y-81620000D01*
%TO.C,D8*%
X180455000Y-81620000D02*
X178955000Y-81620000D01*
X180455000Y-81620000D02*
X180455000Y-84820000D01*
X178955000Y-84820000D02*
X178955000Y-81620000D01*
%TO.C,D6*%
X167755000Y-81620000D02*
X166255000Y-81620000D01*
X167755000Y-81620000D02*
X167755000Y-84820000D01*
X166255000Y-84820000D02*
X166255000Y-81620000D01*
%TO.C,D4*%
X149975000Y-81620000D02*
X148475000Y-81620000D01*
X149975000Y-81620000D02*
X149975000Y-84820000D01*
X148475000Y-84820000D02*
X148475000Y-81620000D01*
%TO.C,D2*%
X132195000Y-81620000D02*
X130695000Y-81620000D01*
X132195000Y-81620000D02*
X132195000Y-84820000D01*
X130695000Y-84820000D02*
X130695000Y-81620000D01*
%TO.C,R25*%
X181365000Y-91913000D02*
X181365000Y-90713000D01*
X183125000Y-90713000D02*
X183125000Y-91913000D01*
%TO.C,R22*%
X120405000Y-91913000D02*
X120405000Y-90713000D01*
X122165000Y-90713000D02*
X122165000Y-91913000D01*
%TO.C,R18*%
X161045000Y-91913000D02*
X161045000Y-90713000D01*
X162805000Y-90713000D02*
X162805000Y-91913000D01*
%TO.C,R15*%
X150885000Y-91913000D02*
X150885000Y-90713000D01*
X152645000Y-90713000D02*
X152645000Y-91913000D01*
%TO.C,R13*%
X143265000Y-91913000D02*
X143265000Y-90713000D01*
X145025000Y-90713000D02*
X145025000Y-91913000D01*
%TO.C,R11*%
X133105000Y-91913000D02*
X133105000Y-90713000D01*
X134865000Y-90713000D02*
X134865000Y-91913000D01*
%TO.C,R9*%
X125485000Y-91913000D02*
X125485000Y-90713000D01*
X127245000Y-90713000D02*
X127245000Y-91913000D01*
%TO.C,R7*%
X173745000Y-91913000D02*
X173745000Y-90713000D01*
X175505000Y-90713000D02*
X175505000Y-91913000D01*
%TO.C,R5*%
X155838000Y-91913000D02*
X155838000Y-90713000D01*
X157598000Y-90713000D02*
X157598000Y-91913000D01*
%TO.C,R3*%
X140725000Y-91913000D02*
X140725000Y-90713000D01*
X142485000Y-90713000D02*
X142485000Y-91913000D01*
%TO.C,R1*%
X122945000Y-91913000D02*
X122945000Y-90713000D01*
X124705000Y-90713000D02*
X124705000Y-91913000D01*
%TO.C,D25*%
X182995000Y-81620000D02*
X181495000Y-81620000D01*
X182995000Y-81620000D02*
X182995000Y-84820000D01*
X181495000Y-84820000D02*
X181495000Y-81620000D01*
%TO.C,D22*%
X122035000Y-81667000D02*
X120535000Y-81667000D01*
X122035000Y-81667000D02*
X122035000Y-84867000D01*
X120535000Y-84867000D02*
X120535000Y-81667000D01*
%TO.C,D18*%
X162675000Y-81620000D02*
X161175000Y-81620000D01*
X162675000Y-81620000D02*
X162675000Y-84820000D01*
X161175000Y-84820000D02*
X161175000Y-81620000D01*
%TO.C,D15*%
X152515000Y-81620000D02*
X151015000Y-81620000D01*
X152515000Y-81620000D02*
X152515000Y-84820000D01*
X151015000Y-84820000D02*
X151015000Y-81620000D01*
%TO.C,D13*%
X144895000Y-81620000D02*
X143395000Y-81620000D01*
X144895000Y-81620000D02*
X144895000Y-84820000D01*
X143395000Y-84820000D02*
X143395000Y-81620000D01*
%TO.C,D11*%
X134735000Y-81620000D02*
X133235000Y-81620000D01*
X134735000Y-81620000D02*
X134735000Y-84820000D01*
X133235000Y-84820000D02*
X133235000Y-81620000D01*
%TO.C,D9*%
X127115000Y-81620000D02*
X125615000Y-81620000D01*
X127115000Y-81620000D02*
X127115000Y-84820000D01*
X125615000Y-84820000D02*
X125615000Y-81620000D01*
%TO.C,D7*%
X175375000Y-81620000D02*
X173875000Y-81620000D01*
X175375000Y-81620000D02*
X175375000Y-84820000D01*
X173875000Y-84820000D02*
X173875000Y-81620000D01*
%TO.C,D5*%
X157468000Y-81620000D02*
X155968000Y-81620000D01*
X157468000Y-81620000D02*
X157468000Y-84820000D01*
X155968000Y-84820000D02*
X155968000Y-81620000D01*
%TO.C,D3*%
X142355000Y-81620000D02*
X140855000Y-81620000D01*
X142355000Y-81620000D02*
X142355000Y-84820000D01*
X140855000Y-84820000D02*
X140855000Y-81620000D01*
%TO.C,D1*%
X124575000Y-81620000D02*
X123075000Y-81620000D01*
X124575000Y-81620000D02*
X124575000Y-84820000D01*
X123075000Y-84820000D02*
X123075000Y-81620000D01*
%TO.C,C2*%
X193405000Y-104630000D02*
X193405000Y-108730000D01*
X193445000Y-104630000D02*
X193445000Y-108730000D01*
X193485000Y-104631000D02*
X193485000Y-108729000D01*
X193525000Y-104633000D02*
X193525000Y-108727000D01*
X193565000Y-104636000D02*
X193565000Y-108724000D01*
X193605000Y-104639000D02*
X193605000Y-108721000D01*
X193645000Y-104643000D02*
X193645000Y-105900000D01*
X193645000Y-107460000D02*
X193645000Y-108717000D01*
X193685000Y-104648000D02*
X193685000Y-105900000D01*
X193685000Y-107460000D02*
X193685000Y-108712000D01*
X193725000Y-104654000D02*
X193725000Y-105900000D01*
X193725000Y-107460000D02*
X193725000Y-108706000D01*
X193765000Y-104661000D02*
X193765000Y-105900000D01*
X193765000Y-107460000D02*
X193765000Y-108699000D01*
X193805000Y-104668000D02*
X193805000Y-105900000D01*
X193805000Y-107460000D02*
X193805000Y-108692000D01*
X193845000Y-104676000D02*
X193845000Y-105900000D01*
X193845000Y-107460000D02*
X193845000Y-108684000D01*
X193885000Y-104685000D02*
X193885000Y-105900000D01*
X193885000Y-107460000D02*
X193885000Y-108675000D01*
X193925000Y-104695000D02*
X193925000Y-105900000D01*
X193925000Y-107460000D02*
X193925000Y-108665000D01*
X193965000Y-104706000D02*
X193965000Y-105900000D01*
X193965000Y-107460000D02*
X193965000Y-108654000D01*
X194005000Y-104717000D02*
X194005000Y-105900000D01*
X194005000Y-107460000D02*
X194005000Y-108643000D01*
X194045000Y-104730000D02*
X194045000Y-105900000D01*
X194045000Y-107460000D02*
X194045000Y-108630000D01*
X194085000Y-104743000D02*
X194085000Y-105900000D01*
X194085000Y-107460000D02*
X194085000Y-108617000D01*
X194126000Y-104757000D02*
X194126000Y-105900000D01*
X194126000Y-107460000D02*
X194126000Y-108603000D01*
X194166000Y-104773000D02*
X194166000Y-105900000D01*
X194166000Y-107460000D02*
X194166000Y-108587000D01*
X194206000Y-104789000D02*
X194206000Y-105900000D01*
X194206000Y-107460000D02*
X194206000Y-108571000D01*
X194246000Y-104806000D02*
X194246000Y-105900000D01*
X194246000Y-107460000D02*
X194246000Y-108554000D01*
X194286000Y-104824000D02*
X194286000Y-105900000D01*
X194286000Y-107460000D02*
X194286000Y-108536000D01*
X194326000Y-104843000D02*
X194326000Y-105900000D01*
X194326000Y-107460000D02*
X194326000Y-108517000D01*
X194366000Y-104863000D02*
X194366000Y-105900000D01*
X194366000Y-107460000D02*
X194366000Y-108497000D01*
X194406000Y-104884000D02*
X194406000Y-105900000D01*
X194406000Y-107460000D02*
X194406000Y-108476000D01*
X194446000Y-104907000D02*
X194446000Y-105900000D01*
X194446000Y-107460000D02*
X194446000Y-108453000D01*
X194486000Y-104930000D02*
X194486000Y-105900000D01*
X194486000Y-107460000D02*
X194486000Y-108430000D01*
X194526000Y-104955000D02*
X194526000Y-105900000D01*
X194526000Y-107460000D02*
X194526000Y-108405000D01*
X194566000Y-104981000D02*
X194566000Y-105900000D01*
X194566000Y-107460000D02*
X194566000Y-108379000D01*
X194606000Y-105008000D02*
X194606000Y-105900000D01*
X194606000Y-107460000D02*
X194606000Y-108352000D01*
X194646000Y-105037000D02*
X194646000Y-105900000D01*
X194646000Y-107460000D02*
X194646000Y-108323000D01*
X194686000Y-105067000D02*
X194686000Y-105900000D01*
X194686000Y-107460000D02*
X194686000Y-108293000D01*
X194726000Y-105099000D02*
X194726000Y-105900000D01*
X194726000Y-107460000D02*
X194726000Y-108261000D01*
X194766000Y-105133000D02*
X194766000Y-105900000D01*
X194766000Y-107460000D02*
X194766000Y-108227000D01*
X194806000Y-105168000D02*
X194806000Y-105900000D01*
X194806000Y-107460000D02*
X194806000Y-108192000D01*
X194846000Y-105205000D02*
X194846000Y-105900000D01*
X194846000Y-107460000D02*
X194846000Y-108155000D01*
X194886000Y-105244000D02*
X194886000Y-105900000D01*
X194886000Y-107460000D02*
X194886000Y-108116000D01*
X194926000Y-105285000D02*
X194926000Y-105900000D01*
X194926000Y-107460000D02*
X194926000Y-108075000D01*
X194966000Y-105329000D02*
X194966000Y-105900000D01*
X194966000Y-107460000D02*
X194966000Y-108031000D01*
X195006000Y-105375000D02*
X195006000Y-105900000D01*
X195006000Y-107460000D02*
X195006000Y-107985000D01*
X195046000Y-105424000D02*
X195046000Y-105900000D01*
X195046000Y-107460000D02*
X195046000Y-107936000D01*
X195086000Y-105476000D02*
X195086000Y-105900000D01*
X195086000Y-107460000D02*
X195086000Y-107884000D01*
X195126000Y-105532000D02*
X195126000Y-105900000D01*
X195126000Y-107460000D02*
X195126000Y-107828000D01*
X195166000Y-105592000D02*
X195166000Y-105900000D01*
X195166000Y-107460000D02*
X195166000Y-107768000D01*
X195206000Y-105657000D02*
X195206000Y-107703000D01*
X195246000Y-105728000D02*
X195246000Y-107632000D01*
X195286000Y-105806000D02*
X195286000Y-107554000D01*
X195326000Y-105894000D02*
X195326000Y-107466000D01*
X195366000Y-105994000D02*
X195366000Y-107366000D01*
X195406000Y-106113000D02*
X195406000Y-107247000D01*
X195446000Y-106265000D02*
X195446000Y-107095000D01*
X195486000Y-106515000D02*
X195486000Y-106845000D01*
X190705000Y-106680000D02*
X191605000Y-106680000D01*
X191155000Y-106230000D02*
X191155000Y-107130000D01*
X195251436Y-105700830D02*
G75*
G03*
X191559004Y-105700000I-1846436J-979170D01*
G01*
X195251436Y-107659170D02*
G75*
G02*
X191559004Y-107660000I-1846436J979170D01*
G01*
X195251436Y-107659170D02*
G75*
G03*
X195250996Y-105700000I-1846436J979170D01*
G01*
%TO.C,C1*%
X117745000Y-108857000D02*
X117745000Y-104757000D01*
X117705000Y-108857000D02*
X117705000Y-104757000D01*
X117665000Y-108856000D02*
X117665000Y-104758000D01*
X117625000Y-108854000D02*
X117625000Y-104760000D01*
X117585000Y-108851000D02*
X117585000Y-104763000D01*
X117545000Y-108848000D02*
X117545000Y-104766000D01*
X117505000Y-108844000D02*
X117505000Y-107587000D01*
X117505000Y-106027000D02*
X117505000Y-104770000D01*
X117465000Y-108839000D02*
X117465000Y-107587000D01*
X117465000Y-106027000D02*
X117465000Y-104775000D01*
X117425000Y-108833000D02*
X117425000Y-107587000D01*
X117425000Y-106027000D02*
X117425000Y-104781000D01*
X117385000Y-108826000D02*
X117385000Y-107587000D01*
X117385000Y-106027000D02*
X117385000Y-104788000D01*
X117345000Y-108819000D02*
X117345000Y-107587000D01*
X117345000Y-106027000D02*
X117345000Y-104795000D01*
X117305000Y-108811000D02*
X117305000Y-107587000D01*
X117305000Y-106027000D02*
X117305000Y-104803000D01*
X117265000Y-108802000D02*
X117265000Y-107587000D01*
X117265000Y-106027000D02*
X117265000Y-104812000D01*
X117225000Y-108792000D02*
X117225000Y-107587000D01*
X117225000Y-106027000D02*
X117225000Y-104822000D01*
X117185000Y-108781000D02*
X117185000Y-107587000D01*
X117185000Y-106027000D02*
X117185000Y-104833000D01*
X117145000Y-108770000D02*
X117145000Y-107587000D01*
X117145000Y-106027000D02*
X117145000Y-104844000D01*
X117105000Y-108757000D02*
X117105000Y-107587000D01*
X117105000Y-106027000D02*
X117105000Y-104857000D01*
X117065000Y-108744000D02*
X117065000Y-107587000D01*
X117065000Y-106027000D02*
X117065000Y-104870000D01*
X117024000Y-108730000D02*
X117024000Y-107587000D01*
X117024000Y-106027000D02*
X117024000Y-104884000D01*
X116984000Y-108714000D02*
X116984000Y-107587000D01*
X116984000Y-106027000D02*
X116984000Y-104900000D01*
X116944000Y-108698000D02*
X116944000Y-107587000D01*
X116944000Y-106027000D02*
X116944000Y-104916000D01*
X116904000Y-108681000D02*
X116904000Y-107587000D01*
X116904000Y-106027000D02*
X116904000Y-104933000D01*
X116864000Y-108663000D02*
X116864000Y-107587000D01*
X116864000Y-106027000D02*
X116864000Y-104951000D01*
X116824000Y-108644000D02*
X116824000Y-107587000D01*
X116824000Y-106027000D02*
X116824000Y-104970000D01*
X116784000Y-108624000D02*
X116784000Y-107587000D01*
X116784000Y-106027000D02*
X116784000Y-104990000D01*
X116744000Y-108603000D02*
X116744000Y-107587000D01*
X116744000Y-106027000D02*
X116744000Y-105011000D01*
X116704000Y-108580000D02*
X116704000Y-107587000D01*
X116704000Y-106027000D02*
X116704000Y-105034000D01*
X116664000Y-108557000D02*
X116664000Y-107587000D01*
X116664000Y-106027000D02*
X116664000Y-105057000D01*
X116624000Y-108532000D02*
X116624000Y-107587000D01*
X116624000Y-106027000D02*
X116624000Y-105082000D01*
X116584000Y-108506000D02*
X116584000Y-107587000D01*
X116584000Y-106027000D02*
X116584000Y-105108000D01*
X116544000Y-108479000D02*
X116544000Y-107587000D01*
X116544000Y-106027000D02*
X116544000Y-105135000D01*
X116504000Y-108450000D02*
X116504000Y-107587000D01*
X116504000Y-106027000D02*
X116504000Y-105164000D01*
X116464000Y-108420000D02*
X116464000Y-107587000D01*
X116464000Y-106027000D02*
X116464000Y-105194000D01*
X116424000Y-108388000D02*
X116424000Y-107587000D01*
X116424000Y-106027000D02*
X116424000Y-105226000D01*
X116384000Y-108354000D02*
X116384000Y-107587000D01*
X116384000Y-106027000D02*
X116384000Y-105260000D01*
X116344000Y-108319000D02*
X116344000Y-107587000D01*
X116344000Y-106027000D02*
X116344000Y-105295000D01*
X116304000Y-108282000D02*
X116304000Y-107587000D01*
X116304000Y-106027000D02*
X116304000Y-105332000D01*
X116264000Y-108243000D02*
X116264000Y-107587000D01*
X116264000Y-106027000D02*
X116264000Y-105371000D01*
X116224000Y-108202000D02*
X116224000Y-107587000D01*
X116224000Y-106027000D02*
X116224000Y-105412000D01*
X116184000Y-108158000D02*
X116184000Y-107587000D01*
X116184000Y-106027000D02*
X116184000Y-105456000D01*
X116144000Y-108112000D02*
X116144000Y-107587000D01*
X116144000Y-106027000D02*
X116144000Y-105502000D01*
X116104000Y-108063000D02*
X116104000Y-107587000D01*
X116104000Y-106027000D02*
X116104000Y-105551000D01*
X116064000Y-108011000D02*
X116064000Y-107587000D01*
X116064000Y-106027000D02*
X116064000Y-105603000D01*
X116024000Y-107955000D02*
X116024000Y-107587000D01*
X116024000Y-106027000D02*
X116024000Y-105659000D01*
X115984000Y-107895000D02*
X115984000Y-107587000D01*
X115984000Y-106027000D02*
X115984000Y-105719000D01*
X115944000Y-107830000D02*
X115944000Y-105784000D01*
X115904000Y-107759000D02*
X115904000Y-105855000D01*
X115864000Y-107681000D02*
X115864000Y-105933000D01*
X115824000Y-107593000D02*
X115824000Y-106021000D01*
X115784000Y-107493000D02*
X115784000Y-106121000D01*
X115744000Y-107374000D02*
X115744000Y-106240000D01*
X115704000Y-107222000D02*
X115704000Y-106392000D01*
X115664000Y-106972000D02*
X115664000Y-106642000D01*
X120445000Y-106807000D02*
X119545000Y-106807000D01*
X119995000Y-107257000D02*
X119995000Y-106357000D01*
X115898564Y-107786170D02*
G75*
G03*
X119590996Y-107787000I1846436J979170D01*
G01*
X115898564Y-105827830D02*
G75*
G02*
X119590996Y-105827000I1846436J-979170D01*
G01*
X115898564Y-105827830D02*
G75*
G03*
X115899004Y-107787000I1846436J-979170D01*
G01*
%TO.C,J3*%
X109280000Y-85785000D02*
X107950000Y-85785000D01*
X109280000Y-84455000D02*
X109280000Y-85785000D01*
X109280000Y-83185000D02*
X106620000Y-83185000D01*
X106620000Y-83185000D02*
X106620000Y-75505000D01*
X109280000Y-83185000D02*
X109280000Y-75505000D01*
X109280000Y-75505000D02*
X106620000Y-75505000D01*
%TO.C,J2*%
X117415000Y-104200000D02*
X117415000Y-102870000D01*
X118745000Y-104200000D02*
X117415000Y-104200000D01*
X120015000Y-104200000D02*
X120015000Y-101540000D01*
X120015000Y-101540000D02*
X193735000Y-101540000D01*
X120015000Y-104200000D02*
X193735000Y-104200000D01*
X193735000Y-104200000D02*
X193735000Y-101540000D01*
D10*
%TO.C,J1*%
X104775000Y-104140000D02*
X104775000Y-96520000D01*
X206375000Y-104140000D02*
X104775000Y-104140000D01*
X206375000Y-96520000D02*
X206375000Y-104140000D01*
X104775000Y-96520000D02*
X206375000Y-96520000D01*
%TO.C,R26*%
X187777380Y-95638857D02*
X187301190Y-95972190D01*
X187777380Y-96210285D02*
X186777380Y-96210285D01*
X186777380Y-95829333D01*
X186825000Y-95734095D01*
X186872619Y-95686476D01*
X186967857Y-95638857D01*
X187110714Y-95638857D01*
X187205952Y-95686476D01*
X187253571Y-95734095D01*
X187301190Y-95829333D01*
X187301190Y-96210285D01*
X186872619Y-95257904D02*
X186825000Y-95210285D01*
X186777380Y-95115047D01*
X186777380Y-94876952D01*
X186825000Y-94781714D01*
X186872619Y-94734095D01*
X186967857Y-94686476D01*
X187063095Y-94686476D01*
X187205952Y-94734095D01*
X187777380Y-95305523D01*
X187777380Y-94686476D01*
X186777380Y-93829333D02*
X186777380Y-94019809D01*
X186825000Y-94115047D01*
X186872619Y-94162666D01*
X187015476Y-94257904D01*
X187205952Y-94305523D01*
X187586904Y-94305523D01*
X187682142Y-94257904D01*
X187729761Y-94210285D01*
X187777380Y-94115047D01*
X187777380Y-93924571D01*
X187729761Y-93829333D01*
X187682142Y-93781714D01*
X187586904Y-93734095D01*
X187348809Y-93734095D01*
X187253571Y-93781714D01*
X187205952Y-93829333D01*
X187158333Y-93924571D01*
X187158333Y-94115047D01*
X187205952Y-94210285D01*
X187253571Y-94257904D01*
X187348809Y-94305523D01*
%TO.C,R24*%
X190317380Y-95638857D02*
X189841190Y-95972190D01*
X190317380Y-96210285D02*
X189317380Y-96210285D01*
X189317380Y-95829333D01*
X189365000Y-95734095D01*
X189412619Y-95686476D01*
X189507857Y-95638857D01*
X189650714Y-95638857D01*
X189745952Y-95686476D01*
X189793571Y-95734095D01*
X189841190Y-95829333D01*
X189841190Y-96210285D01*
X189412619Y-95257904D02*
X189365000Y-95210285D01*
X189317380Y-95115047D01*
X189317380Y-94876952D01*
X189365000Y-94781714D01*
X189412619Y-94734095D01*
X189507857Y-94686476D01*
X189603095Y-94686476D01*
X189745952Y-94734095D01*
X190317380Y-95305523D01*
X190317380Y-94686476D01*
X189650714Y-93829333D02*
X190317380Y-93829333D01*
X189269761Y-94067428D02*
X189984047Y-94305523D01*
X189984047Y-93686476D01*
%TO.C,R23*%
X185237380Y-95638857D02*
X184761190Y-95972190D01*
X185237380Y-96210285D02*
X184237380Y-96210285D01*
X184237380Y-95829333D01*
X184285000Y-95734095D01*
X184332619Y-95686476D01*
X184427857Y-95638857D01*
X184570714Y-95638857D01*
X184665952Y-95686476D01*
X184713571Y-95734095D01*
X184761190Y-95829333D01*
X184761190Y-96210285D01*
X184332619Y-95257904D02*
X184285000Y-95210285D01*
X184237380Y-95115047D01*
X184237380Y-94876952D01*
X184285000Y-94781714D01*
X184332619Y-94734095D01*
X184427857Y-94686476D01*
X184523095Y-94686476D01*
X184665952Y-94734095D01*
X185237380Y-95305523D01*
X185237380Y-94686476D01*
X184237380Y-94353142D02*
X184237380Y-93734095D01*
X184618333Y-94067428D01*
X184618333Y-93924571D01*
X184665952Y-93829333D01*
X184713571Y-93781714D01*
X184808809Y-93734095D01*
X185046904Y-93734095D01*
X185142142Y-93781714D01*
X185189761Y-93829333D01*
X185237380Y-93924571D01*
X185237380Y-94210285D01*
X185189761Y-94305523D01*
X185142142Y-94353142D01*
%TO.C,R21*%
X169997380Y-95638857D02*
X169521190Y-95972190D01*
X169997380Y-96210285D02*
X168997380Y-96210285D01*
X168997380Y-95829333D01*
X169045000Y-95734095D01*
X169092619Y-95686476D01*
X169187857Y-95638857D01*
X169330714Y-95638857D01*
X169425952Y-95686476D01*
X169473571Y-95734095D01*
X169521190Y-95829333D01*
X169521190Y-96210285D01*
X169092619Y-95257904D02*
X169045000Y-95210285D01*
X168997380Y-95115047D01*
X168997380Y-94876952D01*
X169045000Y-94781714D01*
X169092619Y-94734095D01*
X169187857Y-94686476D01*
X169283095Y-94686476D01*
X169425952Y-94734095D01*
X169997380Y-95305523D01*
X169997380Y-94686476D01*
X169997380Y-93734095D02*
X169997380Y-94305523D01*
X169997380Y-94019809D02*
X168997380Y-94019809D01*
X169140238Y-94115047D01*
X169235476Y-94210285D01*
X169283095Y-94305523D01*
%TO.C,R20*%
X177617380Y-95638857D02*
X177141190Y-95972190D01*
X177617380Y-96210285D02*
X176617380Y-96210285D01*
X176617380Y-95829333D01*
X176665000Y-95734095D01*
X176712619Y-95686476D01*
X176807857Y-95638857D01*
X176950714Y-95638857D01*
X177045952Y-95686476D01*
X177093571Y-95734095D01*
X177141190Y-95829333D01*
X177141190Y-96210285D01*
X176712619Y-95257904D02*
X176665000Y-95210285D01*
X176617380Y-95115047D01*
X176617380Y-94876952D01*
X176665000Y-94781714D01*
X176712619Y-94734095D01*
X176807857Y-94686476D01*
X176903095Y-94686476D01*
X177045952Y-94734095D01*
X177617380Y-95305523D01*
X177617380Y-94686476D01*
X176617380Y-94067428D02*
X176617380Y-93972190D01*
X176665000Y-93876952D01*
X176712619Y-93829333D01*
X176807857Y-93781714D01*
X176998333Y-93734095D01*
X177236428Y-93734095D01*
X177426904Y-93781714D01*
X177522142Y-93829333D01*
X177569761Y-93876952D01*
X177617380Y-93972190D01*
X177617380Y-94067428D01*
X177569761Y-94162666D01*
X177522142Y-94210285D01*
X177426904Y-94257904D01*
X177236428Y-94305523D01*
X176998333Y-94305523D01*
X176807857Y-94257904D01*
X176712619Y-94210285D01*
X176665000Y-94162666D01*
X176617380Y-94067428D01*
%TO.C,R19*%
X164917380Y-95638857D02*
X164441190Y-95972190D01*
X164917380Y-96210285D02*
X163917380Y-96210285D01*
X163917380Y-95829333D01*
X163965000Y-95734095D01*
X164012619Y-95686476D01*
X164107857Y-95638857D01*
X164250714Y-95638857D01*
X164345952Y-95686476D01*
X164393571Y-95734095D01*
X164441190Y-95829333D01*
X164441190Y-96210285D01*
X164917380Y-94686476D02*
X164917380Y-95257904D01*
X164917380Y-94972190D02*
X163917380Y-94972190D01*
X164060238Y-95067428D01*
X164155476Y-95162666D01*
X164203095Y-95257904D01*
X164917380Y-94210285D02*
X164917380Y-94019809D01*
X164869761Y-93924571D01*
X164822142Y-93876952D01*
X164679285Y-93781714D01*
X164488809Y-93734095D01*
X164107857Y-93734095D01*
X164012619Y-93781714D01*
X163965000Y-93829333D01*
X163917380Y-93924571D01*
X163917380Y-94115047D01*
X163965000Y-94210285D01*
X164012619Y-94257904D01*
X164107857Y-94305523D01*
X164345952Y-94305523D01*
X164441190Y-94257904D01*
X164488809Y-94210285D01*
X164536428Y-94115047D01*
X164536428Y-93924571D01*
X164488809Y-93829333D01*
X164441190Y-93781714D01*
X164345952Y-93734095D01*
%TO.C,R17*%
X159837380Y-95638857D02*
X159361190Y-95972190D01*
X159837380Y-96210285D02*
X158837380Y-96210285D01*
X158837380Y-95829333D01*
X158885000Y-95734095D01*
X158932619Y-95686476D01*
X159027857Y-95638857D01*
X159170714Y-95638857D01*
X159265952Y-95686476D01*
X159313571Y-95734095D01*
X159361190Y-95829333D01*
X159361190Y-96210285D01*
X159837380Y-94686476D02*
X159837380Y-95257904D01*
X159837380Y-94972190D02*
X158837380Y-94972190D01*
X158980238Y-95067428D01*
X159075476Y-95162666D01*
X159123095Y-95257904D01*
X158837380Y-94353142D02*
X158837380Y-93686476D01*
X159837380Y-94115047D01*
%TO.C,R16*%
X154757380Y-95638857D02*
X154281190Y-95972190D01*
X154757380Y-96210285D02*
X153757380Y-96210285D01*
X153757380Y-95829333D01*
X153805000Y-95734095D01*
X153852619Y-95686476D01*
X153947857Y-95638857D01*
X154090714Y-95638857D01*
X154185952Y-95686476D01*
X154233571Y-95734095D01*
X154281190Y-95829333D01*
X154281190Y-96210285D01*
X154757380Y-94686476D02*
X154757380Y-95257904D01*
X154757380Y-94972190D02*
X153757380Y-94972190D01*
X153900238Y-95067428D01*
X153995476Y-95162666D01*
X154043095Y-95257904D01*
X153757380Y-93829333D02*
X153757380Y-94019809D01*
X153805000Y-94115047D01*
X153852619Y-94162666D01*
X153995476Y-94257904D01*
X154185952Y-94305523D01*
X154566904Y-94305523D01*
X154662142Y-94257904D01*
X154709761Y-94210285D01*
X154757380Y-94115047D01*
X154757380Y-93924571D01*
X154709761Y-93829333D01*
X154662142Y-93781714D01*
X154566904Y-93734095D01*
X154328809Y-93734095D01*
X154233571Y-93781714D01*
X154185952Y-93829333D01*
X154138333Y-93924571D01*
X154138333Y-94115047D01*
X154185952Y-94210285D01*
X154233571Y-94257904D01*
X154328809Y-94305523D01*
%TO.C,R14*%
X147137380Y-95638857D02*
X146661190Y-95972190D01*
X147137380Y-96210285D02*
X146137380Y-96210285D01*
X146137380Y-95829333D01*
X146185000Y-95734095D01*
X146232619Y-95686476D01*
X146327857Y-95638857D01*
X146470714Y-95638857D01*
X146565952Y-95686476D01*
X146613571Y-95734095D01*
X146661190Y-95829333D01*
X146661190Y-96210285D01*
X147137380Y-94686476D02*
X147137380Y-95257904D01*
X147137380Y-94972190D02*
X146137380Y-94972190D01*
X146280238Y-95067428D01*
X146375476Y-95162666D01*
X146423095Y-95257904D01*
X146470714Y-93829333D02*
X147137380Y-93829333D01*
X146089761Y-94067428D02*
X146804047Y-94305523D01*
X146804047Y-93686476D01*
%TO.C,R12*%
X136977380Y-95638857D02*
X136501190Y-95972190D01*
X136977380Y-96210285D02*
X135977380Y-96210285D01*
X135977380Y-95829333D01*
X136025000Y-95734095D01*
X136072619Y-95686476D01*
X136167857Y-95638857D01*
X136310714Y-95638857D01*
X136405952Y-95686476D01*
X136453571Y-95734095D01*
X136501190Y-95829333D01*
X136501190Y-96210285D01*
X136977380Y-94686476D02*
X136977380Y-95257904D01*
X136977380Y-94972190D02*
X135977380Y-94972190D01*
X136120238Y-95067428D01*
X136215476Y-95162666D01*
X136263095Y-95257904D01*
X136072619Y-94305523D02*
X136025000Y-94257904D01*
X135977380Y-94162666D01*
X135977380Y-93924571D01*
X136025000Y-93829333D01*
X136072619Y-93781714D01*
X136167857Y-93734095D01*
X136263095Y-93734095D01*
X136405952Y-93781714D01*
X136977380Y-94353142D01*
X136977380Y-93734095D01*
%TO.C,R10*%
X129357380Y-95638857D02*
X128881190Y-95972190D01*
X129357380Y-96210285D02*
X128357380Y-96210285D01*
X128357380Y-95829333D01*
X128405000Y-95734095D01*
X128452619Y-95686476D01*
X128547857Y-95638857D01*
X128690714Y-95638857D01*
X128785952Y-95686476D01*
X128833571Y-95734095D01*
X128881190Y-95829333D01*
X128881190Y-96210285D01*
X129357380Y-94686476D02*
X129357380Y-95257904D01*
X129357380Y-94972190D02*
X128357380Y-94972190D01*
X128500238Y-95067428D01*
X128595476Y-95162666D01*
X128643095Y-95257904D01*
X128357380Y-94067428D02*
X128357380Y-93972190D01*
X128405000Y-93876952D01*
X128452619Y-93829333D01*
X128547857Y-93781714D01*
X128738333Y-93734095D01*
X128976428Y-93734095D01*
X129166904Y-93781714D01*
X129262142Y-93829333D01*
X129309761Y-93876952D01*
X129357380Y-93972190D01*
X129357380Y-94067428D01*
X129309761Y-94162666D01*
X129262142Y-94210285D01*
X129166904Y-94257904D01*
X128976428Y-94305523D01*
X128738333Y-94305523D01*
X128547857Y-94257904D01*
X128452619Y-94210285D01*
X128405000Y-94162666D01*
X128357380Y-94067428D01*
%TO.C,R8*%
X180157380Y-95670666D02*
X179681190Y-96004000D01*
X180157380Y-96242095D02*
X179157380Y-96242095D01*
X179157380Y-95861142D01*
X179205000Y-95765904D01*
X179252619Y-95718285D01*
X179347857Y-95670666D01*
X179490714Y-95670666D01*
X179585952Y-95718285D01*
X179633571Y-95765904D01*
X179681190Y-95861142D01*
X179681190Y-96242095D01*
X179585952Y-95099238D02*
X179538333Y-95194476D01*
X179490714Y-95242095D01*
X179395476Y-95289714D01*
X179347857Y-95289714D01*
X179252619Y-95242095D01*
X179205000Y-95194476D01*
X179157380Y-95099238D01*
X179157380Y-94908761D01*
X179205000Y-94813523D01*
X179252619Y-94765904D01*
X179347857Y-94718285D01*
X179395476Y-94718285D01*
X179490714Y-94765904D01*
X179538333Y-94813523D01*
X179585952Y-94908761D01*
X179585952Y-95099238D01*
X179633571Y-95194476D01*
X179681190Y-95242095D01*
X179776428Y-95289714D01*
X179966904Y-95289714D01*
X180062142Y-95242095D01*
X180109761Y-95194476D01*
X180157380Y-95099238D01*
X180157380Y-94908761D01*
X180109761Y-94813523D01*
X180062142Y-94765904D01*
X179966904Y-94718285D01*
X179776428Y-94718285D01*
X179681190Y-94765904D01*
X179633571Y-94813523D01*
X179585952Y-94908761D01*
%TO.C,R6*%
X167457380Y-95670666D02*
X166981190Y-96004000D01*
X167457380Y-96242095D02*
X166457380Y-96242095D01*
X166457380Y-95861142D01*
X166505000Y-95765904D01*
X166552619Y-95718285D01*
X166647857Y-95670666D01*
X166790714Y-95670666D01*
X166885952Y-95718285D01*
X166933571Y-95765904D01*
X166981190Y-95861142D01*
X166981190Y-96242095D01*
X166457380Y-94813523D02*
X166457380Y-95004000D01*
X166505000Y-95099238D01*
X166552619Y-95146857D01*
X166695476Y-95242095D01*
X166885952Y-95289714D01*
X167266904Y-95289714D01*
X167362142Y-95242095D01*
X167409761Y-95194476D01*
X167457380Y-95099238D01*
X167457380Y-94908761D01*
X167409761Y-94813523D01*
X167362142Y-94765904D01*
X167266904Y-94718285D01*
X167028809Y-94718285D01*
X166933571Y-94765904D01*
X166885952Y-94813523D01*
X166838333Y-94908761D01*
X166838333Y-95099238D01*
X166885952Y-95194476D01*
X166933571Y-95242095D01*
X167028809Y-95289714D01*
%TO.C,R4*%
X149677380Y-95670666D02*
X149201190Y-96004000D01*
X149677380Y-96242095D02*
X148677380Y-96242095D01*
X148677380Y-95861142D01*
X148725000Y-95765904D01*
X148772619Y-95718285D01*
X148867857Y-95670666D01*
X149010714Y-95670666D01*
X149105952Y-95718285D01*
X149153571Y-95765904D01*
X149201190Y-95861142D01*
X149201190Y-96242095D01*
X149010714Y-94813523D02*
X149677380Y-94813523D01*
X148629761Y-95051619D02*
X149344047Y-95289714D01*
X149344047Y-94670666D01*
%TO.C,R2*%
X131897380Y-95670666D02*
X131421190Y-96004000D01*
X131897380Y-96242095D02*
X130897380Y-96242095D01*
X130897380Y-95861142D01*
X130945000Y-95765904D01*
X130992619Y-95718285D01*
X131087857Y-95670666D01*
X131230714Y-95670666D01*
X131325952Y-95718285D01*
X131373571Y-95765904D01*
X131421190Y-95861142D01*
X131421190Y-96242095D01*
X130992619Y-95289714D02*
X130945000Y-95242095D01*
X130897380Y-95146857D01*
X130897380Y-94908761D01*
X130945000Y-94813523D01*
X130992619Y-94765904D01*
X131087857Y-94718285D01*
X131183095Y-94718285D01*
X131325952Y-94765904D01*
X131897380Y-95337333D01*
X131897380Y-94718285D01*
%TO.C,D26*%
X187777380Y-81224285D02*
X186777380Y-81224285D01*
X186777380Y-80986190D01*
X186825000Y-80843333D01*
X186920238Y-80748095D01*
X187015476Y-80700476D01*
X187205952Y-80652857D01*
X187348809Y-80652857D01*
X187539285Y-80700476D01*
X187634523Y-80748095D01*
X187729761Y-80843333D01*
X187777380Y-80986190D01*
X187777380Y-81224285D01*
X186872619Y-80271904D02*
X186825000Y-80224285D01*
X186777380Y-80129047D01*
X186777380Y-79890952D01*
X186825000Y-79795714D01*
X186872619Y-79748095D01*
X186967857Y-79700476D01*
X187063095Y-79700476D01*
X187205952Y-79748095D01*
X187777380Y-80319523D01*
X187777380Y-79700476D01*
X186777380Y-78843333D02*
X186777380Y-79033809D01*
X186825000Y-79129047D01*
X186872619Y-79176666D01*
X187015476Y-79271904D01*
X187205952Y-79319523D01*
X187586904Y-79319523D01*
X187682142Y-79271904D01*
X187729761Y-79224285D01*
X187777380Y-79129047D01*
X187777380Y-78938571D01*
X187729761Y-78843333D01*
X187682142Y-78795714D01*
X187586904Y-78748095D01*
X187348809Y-78748095D01*
X187253571Y-78795714D01*
X187205952Y-78843333D01*
X187158333Y-78938571D01*
X187158333Y-79129047D01*
X187205952Y-79224285D01*
X187253571Y-79271904D01*
X187348809Y-79319523D01*
%TO.C,D24*%
X190317380Y-81224285D02*
X189317380Y-81224285D01*
X189317380Y-80986190D01*
X189365000Y-80843333D01*
X189460238Y-80748095D01*
X189555476Y-80700476D01*
X189745952Y-80652857D01*
X189888809Y-80652857D01*
X190079285Y-80700476D01*
X190174523Y-80748095D01*
X190269761Y-80843333D01*
X190317380Y-80986190D01*
X190317380Y-81224285D01*
X189412619Y-80271904D02*
X189365000Y-80224285D01*
X189317380Y-80129047D01*
X189317380Y-79890952D01*
X189365000Y-79795714D01*
X189412619Y-79748095D01*
X189507857Y-79700476D01*
X189603095Y-79700476D01*
X189745952Y-79748095D01*
X190317380Y-80319523D01*
X190317380Y-79700476D01*
X189650714Y-78843333D02*
X190317380Y-78843333D01*
X189269761Y-79081428D02*
X189984047Y-79319523D01*
X189984047Y-78700476D01*
%TO.C,D23*%
X185237380Y-81224285D02*
X184237380Y-81224285D01*
X184237380Y-80986190D01*
X184285000Y-80843333D01*
X184380238Y-80748095D01*
X184475476Y-80700476D01*
X184665952Y-80652857D01*
X184808809Y-80652857D01*
X184999285Y-80700476D01*
X185094523Y-80748095D01*
X185189761Y-80843333D01*
X185237380Y-80986190D01*
X185237380Y-81224285D01*
X184332619Y-80271904D02*
X184285000Y-80224285D01*
X184237380Y-80129047D01*
X184237380Y-79890952D01*
X184285000Y-79795714D01*
X184332619Y-79748095D01*
X184427857Y-79700476D01*
X184523095Y-79700476D01*
X184665952Y-79748095D01*
X185237380Y-80319523D01*
X185237380Y-79700476D01*
X184237380Y-79367142D02*
X184237380Y-78748095D01*
X184618333Y-79081428D01*
X184618333Y-78938571D01*
X184665952Y-78843333D01*
X184713571Y-78795714D01*
X184808809Y-78748095D01*
X185046904Y-78748095D01*
X185142142Y-78795714D01*
X185189761Y-78843333D01*
X185237380Y-78938571D01*
X185237380Y-79224285D01*
X185189761Y-79319523D01*
X185142142Y-79367142D01*
%TO.C,D21*%
X169997380Y-81224285D02*
X168997380Y-81224285D01*
X168997380Y-80986190D01*
X169045000Y-80843333D01*
X169140238Y-80748095D01*
X169235476Y-80700476D01*
X169425952Y-80652857D01*
X169568809Y-80652857D01*
X169759285Y-80700476D01*
X169854523Y-80748095D01*
X169949761Y-80843333D01*
X169997380Y-80986190D01*
X169997380Y-81224285D01*
X169092619Y-80271904D02*
X169045000Y-80224285D01*
X168997380Y-80129047D01*
X168997380Y-79890952D01*
X169045000Y-79795714D01*
X169092619Y-79748095D01*
X169187857Y-79700476D01*
X169283095Y-79700476D01*
X169425952Y-79748095D01*
X169997380Y-80319523D01*
X169997380Y-79700476D01*
X169997380Y-78748095D02*
X169997380Y-79319523D01*
X169997380Y-79033809D02*
X168997380Y-79033809D01*
X169140238Y-79129047D01*
X169235476Y-79224285D01*
X169283095Y-79319523D01*
%TO.C,D20*%
X177617380Y-81224285D02*
X176617380Y-81224285D01*
X176617380Y-80986190D01*
X176665000Y-80843333D01*
X176760238Y-80748095D01*
X176855476Y-80700476D01*
X177045952Y-80652857D01*
X177188809Y-80652857D01*
X177379285Y-80700476D01*
X177474523Y-80748095D01*
X177569761Y-80843333D01*
X177617380Y-80986190D01*
X177617380Y-81224285D01*
X176712619Y-80271904D02*
X176665000Y-80224285D01*
X176617380Y-80129047D01*
X176617380Y-79890952D01*
X176665000Y-79795714D01*
X176712619Y-79748095D01*
X176807857Y-79700476D01*
X176903095Y-79700476D01*
X177045952Y-79748095D01*
X177617380Y-80319523D01*
X177617380Y-79700476D01*
X176617380Y-79081428D02*
X176617380Y-78986190D01*
X176665000Y-78890952D01*
X176712619Y-78843333D01*
X176807857Y-78795714D01*
X176998333Y-78748095D01*
X177236428Y-78748095D01*
X177426904Y-78795714D01*
X177522142Y-78843333D01*
X177569761Y-78890952D01*
X177617380Y-78986190D01*
X177617380Y-79081428D01*
X177569761Y-79176666D01*
X177522142Y-79224285D01*
X177426904Y-79271904D01*
X177236428Y-79319523D01*
X176998333Y-79319523D01*
X176807857Y-79271904D01*
X176712619Y-79224285D01*
X176665000Y-79176666D01*
X176617380Y-79081428D01*
%TO.C,D19*%
X164917380Y-81224285D02*
X163917380Y-81224285D01*
X163917380Y-80986190D01*
X163965000Y-80843333D01*
X164060238Y-80748095D01*
X164155476Y-80700476D01*
X164345952Y-80652857D01*
X164488809Y-80652857D01*
X164679285Y-80700476D01*
X164774523Y-80748095D01*
X164869761Y-80843333D01*
X164917380Y-80986190D01*
X164917380Y-81224285D01*
X164917380Y-79700476D02*
X164917380Y-80271904D01*
X164917380Y-79986190D02*
X163917380Y-79986190D01*
X164060238Y-80081428D01*
X164155476Y-80176666D01*
X164203095Y-80271904D01*
X164917380Y-79224285D02*
X164917380Y-79033809D01*
X164869761Y-78938571D01*
X164822142Y-78890952D01*
X164679285Y-78795714D01*
X164488809Y-78748095D01*
X164107857Y-78748095D01*
X164012619Y-78795714D01*
X163965000Y-78843333D01*
X163917380Y-78938571D01*
X163917380Y-79129047D01*
X163965000Y-79224285D01*
X164012619Y-79271904D01*
X164107857Y-79319523D01*
X164345952Y-79319523D01*
X164441190Y-79271904D01*
X164488809Y-79224285D01*
X164536428Y-79129047D01*
X164536428Y-78938571D01*
X164488809Y-78843333D01*
X164441190Y-78795714D01*
X164345952Y-78748095D01*
%TO.C,D17*%
X159837380Y-81224285D02*
X158837380Y-81224285D01*
X158837380Y-80986190D01*
X158885000Y-80843333D01*
X158980238Y-80748095D01*
X159075476Y-80700476D01*
X159265952Y-80652857D01*
X159408809Y-80652857D01*
X159599285Y-80700476D01*
X159694523Y-80748095D01*
X159789761Y-80843333D01*
X159837380Y-80986190D01*
X159837380Y-81224285D01*
X159837380Y-79700476D02*
X159837380Y-80271904D01*
X159837380Y-79986190D02*
X158837380Y-79986190D01*
X158980238Y-80081428D01*
X159075476Y-80176666D01*
X159123095Y-80271904D01*
X158837380Y-79367142D02*
X158837380Y-78700476D01*
X159837380Y-79129047D01*
%TO.C,D16*%
X154503380Y-81224285D02*
X153503380Y-81224285D01*
X153503380Y-80986190D01*
X153551000Y-80843333D01*
X153646238Y-80748095D01*
X153741476Y-80700476D01*
X153931952Y-80652857D01*
X154074809Y-80652857D01*
X154265285Y-80700476D01*
X154360523Y-80748095D01*
X154455761Y-80843333D01*
X154503380Y-80986190D01*
X154503380Y-81224285D01*
X154503380Y-79700476D02*
X154503380Y-80271904D01*
X154503380Y-79986190D02*
X153503380Y-79986190D01*
X153646238Y-80081428D01*
X153741476Y-80176666D01*
X153789095Y-80271904D01*
X153503380Y-78843333D02*
X153503380Y-79033809D01*
X153551000Y-79129047D01*
X153598619Y-79176666D01*
X153741476Y-79271904D01*
X153931952Y-79319523D01*
X154312904Y-79319523D01*
X154408142Y-79271904D01*
X154455761Y-79224285D01*
X154503380Y-79129047D01*
X154503380Y-78938571D01*
X154455761Y-78843333D01*
X154408142Y-78795714D01*
X154312904Y-78748095D01*
X154074809Y-78748095D01*
X153979571Y-78795714D01*
X153931952Y-78843333D01*
X153884333Y-78938571D01*
X153884333Y-79129047D01*
X153931952Y-79224285D01*
X153979571Y-79271904D01*
X154074809Y-79319523D01*
%TO.C,D14*%
X147137380Y-81224285D02*
X146137380Y-81224285D01*
X146137380Y-80986190D01*
X146185000Y-80843333D01*
X146280238Y-80748095D01*
X146375476Y-80700476D01*
X146565952Y-80652857D01*
X146708809Y-80652857D01*
X146899285Y-80700476D01*
X146994523Y-80748095D01*
X147089761Y-80843333D01*
X147137380Y-80986190D01*
X147137380Y-81224285D01*
X147137380Y-79700476D02*
X147137380Y-80271904D01*
X147137380Y-79986190D02*
X146137380Y-79986190D01*
X146280238Y-80081428D01*
X146375476Y-80176666D01*
X146423095Y-80271904D01*
X146470714Y-78843333D02*
X147137380Y-78843333D01*
X146089761Y-79081428D02*
X146804047Y-79319523D01*
X146804047Y-78700476D01*
%TO.C,D12*%
X136977380Y-81224285D02*
X135977380Y-81224285D01*
X135977380Y-80986190D01*
X136025000Y-80843333D01*
X136120238Y-80748095D01*
X136215476Y-80700476D01*
X136405952Y-80652857D01*
X136548809Y-80652857D01*
X136739285Y-80700476D01*
X136834523Y-80748095D01*
X136929761Y-80843333D01*
X136977380Y-80986190D01*
X136977380Y-81224285D01*
X136977380Y-79700476D02*
X136977380Y-80271904D01*
X136977380Y-79986190D02*
X135977380Y-79986190D01*
X136120238Y-80081428D01*
X136215476Y-80176666D01*
X136263095Y-80271904D01*
X136072619Y-79319523D02*
X136025000Y-79271904D01*
X135977380Y-79176666D01*
X135977380Y-78938571D01*
X136025000Y-78843333D01*
X136072619Y-78795714D01*
X136167857Y-78748095D01*
X136263095Y-78748095D01*
X136405952Y-78795714D01*
X136977380Y-79367142D01*
X136977380Y-78748095D01*
%TO.C,D10*%
X129357380Y-81224285D02*
X128357380Y-81224285D01*
X128357380Y-80986190D01*
X128405000Y-80843333D01*
X128500238Y-80748095D01*
X128595476Y-80700476D01*
X128785952Y-80652857D01*
X128928809Y-80652857D01*
X129119285Y-80700476D01*
X129214523Y-80748095D01*
X129309761Y-80843333D01*
X129357380Y-80986190D01*
X129357380Y-81224285D01*
X129357380Y-79700476D02*
X129357380Y-80271904D01*
X129357380Y-79986190D02*
X128357380Y-79986190D01*
X128500238Y-80081428D01*
X128595476Y-80176666D01*
X128643095Y-80271904D01*
X128357380Y-79081428D02*
X128357380Y-78986190D01*
X128405000Y-78890952D01*
X128452619Y-78843333D01*
X128547857Y-78795714D01*
X128738333Y-78748095D01*
X128976428Y-78748095D01*
X129166904Y-78795714D01*
X129262142Y-78843333D01*
X129309761Y-78890952D01*
X129357380Y-78986190D01*
X129357380Y-79081428D01*
X129309761Y-79176666D01*
X129262142Y-79224285D01*
X129166904Y-79271904D01*
X128976428Y-79319523D01*
X128738333Y-79319523D01*
X128547857Y-79271904D01*
X128452619Y-79224285D01*
X128405000Y-79176666D01*
X128357380Y-79081428D01*
%TO.C,D8*%
X180157380Y-81256095D02*
X179157380Y-81256095D01*
X179157380Y-81018000D01*
X179205000Y-80875142D01*
X179300238Y-80779904D01*
X179395476Y-80732285D01*
X179585952Y-80684666D01*
X179728809Y-80684666D01*
X179919285Y-80732285D01*
X180014523Y-80779904D01*
X180109761Y-80875142D01*
X180157380Y-81018000D01*
X180157380Y-81256095D01*
X179585952Y-80113238D02*
X179538333Y-80208476D01*
X179490714Y-80256095D01*
X179395476Y-80303714D01*
X179347857Y-80303714D01*
X179252619Y-80256095D01*
X179205000Y-80208476D01*
X179157380Y-80113238D01*
X179157380Y-79922761D01*
X179205000Y-79827523D01*
X179252619Y-79779904D01*
X179347857Y-79732285D01*
X179395476Y-79732285D01*
X179490714Y-79779904D01*
X179538333Y-79827523D01*
X179585952Y-79922761D01*
X179585952Y-80113238D01*
X179633571Y-80208476D01*
X179681190Y-80256095D01*
X179776428Y-80303714D01*
X179966904Y-80303714D01*
X180062142Y-80256095D01*
X180109761Y-80208476D01*
X180157380Y-80113238D01*
X180157380Y-79922761D01*
X180109761Y-79827523D01*
X180062142Y-79779904D01*
X179966904Y-79732285D01*
X179776428Y-79732285D01*
X179681190Y-79779904D01*
X179633571Y-79827523D01*
X179585952Y-79922761D01*
%TO.C,D6*%
X167457380Y-81256095D02*
X166457380Y-81256095D01*
X166457380Y-81018000D01*
X166505000Y-80875142D01*
X166600238Y-80779904D01*
X166695476Y-80732285D01*
X166885952Y-80684666D01*
X167028809Y-80684666D01*
X167219285Y-80732285D01*
X167314523Y-80779904D01*
X167409761Y-80875142D01*
X167457380Y-81018000D01*
X167457380Y-81256095D01*
X166457380Y-79827523D02*
X166457380Y-80018000D01*
X166505000Y-80113238D01*
X166552619Y-80160857D01*
X166695476Y-80256095D01*
X166885952Y-80303714D01*
X167266904Y-80303714D01*
X167362142Y-80256095D01*
X167409761Y-80208476D01*
X167457380Y-80113238D01*
X167457380Y-79922761D01*
X167409761Y-79827523D01*
X167362142Y-79779904D01*
X167266904Y-79732285D01*
X167028809Y-79732285D01*
X166933571Y-79779904D01*
X166885952Y-79827523D01*
X166838333Y-79922761D01*
X166838333Y-80113238D01*
X166885952Y-80208476D01*
X166933571Y-80256095D01*
X167028809Y-80303714D01*
%TO.C,D4*%
X149677380Y-81256095D02*
X148677380Y-81256095D01*
X148677380Y-81018000D01*
X148725000Y-80875142D01*
X148820238Y-80779904D01*
X148915476Y-80732285D01*
X149105952Y-80684666D01*
X149248809Y-80684666D01*
X149439285Y-80732285D01*
X149534523Y-80779904D01*
X149629761Y-80875142D01*
X149677380Y-81018000D01*
X149677380Y-81256095D01*
X149010714Y-79827523D02*
X149677380Y-79827523D01*
X148629761Y-80065619D02*
X149344047Y-80303714D01*
X149344047Y-79684666D01*
%TO.C,D2*%
X131897380Y-81256095D02*
X130897380Y-81256095D01*
X130897380Y-81018000D01*
X130945000Y-80875142D01*
X131040238Y-80779904D01*
X131135476Y-80732285D01*
X131325952Y-80684666D01*
X131468809Y-80684666D01*
X131659285Y-80732285D01*
X131754523Y-80779904D01*
X131849761Y-80875142D01*
X131897380Y-81018000D01*
X131897380Y-81256095D01*
X130992619Y-80303714D02*
X130945000Y-80256095D01*
X130897380Y-80160857D01*
X130897380Y-79922761D01*
X130945000Y-79827523D01*
X130992619Y-79779904D01*
X131087857Y-79732285D01*
X131183095Y-79732285D01*
X131325952Y-79779904D01*
X131897380Y-80351333D01*
X131897380Y-79732285D01*
%TO.C,R25*%
X182697380Y-95638857D02*
X182221190Y-95972190D01*
X182697380Y-96210285D02*
X181697380Y-96210285D01*
X181697380Y-95829333D01*
X181745000Y-95734095D01*
X181792619Y-95686476D01*
X181887857Y-95638857D01*
X182030714Y-95638857D01*
X182125952Y-95686476D01*
X182173571Y-95734095D01*
X182221190Y-95829333D01*
X182221190Y-96210285D01*
X181792619Y-95257904D02*
X181745000Y-95210285D01*
X181697380Y-95115047D01*
X181697380Y-94876952D01*
X181745000Y-94781714D01*
X181792619Y-94734095D01*
X181887857Y-94686476D01*
X181983095Y-94686476D01*
X182125952Y-94734095D01*
X182697380Y-95305523D01*
X182697380Y-94686476D01*
X181697380Y-93781714D02*
X181697380Y-94257904D01*
X182173571Y-94305523D01*
X182125952Y-94257904D01*
X182078333Y-94162666D01*
X182078333Y-93924571D01*
X182125952Y-93829333D01*
X182173571Y-93781714D01*
X182268809Y-93734095D01*
X182506904Y-93734095D01*
X182602142Y-93781714D01*
X182649761Y-93829333D01*
X182697380Y-93924571D01*
X182697380Y-94162666D01*
X182649761Y-94257904D01*
X182602142Y-94305523D01*
%TO.C,R22*%
X121737380Y-95638857D02*
X121261190Y-95972190D01*
X121737380Y-96210285D02*
X120737380Y-96210285D01*
X120737380Y-95829333D01*
X120785000Y-95734095D01*
X120832619Y-95686476D01*
X120927857Y-95638857D01*
X121070714Y-95638857D01*
X121165952Y-95686476D01*
X121213571Y-95734095D01*
X121261190Y-95829333D01*
X121261190Y-96210285D01*
X120832619Y-95257904D02*
X120785000Y-95210285D01*
X120737380Y-95115047D01*
X120737380Y-94876952D01*
X120785000Y-94781714D01*
X120832619Y-94734095D01*
X120927857Y-94686476D01*
X121023095Y-94686476D01*
X121165952Y-94734095D01*
X121737380Y-95305523D01*
X121737380Y-94686476D01*
X120832619Y-94305523D02*
X120785000Y-94257904D01*
X120737380Y-94162666D01*
X120737380Y-93924571D01*
X120785000Y-93829333D01*
X120832619Y-93781714D01*
X120927857Y-93734095D01*
X121023095Y-93734095D01*
X121165952Y-93781714D01*
X121737380Y-94353142D01*
X121737380Y-93734095D01*
%TO.C,R18*%
X162377380Y-95638857D02*
X161901190Y-95972190D01*
X162377380Y-96210285D02*
X161377380Y-96210285D01*
X161377380Y-95829333D01*
X161425000Y-95734095D01*
X161472619Y-95686476D01*
X161567857Y-95638857D01*
X161710714Y-95638857D01*
X161805952Y-95686476D01*
X161853571Y-95734095D01*
X161901190Y-95829333D01*
X161901190Y-96210285D01*
X162377380Y-94686476D02*
X162377380Y-95257904D01*
X162377380Y-94972190D02*
X161377380Y-94972190D01*
X161520238Y-95067428D01*
X161615476Y-95162666D01*
X161663095Y-95257904D01*
X161805952Y-94115047D02*
X161758333Y-94210285D01*
X161710714Y-94257904D01*
X161615476Y-94305523D01*
X161567857Y-94305523D01*
X161472619Y-94257904D01*
X161425000Y-94210285D01*
X161377380Y-94115047D01*
X161377380Y-93924571D01*
X161425000Y-93829333D01*
X161472619Y-93781714D01*
X161567857Y-93734095D01*
X161615476Y-93734095D01*
X161710714Y-93781714D01*
X161758333Y-93829333D01*
X161805952Y-93924571D01*
X161805952Y-94115047D01*
X161853571Y-94210285D01*
X161901190Y-94257904D01*
X161996428Y-94305523D01*
X162186904Y-94305523D01*
X162282142Y-94257904D01*
X162329761Y-94210285D01*
X162377380Y-94115047D01*
X162377380Y-93924571D01*
X162329761Y-93829333D01*
X162282142Y-93781714D01*
X162186904Y-93734095D01*
X161996428Y-93734095D01*
X161901190Y-93781714D01*
X161853571Y-93829333D01*
X161805952Y-93924571D01*
%TO.C,R15*%
X152344380Y-95638857D02*
X151868190Y-95972190D01*
X152344380Y-96210285D02*
X151344380Y-96210285D01*
X151344380Y-95829333D01*
X151392000Y-95734095D01*
X151439619Y-95686476D01*
X151534857Y-95638857D01*
X151677714Y-95638857D01*
X151772952Y-95686476D01*
X151820571Y-95734095D01*
X151868190Y-95829333D01*
X151868190Y-96210285D01*
X152344380Y-94686476D02*
X152344380Y-95257904D01*
X152344380Y-94972190D02*
X151344380Y-94972190D01*
X151487238Y-95067428D01*
X151582476Y-95162666D01*
X151630095Y-95257904D01*
X151344380Y-93781714D02*
X151344380Y-94257904D01*
X151820571Y-94305523D01*
X151772952Y-94257904D01*
X151725333Y-94162666D01*
X151725333Y-93924571D01*
X151772952Y-93829333D01*
X151820571Y-93781714D01*
X151915809Y-93734095D01*
X152153904Y-93734095D01*
X152249142Y-93781714D01*
X152296761Y-93829333D01*
X152344380Y-93924571D01*
X152344380Y-94162666D01*
X152296761Y-94257904D01*
X152249142Y-94305523D01*
%TO.C,R13*%
X144597380Y-95638857D02*
X144121190Y-95972190D01*
X144597380Y-96210285D02*
X143597380Y-96210285D01*
X143597380Y-95829333D01*
X143645000Y-95734095D01*
X143692619Y-95686476D01*
X143787857Y-95638857D01*
X143930714Y-95638857D01*
X144025952Y-95686476D01*
X144073571Y-95734095D01*
X144121190Y-95829333D01*
X144121190Y-96210285D01*
X144597380Y-94686476D02*
X144597380Y-95257904D01*
X144597380Y-94972190D02*
X143597380Y-94972190D01*
X143740238Y-95067428D01*
X143835476Y-95162666D01*
X143883095Y-95257904D01*
X143597380Y-94353142D02*
X143597380Y-93734095D01*
X143978333Y-94067428D01*
X143978333Y-93924571D01*
X144025952Y-93829333D01*
X144073571Y-93781714D01*
X144168809Y-93734095D01*
X144406904Y-93734095D01*
X144502142Y-93781714D01*
X144549761Y-93829333D01*
X144597380Y-93924571D01*
X144597380Y-94210285D01*
X144549761Y-94305523D01*
X144502142Y-94353142D01*
%TO.C,R11*%
X134437380Y-95638857D02*
X133961190Y-95972190D01*
X134437380Y-96210285D02*
X133437380Y-96210285D01*
X133437380Y-95829333D01*
X133485000Y-95734095D01*
X133532619Y-95686476D01*
X133627857Y-95638857D01*
X133770714Y-95638857D01*
X133865952Y-95686476D01*
X133913571Y-95734095D01*
X133961190Y-95829333D01*
X133961190Y-96210285D01*
X134437380Y-94686476D02*
X134437380Y-95257904D01*
X134437380Y-94972190D02*
X133437380Y-94972190D01*
X133580238Y-95067428D01*
X133675476Y-95162666D01*
X133723095Y-95257904D01*
X134437380Y-93734095D02*
X134437380Y-94305523D01*
X134437380Y-94019809D02*
X133437380Y-94019809D01*
X133580238Y-94115047D01*
X133675476Y-94210285D01*
X133723095Y-94305523D01*
%TO.C,R9*%
X126817380Y-95670666D02*
X126341190Y-96004000D01*
X126817380Y-96242095D02*
X125817380Y-96242095D01*
X125817380Y-95861142D01*
X125865000Y-95765904D01*
X125912619Y-95718285D01*
X126007857Y-95670666D01*
X126150714Y-95670666D01*
X126245952Y-95718285D01*
X126293571Y-95765904D01*
X126341190Y-95861142D01*
X126341190Y-96242095D01*
X126817380Y-95194476D02*
X126817380Y-95004000D01*
X126769761Y-94908761D01*
X126722142Y-94861142D01*
X126579285Y-94765904D01*
X126388809Y-94718285D01*
X126007857Y-94718285D01*
X125912619Y-94765904D01*
X125865000Y-94813523D01*
X125817380Y-94908761D01*
X125817380Y-95099238D01*
X125865000Y-95194476D01*
X125912619Y-95242095D01*
X126007857Y-95289714D01*
X126245952Y-95289714D01*
X126341190Y-95242095D01*
X126388809Y-95194476D01*
X126436428Y-95099238D01*
X126436428Y-94908761D01*
X126388809Y-94813523D01*
X126341190Y-94765904D01*
X126245952Y-94718285D01*
%TO.C,R7*%
X175204380Y-95670666D02*
X174728190Y-96004000D01*
X175204380Y-96242095D02*
X174204380Y-96242095D01*
X174204380Y-95861142D01*
X174252000Y-95765904D01*
X174299619Y-95718285D01*
X174394857Y-95670666D01*
X174537714Y-95670666D01*
X174632952Y-95718285D01*
X174680571Y-95765904D01*
X174728190Y-95861142D01*
X174728190Y-96242095D01*
X174204380Y-95337333D02*
X174204380Y-94670666D01*
X175204380Y-95099238D01*
%TO.C,R5*%
X157297380Y-95670666D02*
X156821190Y-96004000D01*
X157297380Y-96242095D02*
X156297380Y-96242095D01*
X156297380Y-95861142D01*
X156345000Y-95765904D01*
X156392619Y-95718285D01*
X156487857Y-95670666D01*
X156630714Y-95670666D01*
X156725952Y-95718285D01*
X156773571Y-95765904D01*
X156821190Y-95861142D01*
X156821190Y-96242095D01*
X156297380Y-94765904D02*
X156297380Y-95242095D01*
X156773571Y-95289714D01*
X156725952Y-95242095D01*
X156678333Y-95146857D01*
X156678333Y-94908761D01*
X156725952Y-94813523D01*
X156773571Y-94765904D01*
X156868809Y-94718285D01*
X157106904Y-94718285D01*
X157202142Y-94765904D01*
X157249761Y-94813523D01*
X157297380Y-94908761D01*
X157297380Y-95146857D01*
X157249761Y-95242095D01*
X157202142Y-95289714D01*
%TO.C,R3*%
X142057380Y-95670666D02*
X141581190Y-96004000D01*
X142057380Y-96242095D02*
X141057380Y-96242095D01*
X141057380Y-95861142D01*
X141105000Y-95765904D01*
X141152619Y-95718285D01*
X141247857Y-95670666D01*
X141390714Y-95670666D01*
X141485952Y-95718285D01*
X141533571Y-95765904D01*
X141581190Y-95861142D01*
X141581190Y-96242095D01*
X141057380Y-95337333D02*
X141057380Y-94718285D01*
X141438333Y-95051619D01*
X141438333Y-94908761D01*
X141485952Y-94813523D01*
X141533571Y-94765904D01*
X141628809Y-94718285D01*
X141866904Y-94718285D01*
X141962142Y-94765904D01*
X142009761Y-94813523D01*
X142057380Y-94908761D01*
X142057380Y-95194476D01*
X142009761Y-95289714D01*
X141962142Y-95337333D01*
%TO.C,R1*%
X124277380Y-95670666D02*
X123801190Y-96004000D01*
X124277380Y-96242095D02*
X123277380Y-96242095D01*
X123277380Y-95861142D01*
X123325000Y-95765904D01*
X123372619Y-95718285D01*
X123467857Y-95670666D01*
X123610714Y-95670666D01*
X123705952Y-95718285D01*
X123753571Y-95765904D01*
X123801190Y-95861142D01*
X123801190Y-96242095D01*
X124277380Y-94718285D02*
X124277380Y-95289714D01*
X124277380Y-95004000D02*
X123277380Y-95004000D01*
X123420238Y-95099238D01*
X123515476Y-95194476D01*
X123563095Y-95289714D01*
%TO.C,D25*%
X182824380Y-81224285D02*
X181824380Y-81224285D01*
X181824380Y-80986190D01*
X181872000Y-80843333D01*
X181967238Y-80748095D01*
X182062476Y-80700476D01*
X182252952Y-80652857D01*
X182395809Y-80652857D01*
X182586285Y-80700476D01*
X182681523Y-80748095D01*
X182776761Y-80843333D01*
X182824380Y-80986190D01*
X182824380Y-81224285D01*
X181919619Y-80271904D02*
X181872000Y-80224285D01*
X181824380Y-80129047D01*
X181824380Y-79890952D01*
X181872000Y-79795714D01*
X181919619Y-79748095D01*
X182014857Y-79700476D01*
X182110095Y-79700476D01*
X182252952Y-79748095D01*
X182824380Y-80319523D01*
X182824380Y-79700476D01*
X181824380Y-78795714D02*
X181824380Y-79271904D01*
X182300571Y-79319523D01*
X182252952Y-79271904D01*
X182205333Y-79176666D01*
X182205333Y-78938571D01*
X182252952Y-78843333D01*
X182300571Y-78795714D01*
X182395809Y-78748095D01*
X182633904Y-78748095D01*
X182729142Y-78795714D01*
X182776761Y-78843333D01*
X182824380Y-78938571D01*
X182824380Y-79176666D01*
X182776761Y-79271904D01*
X182729142Y-79319523D01*
%TO.C,D22*%
X121737380Y-81224285D02*
X120737380Y-81224285D01*
X120737380Y-80986190D01*
X120785000Y-80843333D01*
X120880238Y-80748095D01*
X120975476Y-80700476D01*
X121165952Y-80652857D01*
X121308809Y-80652857D01*
X121499285Y-80700476D01*
X121594523Y-80748095D01*
X121689761Y-80843333D01*
X121737380Y-80986190D01*
X121737380Y-81224285D01*
X120832619Y-80271904D02*
X120785000Y-80224285D01*
X120737380Y-80129047D01*
X120737380Y-79890952D01*
X120785000Y-79795714D01*
X120832619Y-79748095D01*
X120927857Y-79700476D01*
X121023095Y-79700476D01*
X121165952Y-79748095D01*
X121737380Y-80319523D01*
X121737380Y-79700476D01*
X120832619Y-79319523D02*
X120785000Y-79271904D01*
X120737380Y-79176666D01*
X120737380Y-78938571D01*
X120785000Y-78843333D01*
X120832619Y-78795714D01*
X120927857Y-78748095D01*
X121023095Y-78748095D01*
X121165952Y-78795714D01*
X121737380Y-79367142D01*
X121737380Y-78748095D01*
%TO.C,D18*%
X162377380Y-81224285D02*
X161377380Y-81224285D01*
X161377380Y-80986190D01*
X161425000Y-80843333D01*
X161520238Y-80748095D01*
X161615476Y-80700476D01*
X161805952Y-80652857D01*
X161948809Y-80652857D01*
X162139285Y-80700476D01*
X162234523Y-80748095D01*
X162329761Y-80843333D01*
X162377380Y-80986190D01*
X162377380Y-81224285D01*
X162377380Y-79700476D02*
X162377380Y-80271904D01*
X162377380Y-79986190D02*
X161377380Y-79986190D01*
X161520238Y-80081428D01*
X161615476Y-80176666D01*
X161663095Y-80271904D01*
X161805952Y-79129047D02*
X161758333Y-79224285D01*
X161710714Y-79271904D01*
X161615476Y-79319523D01*
X161567857Y-79319523D01*
X161472619Y-79271904D01*
X161425000Y-79224285D01*
X161377380Y-79129047D01*
X161377380Y-78938571D01*
X161425000Y-78843333D01*
X161472619Y-78795714D01*
X161567857Y-78748095D01*
X161615476Y-78748095D01*
X161710714Y-78795714D01*
X161758333Y-78843333D01*
X161805952Y-78938571D01*
X161805952Y-79129047D01*
X161853571Y-79224285D01*
X161901190Y-79271904D01*
X161996428Y-79319523D01*
X162186904Y-79319523D01*
X162282142Y-79271904D01*
X162329761Y-79224285D01*
X162377380Y-79129047D01*
X162377380Y-78938571D01*
X162329761Y-78843333D01*
X162282142Y-78795714D01*
X162186904Y-78748095D01*
X161996428Y-78748095D01*
X161901190Y-78795714D01*
X161853571Y-78843333D01*
X161805952Y-78938571D01*
%TO.C,D15*%
X152217380Y-81224285D02*
X151217380Y-81224285D01*
X151217380Y-80986190D01*
X151265000Y-80843333D01*
X151360238Y-80748095D01*
X151455476Y-80700476D01*
X151645952Y-80652857D01*
X151788809Y-80652857D01*
X151979285Y-80700476D01*
X152074523Y-80748095D01*
X152169761Y-80843333D01*
X152217380Y-80986190D01*
X152217380Y-81224285D01*
X152217380Y-79700476D02*
X152217380Y-80271904D01*
X152217380Y-79986190D02*
X151217380Y-79986190D01*
X151360238Y-80081428D01*
X151455476Y-80176666D01*
X151503095Y-80271904D01*
X151217380Y-78795714D02*
X151217380Y-79271904D01*
X151693571Y-79319523D01*
X151645952Y-79271904D01*
X151598333Y-79176666D01*
X151598333Y-78938571D01*
X151645952Y-78843333D01*
X151693571Y-78795714D01*
X151788809Y-78748095D01*
X152026904Y-78748095D01*
X152122142Y-78795714D01*
X152169761Y-78843333D01*
X152217380Y-78938571D01*
X152217380Y-79176666D01*
X152169761Y-79271904D01*
X152122142Y-79319523D01*
%TO.C,D13*%
X144597380Y-81224285D02*
X143597380Y-81224285D01*
X143597380Y-80986190D01*
X143645000Y-80843333D01*
X143740238Y-80748095D01*
X143835476Y-80700476D01*
X144025952Y-80652857D01*
X144168809Y-80652857D01*
X144359285Y-80700476D01*
X144454523Y-80748095D01*
X144549761Y-80843333D01*
X144597380Y-80986190D01*
X144597380Y-81224285D01*
X144597380Y-79700476D02*
X144597380Y-80271904D01*
X144597380Y-79986190D02*
X143597380Y-79986190D01*
X143740238Y-80081428D01*
X143835476Y-80176666D01*
X143883095Y-80271904D01*
X143597380Y-79367142D02*
X143597380Y-78748095D01*
X143978333Y-79081428D01*
X143978333Y-78938571D01*
X144025952Y-78843333D01*
X144073571Y-78795714D01*
X144168809Y-78748095D01*
X144406904Y-78748095D01*
X144502142Y-78795714D01*
X144549761Y-78843333D01*
X144597380Y-78938571D01*
X144597380Y-79224285D01*
X144549761Y-79319523D01*
X144502142Y-79367142D01*
%TO.C,D11*%
X134437380Y-81224285D02*
X133437380Y-81224285D01*
X133437380Y-80986190D01*
X133485000Y-80843333D01*
X133580238Y-80748095D01*
X133675476Y-80700476D01*
X133865952Y-80652857D01*
X134008809Y-80652857D01*
X134199285Y-80700476D01*
X134294523Y-80748095D01*
X134389761Y-80843333D01*
X134437380Y-80986190D01*
X134437380Y-81224285D01*
X134437380Y-79700476D02*
X134437380Y-80271904D01*
X134437380Y-79986190D02*
X133437380Y-79986190D01*
X133580238Y-80081428D01*
X133675476Y-80176666D01*
X133723095Y-80271904D01*
X134437380Y-78748095D02*
X134437380Y-79319523D01*
X134437380Y-79033809D02*
X133437380Y-79033809D01*
X133580238Y-79129047D01*
X133675476Y-79224285D01*
X133723095Y-79319523D01*
%TO.C,D9*%
X126817380Y-81256095D02*
X125817380Y-81256095D01*
X125817380Y-81018000D01*
X125865000Y-80875142D01*
X125960238Y-80779904D01*
X126055476Y-80732285D01*
X126245952Y-80684666D01*
X126388809Y-80684666D01*
X126579285Y-80732285D01*
X126674523Y-80779904D01*
X126769761Y-80875142D01*
X126817380Y-81018000D01*
X126817380Y-81256095D01*
X126817380Y-80208476D02*
X126817380Y-80018000D01*
X126769761Y-79922761D01*
X126722142Y-79875142D01*
X126579285Y-79779904D01*
X126388809Y-79732285D01*
X126007857Y-79732285D01*
X125912619Y-79779904D01*
X125865000Y-79827523D01*
X125817380Y-79922761D01*
X125817380Y-80113238D01*
X125865000Y-80208476D01*
X125912619Y-80256095D01*
X126007857Y-80303714D01*
X126245952Y-80303714D01*
X126341190Y-80256095D01*
X126388809Y-80208476D01*
X126436428Y-80113238D01*
X126436428Y-79922761D01*
X126388809Y-79827523D01*
X126341190Y-79779904D01*
X126245952Y-79732285D01*
%TO.C,D7*%
X175204380Y-81256095D02*
X174204380Y-81256095D01*
X174204380Y-81018000D01*
X174252000Y-80875142D01*
X174347238Y-80779904D01*
X174442476Y-80732285D01*
X174632952Y-80684666D01*
X174775809Y-80684666D01*
X174966285Y-80732285D01*
X175061523Y-80779904D01*
X175156761Y-80875142D01*
X175204380Y-81018000D01*
X175204380Y-81256095D01*
X174204380Y-80351333D02*
X174204380Y-79684666D01*
X175204380Y-80113238D01*
%TO.C,D5*%
X157170380Y-81256095D02*
X156170380Y-81256095D01*
X156170380Y-81018000D01*
X156218000Y-80875142D01*
X156313238Y-80779904D01*
X156408476Y-80732285D01*
X156598952Y-80684666D01*
X156741809Y-80684666D01*
X156932285Y-80732285D01*
X157027523Y-80779904D01*
X157122761Y-80875142D01*
X157170380Y-81018000D01*
X157170380Y-81256095D01*
X156170380Y-79779904D02*
X156170380Y-80256095D01*
X156646571Y-80303714D01*
X156598952Y-80256095D01*
X156551333Y-80160857D01*
X156551333Y-79922761D01*
X156598952Y-79827523D01*
X156646571Y-79779904D01*
X156741809Y-79732285D01*
X156979904Y-79732285D01*
X157075142Y-79779904D01*
X157122761Y-79827523D01*
X157170380Y-79922761D01*
X157170380Y-80160857D01*
X157122761Y-80256095D01*
X157075142Y-80303714D01*
%TO.C,D3*%
X142057380Y-81256095D02*
X141057380Y-81256095D01*
X141057380Y-81018000D01*
X141105000Y-80875142D01*
X141200238Y-80779904D01*
X141295476Y-80732285D01*
X141485952Y-80684666D01*
X141628809Y-80684666D01*
X141819285Y-80732285D01*
X141914523Y-80779904D01*
X142009761Y-80875142D01*
X142057380Y-81018000D01*
X142057380Y-81256095D01*
X141057380Y-80351333D02*
X141057380Y-79732285D01*
X141438333Y-80065619D01*
X141438333Y-79922761D01*
X141485952Y-79827523D01*
X141533571Y-79779904D01*
X141628809Y-79732285D01*
X141866904Y-79732285D01*
X141962142Y-79779904D01*
X142009761Y-79827523D01*
X142057380Y-79922761D01*
X142057380Y-80208476D01*
X142009761Y-80303714D01*
X141962142Y-80351333D01*
%TO.C,D1*%
X124277380Y-81256095D02*
X123277380Y-81256095D01*
X123277380Y-81018000D01*
X123325000Y-80875142D01*
X123420238Y-80779904D01*
X123515476Y-80732285D01*
X123705952Y-80684666D01*
X123848809Y-80684666D01*
X124039285Y-80732285D01*
X124134523Y-80779904D01*
X124229761Y-80875142D01*
X124277380Y-81018000D01*
X124277380Y-81256095D01*
X124277380Y-79732285D02*
X124277380Y-80303714D01*
X124277380Y-80018000D02*
X123277380Y-80018000D01*
X123420238Y-80113238D01*
X123515476Y-80208476D01*
X123563095Y-80303714D01*
%TO.C,C2*%
X197080142Y-106846666D02*
X197127761Y-106894285D01*
X197175380Y-107037142D01*
X197175380Y-107132380D01*
X197127761Y-107275238D01*
X197032523Y-107370476D01*
X196937285Y-107418095D01*
X196746809Y-107465714D01*
X196603952Y-107465714D01*
X196413476Y-107418095D01*
X196318238Y-107370476D01*
X196223000Y-107275238D01*
X196175380Y-107132380D01*
X196175380Y-107037142D01*
X196223000Y-106894285D01*
X196270619Y-106846666D01*
X196270619Y-106465714D02*
X196223000Y-106418095D01*
X196175380Y-106322857D01*
X196175380Y-106084761D01*
X196223000Y-105989523D01*
X196270619Y-105941904D01*
X196365857Y-105894285D01*
X196461095Y-105894285D01*
X196603952Y-105941904D01*
X197175380Y-106513333D01*
X197175380Y-105894285D01*
%TO.C,C1*%
X114657142Y-107100666D02*
X114704761Y-107148285D01*
X114752380Y-107291142D01*
X114752380Y-107386380D01*
X114704761Y-107529238D01*
X114609523Y-107624476D01*
X114514285Y-107672095D01*
X114323809Y-107719714D01*
X114180952Y-107719714D01*
X113990476Y-107672095D01*
X113895238Y-107624476D01*
X113800000Y-107529238D01*
X113752380Y-107386380D01*
X113752380Y-107291142D01*
X113800000Y-107148285D01*
X113847619Y-107100666D01*
X114752380Y-106148285D02*
X114752380Y-106719714D01*
X114752380Y-106434000D02*
X113752380Y-106434000D01*
X113895238Y-106529238D01*
X113990476Y-106624476D01*
X114038095Y-106719714D01*
%TO.C,J3*%
X107591266Y-86561680D02*
X107591266Y-87275966D01*
X107543647Y-87418823D01*
X107448409Y-87514061D01*
X107305552Y-87561680D01*
X107210314Y-87561680D01*
X107972219Y-86561680D02*
X108591266Y-86561680D01*
X108257933Y-86942633D01*
X108400790Y-86942633D01*
X108496028Y-86990252D01*
X108543647Y-87037871D01*
X108591266Y-87133109D01*
X108591266Y-87371204D01*
X108543647Y-87466442D01*
X108496028Y-87514061D01*
X108400790Y-87561680D01*
X108115076Y-87561680D01*
X108019838Y-87514061D01*
X107972219Y-87466442D01*
%TO.C,J2*%
X114347666Y-102322380D02*
X114347666Y-103036666D01*
X114300047Y-103179523D01*
X114204809Y-103274761D01*
X114061952Y-103322380D01*
X113966714Y-103322380D01*
X114776238Y-102417619D02*
X114823857Y-102370000D01*
X114919095Y-102322380D01*
X115157190Y-102322380D01*
X115252428Y-102370000D01*
X115300047Y-102417619D01*
X115347666Y-102512857D01*
X115347666Y-102608095D01*
X115300047Y-102750952D01*
X114728619Y-103322380D01*
X115347666Y-103322380D01*
%TO.C,J1*%
X102536666Y-97242380D02*
X102536666Y-97956666D01*
X102489047Y-98099523D01*
X102393809Y-98194761D01*
X102250952Y-98242380D01*
X102155714Y-98242380D01*
X103536666Y-98242380D02*
X102965238Y-98242380D01*
X103250952Y-98242380D02*
X103250952Y-97242380D01*
X103155714Y-97385238D01*
X103060476Y-97480476D01*
X102965238Y-97528095D01*
%TD*%
M02*
