%TF.GenerationSoftware,KiCad,Pcbnew,(5.1.9)-1*%
%TF.CreationDate,2021-01-16T23:23:18+11:00*%
%TF.ProjectId,megatosimm,6d656761-746f-4736-996d-6d2e6b696361,rev?*%
%TF.SameCoordinates,Original*%
%TF.FileFunction,Soldermask,Bot*%
%TF.FilePolarity,Negative*%
%FSLAX46Y46*%
G04 Gerber Fmt 4.6, Leading zero omitted, Abs format (unit mm)*
G04 Created by KiCad (PCBNEW (5.1.9)-1) date 2021-01-16 23:23:18*
%MOMM*%
%LPD*%
G01*
G04 APERTURE LIST*
%ADD10O,1.727200X1.727200*%
%ADD11C,3.200000*%
%ADD12R,1.200000X1.200000*%
%ADD13C,1.200000*%
%ADD14R,1.700000X1.700000*%
%ADD15O,1.700000X1.700000*%
%ADD16R,1.397000X1.397000*%
%ADD17C,1.397000*%
%ADD18C,3.048000*%
G04 APERTURE END LIST*
D10*
%TO.C,U1*%
X212725000Y-119380000D03*
X210185000Y-119380000D03*
X212725000Y-116840000D03*
X210185000Y-116840000D03*
X212725000Y-114300000D03*
X210185000Y-114300000D03*
X212725000Y-111760000D03*
X210185000Y-111760000D03*
X212725000Y-109220000D03*
X210185000Y-109220000D03*
X212725000Y-106680000D03*
X210185000Y-106680000D03*
X212725000Y-104140000D03*
X210185000Y-104140000D03*
X212725000Y-101600000D03*
X210185000Y-101600000D03*
X212725000Y-99060000D03*
X210185000Y-99060000D03*
X212725000Y-96520000D03*
X210185000Y-96520000D03*
X212725000Y-93980000D03*
X210185000Y-93980000D03*
X212725000Y-91440000D03*
X210185000Y-91440000D03*
X212725000Y-88900000D03*
X210185000Y-88900000D03*
X212725000Y-86360000D03*
X210185000Y-86360000D03*
X212725000Y-83820000D03*
X210185000Y-83820000D03*
X212725000Y-81280000D03*
X210185000Y-81280000D03*
X212725000Y-78740000D03*
X210185000Y-78740000D03*
X212725000Y-76200000D03*
X210185000Y-76200000D03*
X207645000Y-124460000D03*
X205105000Y-124460000D03*
X202565000Y-124460000D03*
X200025000Y-124460000D03*
X197485000Y-124460000D03*
X194945000Y-124460000D03*
X192405000Y-124460000D03*
X189865000Y-124460000D03*
X184785000Y-124460000D03*
X182245000Y-124460000D03*
X179705000Y-124460000D03*
X177165000Y-124460000D03*
X174625000Y-124460000D03*
X172085000Y-124460000D03*
X169545000Y-124460000D03*
X144145000Y-124460000D03*
X150241000Y-76200000D03*
X147701000Y-76200000D03*
X145161000Y-76200000D03*
X140081000Y-76200000D03*
X137541000Y-76200000D03*
X135001000Y-76200000D03*
D11*
X130175000Y-124460000D03*
X212725000Y-124460000D03*
X131445000Y-76200000D03*
X206375000Y-76200000D03*
D10*
X152781000Y-76200000D03*
X155321000Y-76200000D03*
X157861000Y-76200000D03*
X142621000Y-76200000D03*
X161925000Y-76200000D03*
X164465000Y-76200000D03*
X167005000Y-76200000D03*
X169545000Y-76200000D03*
X172085000Y-76200000D03*
X174625000Y-76200000D03*
X177165000Y-76200000D03*
X179705000Y-76200000D03*
X184785000Y-76200000D03*
X187325000Y-76200000D03*
X189865000Y-76200000D03*
X192405000Y-76200000D03*
X194945000Y-76200000D03*
X197485000Y-76200000D03*
X200025000Y-76200000D03*
X202565000Y-76200000D03*
X146685000Y-124460000D03*
X149225000Y-124460000D03*
X151765000Y-124460000D03*
X154305000Y-124460000D03*
X156845000Y-124460000D03*
X159385000Y-124460000D03*
X161925000Y-124460000D03*
X167005000Y-124460000D03*
%TD*%
D12*
%TO.C,C2*%
X192405000Y-106680000D03*
D13*
X194405000Y-106680000D03*
%TD*%
D12*
%TO.C,C1*%
X118745000Y-106807000D03*
D13*
X116745000Y-106807000D03*
%TD*%
D14*
%TO.C,J3*%
X107950000Y-84455000D03*
D15*
X107950000Y-81915000D03*
X107950000Y-79375000D03*
X107950000Y-76835000D03*
%TD*%
D14*
%TO.C,J2*%
X118745000Y-102870000D03*
D15*
X121285000Y-102870000D03*
X123825000Y-102870000D03*
X126365000Y-102870000D03*
X128905000Y-102870000D03*
X131445000Y-102870000D03*
X133985000Y-102870000D03*
X136525000Y-102870000D03*
X139065000Y-102870000D03*
X141605000Y-102870000D03*
X144145000Y-102870000D03*
X146685000Y-102870000D03*
X149225000Y-102870000D03*
X151765000Y-102870000D03*
X154305000Y-102870000D03*
X156845000Y-102870000D03*
X159385000Y-102870000D03*
X161925000Y-102870000D03*
X164465000Y-102870000D03*
X167005000Y-102870000D03*
X169545000Y-102870000D03*
X172085000Y-102870000D03*
X174625000Y-102870000D03*
X177165000Y-102870000D03*
X179705000Y-102870000D03*
X182245000Y-102870000D03*
X184785000Y-102870000D03*
X187325000Y-102870000D03*
X189865000Y-102870000D03*
X192405000Y-102870000D03*
%TD*%
D16*
%TO.C,J1*%
X118745000Y-100330000D03*
D17*
X121285000Y-100330000D03*
X123825000Y-100330000D03*
X126365000Y-100330000D03*
X128905000Y-100330000D03*
X131445000Y-100330000D03*
X133985000Y-100330000D03*
X136525000Y-100330000D03*
X139065000Y-100330000D03*
X141605000Y-100330000D03*
X144145000Y-100330000D03*
X146685000Y-100330000D03*
X149225000Y-100330000D03*
X151765000Y-100330000D03*
X154305000Y-100330000D03*
X156845000Y-100330000D03*
X159385000Y-100330000D03*
X161925000Y-100330000D03*
X164465000Y-100330000D03*
X167005000Y-100330000D03*
X169545000Y-100330000D03*
X172085000Y-100330000D03*
X174625000Y-100330000D03*
X177165000Y-100330000D03*
X179705000Y-100330000D03*
X182245000Y-100330000D03*
X184785000Y-100330000D03*
X187325000Y-100330000D03*
X189865000Y-100330000D03*
X192405000Y-100330000D03*
D18*
X202565000Y-100330000D03*
X108585000Y-100330000D03*
%TD*%
M02*
