%TF.GenerationSoftware,KiCad,Pcbnew,(5.1.9)-1*%
%TF.CreationDate,2021-01-16T23:23:18+11:00*%
%TF.ProjectId,megatosimm,6d656761-746f-4736-996d-6d2e6b696361,rev?*%
%TF.SameCoordinates,Original*%
%TF.FileFunction,Paste,Top*%
%TF.FilePolarity,Positive*%
%FSLAX46Y46*%
G04 Gerber Fmt 4.6, Leading zero omitted, Abs format (unit mm)*
G04 Created by KiCad (PCBNEW (5.1.9)-1) date 2021-01-16 23:23:18*
%MOMM*%
%LPD*%
G01*
G04 APERTURE LIST*
%ADD10R,1.300000X1.500000*%
G04 APERTURE END LIST*
D10*
%TO.C,R26*%
X187325000Y-92663000D03*
X187325000Y-89963000D03*
%TD*%
%TO.C,R24*%
X189865000Y-92663000D03*
X189865000Y-89963000D03*
%TD*%
%TO.C,R23*%
X184785000Y-92663000D03*
X184785000Y-89963000D03*
%TD*%
%TO.C,R21*%
X169545000Y-92663000D03*
X169545000Y-89963000D03*
%TD*%
%TO.C,R20*%
X177165000Y-92663000D03*
X177165000Y-89963000D03*
%TD*%
%TO.C,R19*%
X164465000Y-92663000D03*
X164465000Y-89963000D03*
%TD*%
%TO.C,R17*%
X159385000Y-92663000D03*
X159385000Y-89963000D03*
%TD*%
%TO.C,R16*%
X154178000Y-92663000D03*
X154178000Y-89963000D03*
%TD*%
%TO.C,R14*%
X146685000Y-92663000D03*
X146685000Y-89963000D03*
%TD*%
%TO.C,R12*%
X136525000Y-92663000D03*
X136525000Y-89963000D03*
%TD*%
%TO.C,R10*%
X128905000Y-92663000D03*
X128905000Y-89963000D03*
%TD*%
%TO.C,R8*%
X179705000Y-92663000D03*
X179705000Y-89963000D03*
%TD*%
%TO.C,R6*%
X167005000Y-92663000D03*
X167005000Y-89963000D03*
%TD*%
%TO.C,R4*%
X149225000Y-92663000D03*
X149225000Y-89963000D03*
%TD*%
%TO.C,R2*%
X131445000Y-92663000D03*
X131445000Y-89963000D03*
%TD*%
%TO.C,D26*%
X187325000Y-82470000D03*
X187325000Y-85170000D03*
%TD*%
%TO.C,D24*%
X189865000Y-82470000D03*
X189865000Y-85170000D03*
%TD*%
%TO.C,D23*%
X184785000Y-82470000D03*
X184785000Y-85170000D03*
%TD*%
%TO.C,D21*%
X169545000Y-82470000D03*
X169545000Y-85170000D03*
%TD*%
%TO.C,D20*%
X177165000Y-82470000D03*
X177165000Y-85170000D03*
%TD*%
%TO.C,D19*%
X164465000Y-82470000D03*
X164465000Y-85170000D03*
%TD*%
%TO.C,D17*%
X159385000Y-82470000D03*
X159385000Y-85170000D03*
%TD*%
%TO.C,D16*%
X154178000Y-82470000D03*
X154178000Y-85170000D03*
%TD*%
%TO.C,D14*%
X146685000Y-82470000D03*
X146685000Y-85170000D03*
%TD*%
%TO.C,D12*%
X136525000Y-82470000D03*
X136525000Y-85170000D03*
%TD*%
%TO.C,D10*%
X128905000Y-82470000D03*
X128905000Y-85170000D03*
%TD*%
%TO.C,D8*%
X179705000Y-82470000D03*
X179705000Y-85170000D03*
%TD*%
%TO.C,D6*%
X167005000Y-82470000D03*
X167005000Y-85170000D03*
%TD*%
%TO.C,D4*%
X149225000Y-82470000D03*
X149225000Y-85170000D03*
%TD*%
%TO.C,D2*%
X131445000Y-82470000D03*
X131445000Y-85170000D03*
%TD*%
%TO.C,R25*%
X182245000Y-92663000D03*
X182245000Y-89963000D03*
%TD*%
%TO.C,R22*%
X121285000Y-92663000D03*
X121285000Y-89963000D03*
%TD*%
%TO.C,R18*%
X161925000Y-92663000D03*
X161925000Y-89963000D03*
%TD*%
%TO.C,R15*%
X151765000Y-92663000D03*
X151765000Y-89963000D03*
%TD*%
%TO.C,R13*%
X144145000Y-92663000D03*
X144145000Y-89963000D03*
%TD*%
%TO.C,R11*%
X133985000Y-92663000D03*
X133985000Y-89963000D03*
%TD*%
%TO.C,R9*%
X126365000Y-92663000D03*
X126365000Y-89963000D03*
%TD*%
%TO.C,R7*%
X174625000Y-92663000D03*
X174625000Y-89963000D03*
%TD*%
%TO.C,R5*%
X156718000Y-92663000D03*
X156718000Y-89963000D03*
%TD*%
%TO.C,R3*%
X141605000Y-92663000D03*
X141605000Y-89963000D03*
%TD*%
%TO.C,R1*%
X123825000Y-92663000D03*
X123825000Y-89963000D03*
%TD*%
%TO.C,D25*%
X182245000Y-82470000D03*
X182245000Y-85170000D03*
%TD*%
%TO.C,D22*%
X121285000Y-82517000D03*
X121285000Y-85217000D03*
%TD*%
%TO.C,D18*%
X161925000Y-82470000D03*
X161925000Y-85170000D03*
%TD*%
%TO.C,D15*%
X151765000Y-82470000D03*
X151765000Y-85170000D03*
%TD*%
%TO.C,D13*%
X144145000Y-82470000D03*
X144145000Y-85170000D03*
%TD*%
%TO.C,D11*%
X133985000Y-82470000D03*
X133985000Y-85170000D03*
%TD*%
%TO.C,D9*%
X126365000Y-82470000D03*
X126365000Y-85170000D03*
%TD*%
%TO.C,D7*%
X174625000Y-82470000D03*
X174625000Y-85170000D03*
%TD*%
%TO.C,D5*%
X156718000Y-82470000D03*
X156718000Y-85170000D03*
%TD*%
%TO.C,D3*%
X141605000Y-82470000D03*
X141605000Y-85170000D03*
%TD*%
%TO.C,D1*%
X123825000Y-82470000D03*
X123825000Y-85170000D03*
%TD*%
M02*
