%TF.GenerationSoftware,KiCad,Pcbnew,(5.1.9)-1*%
%TF.CreationDate,2021-01-16T23:23:18+11:00*%
%TF.ProjectId,megatosimm,6d656761-746f-4736-996d-6d2e6b696361,rev?*%
%TF.SameCoordinates,Original*%
%TF.FileFunction,Copper,L1,Top*%
%TF.FilePolarity,Positive*%
%FSLAX46Y46*%
G04 Gerber Fmt 4.6, Leading zero omitted, Abs format (unit mm)*
G04 Created by KiCad (PCBNEW (5.1.9)-1) date 2021-01-16 23:23:18*
%MOMM*%
%LPD*%
G01*
G04 APERTURE LIST*
%TA.AperFunction,SMDPad,CuDef*%
%ADD10R,1.300000X1.500000*%
%TD*%
%TA.AperFunction,ComponentPad*%
%ADD11O,1.727200X1.727200*%
%TD*%
%TA.AperFunction,ComponentPad*%
%ADD12R,1.200000X1.200000*%
%TD*%
%TA.AperFunction,ComponentPad*%
%ADD13C,1.200000*%
%TD*%
%TA.AperFunction,ComponentPad*%
%ADD14R,1.700000X1.700000*%
%TD*%
%TA.AperFunction,ComponentPad*%
%ADD15O,1.700000X1.700000*%
%TD*%
%TA.AperFunction,ComponentPad*%
%ADD16R,1.397000X1.397000*%
%TD*%
%TA.AperFunction,ComponentPad*%
%ADD17C,1.397000*%
%TD*%
%TA.AperFunction,ComponentPad*%
%ADD18C,3.048000*%
%TD*%
%TA.AperFunction,ViaPad*%
%ADD19C,0.800000*%
%TD*%
%TA.AperFunction,Conductor*%
%ADD20C,0.500000*%
%TD*%
%TA.AperFunction,Conductor*%
%ADD21C,1.000000*%
%TD*%
%TA.AperFunction,Conductor*%
%ADD22C,0.250000*%
%TD*%
%TA.AperFunction,Conductor*%
%ADD23C,0.254000*%
%TD*%
%TA.AperFunction,Conductor*%
%ADD24C,0.100000*%
%TD*%
G04 APERTURE END LIST*
D10*
%TO.P,R26,1*%
%TO.N,CASP*%
X187325000Y-92663000D03*
%TO.P,R26,2*%
%TO.N,Net-(D26-Pad2)*%
X187325000Y-89963000D03*
%TD*%
%TO.P,R24,1*%
%TO.N,DP*%
X189865000Y-92663000D03*
%TO.P,R24,2*%
%TO.N,Net-(D24-Pad2)*%
X189865000Y-89963000D03*
%TD*%
%TO.P,R23,1*%
%TO.N,RAS*%
X184785000Y-92663000D03*
%TO.P,R23,2*%
%TO.N,Net-(D23-Pad2)*%
X184785000Y-89963000D03*
%TD*%
%TO.P,R21,1*%
%TO.N,WE*%
X169545000Y-92663000D03*
%TO.P,R21,2*%
%TO.N,Net-(D21-Pad2)*%
X169545000Y-89963000D03*
%TD*%
%TO.P,R20,1*%
%TO.N,A11*%
X177165000Y-92663000D03*
%TO.P,R20,2*%
%TO.N,Net-(D20-Pad2)*%
X177165000Y-89963000D03*
%TD*%
%TO.P,R19,1*%
%TO.N,A10*%
X164465000Y-92663000D03*
%TO.P,R19,2*%
%TO.N,Net-(D19-Pad2)*%
X164465000Y-89963000D03*
%TD*%
%TO.P,R17,1*%
%TO.N,A8*%
X159385000Y-92663000D03*
%TO.P,R17,2*%
%TO.N,Net-(D17-Pad2)*%
X159385000Y-89963000D03*
%TD*%
%TO.P,R16,1*%
%TO.N,A7*%
X154178000Y-92663000D03*
%TO.P,R16,2*%
%TO.N,Net-(D16-Pad2)*%
X154178000Y-89963000D03*
%TD*%
%TO.P,R14,1*%
%TO.N,A5*%
X146685000Y-92663000D03*
%TO.P,R14,2*%
%TO.N,Net-(D14-Pad2)*%
X146685000Y-89963000D03*
%TD*%
%TO.P,R12,1*%
%TO.N,A3*%
X136525000Y-92663000D03*
%TO.P,R12,2*%
%TO.N,Net-(D12-Pad2)*%
X136525000Y-89963000D03*
%TD*%
%TO.P,R10,1*%
%TO.N,A1*%
X128905000Y-92663000D03*
%TO.P,R10,2*%
%TO.N,Net-(D10-Pad2)*%
X128905000Y-89963000D03*
%TD*%
%TO.P,R8,1*%
%TO.N,DQ7*%
X179705000Y-92663000D03*
%TO.P,R8,2*%
%TO.N,Net-(D8-Pad2)*%
X179705000Y-89963000D03*
%TD*%
%TO.P,R6,1*%
%TO.N,DQ5*%
X167005000Y-92663000D03*
%TO.P,R6,2*%
%TO.N,Net-(D6-Pad2)*%
X167005000Y-89963000D03*
%TD*%
%TO.P,R4,1*%
%TO.N,DQ3*%
X149225000Y-92663000D03*
%TO.P,R4,2*%
%TO.N,Net-(D4-Pad2)*%
X149225000Y-89963000D03*
%TD*%
%TO.P,R2,1*%
%TO.N,DQ1*%
X131445000Y-92663000D03*
%TO.P,R2,2*%
%TO.N,Net-(D2-Pad2)*%
X131445000Y-89963000D03*
%TD*%
%TO.P,D26,1*%
%TO.N,GND*%
X187325000Y-82470000D03*
%TO.P,D26,2*%
%TO.N,Net-(D26-Pad2)*%
X187325000Y-85170000D03*
%TD*%
%TO.P,D24,1*%
%TO.N,GND*%
X189865000Y-82470000D03*
%TO.P,D24,2*%
%TO.N,Net-(D24-Pad2)*%
X189865000Y-85170000D03*
%TD*%
%TO.P,D23,1*%
%TO.N,GND*%
X184785000Y-82470000D03*
%TO.P,D23,2*%
%TO.N,Net-(D23-Pad2)*%
X184785000Y-85170000D03*
%TD*%
%TO.P,D21,1*%
%TO.N,GND*%
X169545000Y-82470000D03*
%TO.P,D21,2*%
%TO.N,Net-(D21-Pad2)*%
X169545000Y-85170000D03*
%TD*%
%TO.P,D20,1*%
%TO.N,GND*%
X177165000Y-82470000D03*
%TO.P,D20,2*%
%TO.N,Net-(D20-Pad2)*%
X177165000Y-85170000D03*
%TD*%
%TO.P,D19,1*%
%TO.N,GND*%
X164465000Y-82470000D03*
%TO.P,D19,2*%
%TO.N,Net-(D19-Pad2)*%
X164465000Y-85170000D03*
%TD*%
%TO.P,D17,1*%
%TO.N,GND*%
X159385000Y-82470000D03*
%TO.P,D17,2*%
%TO.N,Net-(D17-Pad2)*%
X159385000Y-85170000D03*
%TD*%
%TO.P,D16,1*%
%TO.N,GND*%
X154178000Y-82470000D03*
%TO.P,D16,2*%
%TO.N,Net-(D16-Pad2)*%
X154178000Y-85170000D03*
%TD*%
%TO.P,D14,1*%
%TO.N,GND*%
X146685000Y-82470000D03*
%TO.P,D14,2*%
%TO.N,Net-(D14-Pad2)*%
X146685000Y-85170000D03*
%TD*%
%TO.P,D12,1*%
%TO.N,GND*%
X136525000Y-82470000D03*
%TO.P,D12,2*%
%TO.N,Net-(D12-Pad2)*%
X136525000Y-85170000D03*
%TD*%
%TO.P,D10,1*%
%TO.N,GND*%
X128905000Y-82470000D03*
%TO.P,D10,2*%
%TO.N,Net-(D10-Pad2)*%
X128905000Y-85170000D03*
%TD*%
%TO.P,D8,1*%
%TO.N,GND*%
X179705000Y-82470000D03*
%TO.P,D8,2*%
%TO.N,Net-(D8-Pad2)*%
X179705000Y-85170000D03*
%TD*%
%TO.P,D6,1*%
%TO.N,GND*%
X167005000Y-82470000D03*
%TO.P,D6,2*%
%TO.N,Net-(D6-Pad2)*%
X167005000Y-85170000D03*
%TD*%
%TO.P,D4,1*%
%TO.N,GND*%
X149225000Y-82470000D03*
%TO.P,D4,2*%
%TO.N,Net-(D4-Pad2)*%
X149225000Y-85170000D03*
%TD*%
%TO.P,D2,1*%
%TO.N,GND*%
X131445000Y-82470000D03*
%TO.P,D2,2*%
%TO.N,Net-(D2-Pad2)*%
X131445000Y-85170000D03*
%TD*%
%TO.P,R25,1*%
%TO.N,QP*%
X182245000Y-92663000D03*
%TO.P,R25,2*%
%TO.N,Net-(D25-Pad2)*%
X182245000Y-89963000D03*
%TD*%
%TO.P,R22,1*%
%TO.N,CAS*%
X121285000Y-92663000D03*
%TO.P,R22,2*%
%TO.N,Net-(D22-Pad2)*%
X121285000Y-89963000D03*
%TD*%
%TO.P,R18,1*%
%TO.N,A9*%
X161925000Y-92663000D03*
%TO.P,R18,2*%
%TO.N,Net-(D18-Pad2)*%
X161925000Y-89963000D03*
%TD*%
%TO.P,R15,1*%
%TO.N,A6*%
X151765000Y-92663000D03*
%TO.P,R15,2*%
%TO.N,Net-(D15-Pad2)*%
X151765000Y-89963000D03*
%TD*%
%TO.P,R13,1*%
%TO.N,A4*%
X144145000Y-92663000D03*
%TO.P,R13,2*%
%TO.N,Net-(D13-Pad2)*%
X144145000Y-89963000D03*
%TD*%
%TO.P,R11,1*%
%TO.N,A2*%
X133985000Y-92663000D03*
%TO.P,R11,2*%
%TO.N,Net-(D11-Pad2)*%
X133985000Y-89963000D03*
%TD*%
%TO.P,R9,1*%
%TO.N,A0*%
X126365000Y-92663000D03*
%TO.P,R9,2*%
%TO.N,Net-(D9-Pad2)*%
X126365000Y-89963000D03*
%TD*%
%TO.P,R7,1*%
%TO.N,DQ6*%
X174625000Y-92663000D03*
%TO.P,R7,2*%
%TO.N,Net-(D7-Pad2)*%
X174625000Y-89963000D03*
%TD*%
%TO.P,R5,1*%
%TO.N,DQ4*%
X156718000Y-92663000D03*
%TO.P,R5,2*%
%TO.N,Net-(D5-Pad2)*%
X156718000Y-89963000D03*
%TD*%
%TO.P,R3,1*%
%TO.N,DQ2*%
X141605000Y-92663000D03*
%TO.P,R3,2*%
%TO.N,Net-(D3-Pad2)*%
X141605000Y-89963000D03*
%TD*%
%TO.P,R1,1*%
%TO.N,DQ0*%
X123825000Y-92663000D03*
%TO.P,R1,2*%
%TO.N,Net-(D1-Pad2)*%
X123825000Y-89963000D03*
%TD*%
%TO.P,D25,1*%
%TO.N,GND*%
X182245000Y-82470000D03*
%TO.P,D25,2*%
%TO.N,Net-(D25-Pad2)*%
X182245000Y-85170000D03*
%TD*%
%TO.P,D22,1*%
%TO.N,GND*%
X121285000Y-82517000D03*
%TO.P,D22,2*%
%TO.N,Net-(D22-Pad2)*%
X121285000Y-85217000D03*
%TD*%
%TO.P,D18,1*%
%TO.N,GND*%
X161925000Y-82470000D03*
%TO.P,D18,2*%
%TO.N,Net-(D18-Pad2)*%
X161925000Y-85170000D03*
%TD*%
%TO.P,D15,1*%
%TO.N,GND*%
X151765000Y-82470000D03*
%TO.P,D15,2*%
%TO.N,Net-(D15-Pad2)*%
X151765000Y-85170000D03*
%TD*%
%TO.P,D13,1*%
%TO.N,GND*%
X144145000Y-82470000D03*
%TO.P,D13,2*%
%TO.N,Net-(D13-Pad2)*%
X144145000Y-85170000D03*
%TD*%
%TO.P,D11,1*%
%TO.N,GND*%
X133985000Y-82470000D03*
%TO.P,D11,2*%
%TO.N,Net-(D11-Pad2)*%
X133985000Y-85170000D03*
%TD*%
%TO.P,D9,1*%
%TO.N,GND*%
X126365000Y-82470000D03*
%TO.P,D9,2*%
%TO.N,Net-(D9-Pad2)*%
X126365000Y-85170000D03*
%TD*%
%TO.P,D7,1*%
%TO.N,GND*%
X174625000Y-82470000D03*
%TO.P,D7,2*%
%TO.N,Net-(D7-Pad2)*%
X174625000Y-85170000D03*
%TD*%
%TO.P,D5,1*%
%TO.N,GND*%
X156718000Y-82470000D03*
%TO.P,D5,2*%
%TO.N,Net-(D5-Pad2)*%
X156718000Y-85170000D03*
%TD*%
%TO.P,D3,1*%
%TO.N,GND*%
X141605000Y-82470000D03*
%TO.P,D3,2*%
%TO.N,Net-(D3-Pad2)*%
X141605000Y-85170000D03*
%TD*%
%TO.P,D1,1*%
%TO.N,GND*%
X123825000Y-82470000D03*
%TO.P,D1,2*%
%TO.N,Net-(D1-Pad2)*%
X123825000Y-85170000D03*
%TD*%
D11*
%TO.P,U1,GND6*%
%TO.N,GND*%
X212725000Y-119380000D03*
%TO.P,U1,GND5*%
X210185000Y-119380000D03*
%TO.P,U1,D53*%
%TO.N,Net-(U1-PadD53)*%
X212725000Y-116840000D03*
%TO.P,U1,D52*%
%TO.N,Net-(U1-PadD52)*%
X210185000Y-116840000D03*
%TO.P,U1,D51*%
%TO.N,Net-(U1-PadD51)*%
X212725000Y-114300000D03*
%TO.P,U1,D50*%
%TO.N,Net-(U1-PadD50)*%
X210185000Y-114300000D03*
%TO.P,U1,D49*%
%TO.N,Net-(U1-PadD49)*%
X212725000Y-111760000D03*
%TO.P,U1,D48*%
%TO.N,Net-(U1-PadD48)*%
X210185000Y-111760000D03*
%TO.P,U1,D47*%
%TO.N,A10*%
X212725000Y-109220000D03*
%TO.P,U1,D46*%
%TO.N,DQ5*%
X210185000Y-109220000D03*
%TO.P,U1,D45*%
%TO.N,WE*%
X212725000Y-106680000D03*
%TO.P,U1,D44*%
%TO.N,DQ6*%
X210185000Y-106680000D03*
%TO.P,U1,D43*%
%TO.N,A11*%
X212725000Y-104140000D03*
%TO.P,U1,D42*%
%TO.N,DQ7*%
X210185000Y-104140000D03*
%TO.P,U1,D41*%
%TO.N,QP*%
X212725000Y-101600000D03*
%TO.P,U1,D40*%
%TO.N,RAS*%
X210185000Y-101600000D03*
%TO.P,U1,D39*%
%TO.N,CASP*%
X212725000Y-99060000D03*
%TO.P,U1,D38*%
%TO.N,DP*%
X210185000Y-99060000D03*
%TO.P,U1,D37*%
%TO.N,A9*%
X212725000Y-96520000D03*
%TO.P,U1,D36*%
%TO.N,A8*%
X210185000Y-96520000D03*
%TO.P,U1,D35*%
%TO.N,DQ4*%
X212725000Y-93980000D03*
%TO.P,U1,D34*%
%TO.N,A7*%
X210185000Y-93980000D03*
%TO.P,U1,D33*%
%TO.N,A6*%
X212725000Y-91440000D03*
%TO.P,U1,D32*%
%TO.N,DQ3*%
X210185000Y-91440000D03*
%TO.P,U1,D31*%
%TO.N,A5*%
X212725000Y-88900000D03*
%TO.P,U1,D30*%
%TO.N,A4*%
X210185000Y-88900000D03*
%TO.P,U1,D29*%
%TO.N,DQ2*%
X212725000Y-86360000D03*
%TO.P,U1,D28*%
%TO.N,A3*%
X210185000Y-86360000D03*
%TO.P,U1,D27*%
%TO.N,A2*%
X212725000Y-83820000D03*
%TO.P,U1,D26*%
%TO.N,DQ1*%
X210185000Y-83820000D03*
%TO.P,U1,D25*%
%TO.N,A1*%
X212725000Y-81280000D03*
%TO.P,U1,D24*%
%TO.N,A0*%
X210185000Y-81280000D03*
%TO.P,U1,D23*%
%TO.N,DQ0*%
X212725000Y-78740000D03*
%TO.P,U1,D22*%
%TO.N,CAS*%
X210185000Y-78740000D03*
%TO.P,U1,5V4*%
%TO.N,VCC*%
X212725000Y-76200000D03*
%TO.P,U1,5V3*%
X210185000Y-76200000D03*
%TO.P,U1,CANT*%
%TO.N,Net-(U1-PadCANT)*%
X207645000Y-124460000D03*
%TO.P,U1,CANR*%
%TO.N,Net-(U1-PadCANR)*%
X205105000Y-124460000D03*
%TO.P,U1,DAC1*%
%TO.N,Net-(U1-PadDAC1)*%
X202565000Y-124460000D03*
%TO.P,U1,DAC0*%
%TO.N,Net-(U1-PadDAC0)*%
X200025000Y-124460000D03*
%TO.P,U1,A11*%
%TO.N,Net-(U1-PadA11)*%
X197485000Y-124460000D03*
%TO.P,U1,A10*%
%TO.N,Net-(U1-PadA10)*%
X194945000Y-124460000D03*
%TO.P,U1,A9*%
%TO.N,Net-(U1-PadA9)*%
X192405000Y-124460000D03*
%TO.P,U1,A8*%
%TO.N,Net-(U1-PadA8)*%
X189865000Y-124460000D03*
%TO.P,U1,A7*%
%TO.N,Net-(U1-PadA7)*%
X184785000Y-124460000D03*
%TO.P,U1,A6*%
%TO.N,Net-(U1-PadA6)*%
X182245000Y-124460000D03*
%TO.P,U1,A5*%
%TO.N,Net-(U1-PadA5)*%
X179705000Y-124460000D03*
%TO.P,U1,A4*%
%TO.N,Net-(U1-PadA4)*%
X177165000Y-124460000D03*
%TO.P,U1,A3*%
%TO.N,Net-(U1-PadA3)*%
X174625000Y-124460000D03*
%TO.P,U1,A2*%
%TO.N,Net-(U1-PadA2)*%
X172085000Y-124460000D03*
%TO.P,U1,A1*%
%TO.N,Net-(U1-PadA1)*%
X169545000Y-124460000D03*
%TO.P,U1,*%
%TO.N,*%
X144145000Y-124460000D03*
%TO.P,U1,D11*%
%TO.N,Net-(U1-PadD11)*%
X150241000Y-76200000D03*
%TO.P,U1,D12*%
%TO.N,Net-(U1-PadD12)*%
X147701000Y-76200000D03*
%TO.P,U1,D13*%
%TO.N,Net-(U1-PadD13)*%
X145161000Y-76200000D03*
%TO.P,U1,AREF*%
%TO.N,Net-(U1-PadAREF)*%
X140081000Y-76200000D03*
%TO.P,U1,SDA1*%
%TO.N,SDA1*%
X137541000Y-76200000D03*
%TO.P,U1,SCL1*%
%TO.N,SCL1*%
X135001000Y-76200000D03*
%TO.P,U1,D10*%
%TO.N,Net-(U1-PadD10)*%
X152781000Y-76200000D03*
%TO.P,U1,D9*%
%TO.N,Net-(U1-PadD9)*%
X155321000Y-76200000D03*
%TO.P,U1,D8*%
%TO.N,Net-(U1-PadD8)*%
X157861000Y-76200000D03*
%TO.P,U1,GND1*%
%TO.N,GND*%
X142621000Y-76200000D03*
%TO.P,U1,D7*%
%TO.N,Net-(U1-PadD7)*%
X161925000Y-76200000D03*
%TO.P,U1,D6*%
%TO.N,Net-(U1-PadD6)*%
X164465000Y-76200000D03*
%TO.P,U1,D5*%
%TO.N,Net-(U1-PadD5)*%
X167005000Y-76200000D03*
%TO.P,U1,D4*%
%TO.N,Net-(U1-PadD4)*%
X169545000Y-76200000D03*
%TO.P,U1,D3*%
%TO.N,Net-(U1-PadD3)*%
X172085000Y-76200000D03*
%TO.P,U1,D2*%
%TO.N,Net-(U1-PadD2)*%
X174625000Y-76200000D03*
%TO.P,U1,D1*%
%TO.N,Net-(U1-PadD1)*%
X177165000Y-76200000D03*
%TO.P,U1,D0*%
%TO.N,Net-(U1-PadD0)*%
X179705000Y-76200000D03*
%TO.P,U1,D14*%
%TO.N,Net-(U1-PadD14)*%
X184785000Y-76200000D03*
%TO.P,U1,D15*%
%TO.N,Net-(U1-PadD15)*%
X187325000Y-76200000D03*
%TO.P,U1,D16*%
%TO.N,Net-(U1-PadD16)*%
X189865000Y-76200000D03*
%TO.P,U1,D17*%
%TO.N,Net-(U1-PadD17)*%
X192405000Y-76200000D03*
%TO.P,U1,D18*%
%TO.N,Net-(U1-PadD18)*%
X194945000Y-76200000D03*
%TO.P,U1,D19*%
%TO.N,Net-(U1-PadD19)*%
X197485000Y-76200000D03*
%TO.P,U1,D20*%
%TO.N,Net-(U1-PadD20)*%
X200025000Y-76200000D03*
%TO.P,U1,D21*%
%TO.N,Net-(U1-PadD21)*%
X202565000Y-76200000D03*
%TO.P,U1,IORF*%
%TO.N,Net-(U1-PadIORF)*%
X146685000Y-124460000D03*
%TO.P,U1,RST1*%
%TO.N,Net-(U1-PadRST1)*%
X149225000Y-124460000D03*
%TO.P,U1,3V3*%
%TO.N,Net-(U1-Pad3V3)*%
X151765000Y-124460000D03*
%TO.P,U1,5V1*%
%TO.N,VCC*%
X154305000Y-124460000D03*
%TO.P,U1,GND2*%
%TO.N,GND*%
X156845000Y-124460000D03*
%TO.P,U1,GND3*%
X159385000Y-124460000D03*
%TO.P,U1,VIN*%
%TO.N,Net-(U1-PadVIN)*%
X161925000Y-124460000D03*
%TO.P,U1,A0*%
%TO.N,Net-(U1-PadA0)*%
X167005000Y-124460000D03*
%TD*%
D12*
%TO.P,C2,1*%
%TO.N,VCC*%
X192405000Y-106680000D03*
D13*
%TO.P,C2,2*%
%TO.N,GND*%
X194405000Y-106680000D03*
%TD*%
D12*
%TO.P,C1,1*%
%TO.N,VCC*%
X118745000Y-106807000D03*
D13*
%TO.P,C1,2*%
%TO.N,GND*%
X116745000Y-106807000D03*
%TD*%
D14*
%TO.P,J3,1*%
%TO.N,VCC*%
X107950000Y-84455000D03*
D15*
%TO.P,J3,2*%
%TO.N,SDA1*%
X107950000Y-81915000D03*
%TO.P,J3,3*%
%TO.N,SCL1*%
X107950000Y-79375000D03*
%TO.P,J3,4*%
%TO.N,GND*%
X107950000Y-76835000D03*
%TD*%
D14*
%TO.P,J2,1*%
%TO.N,VCC*%
X118745000Y-102870000D03*
D15*
%TO.P,J2,2*%
%TO.N,CAS*%
X121285000Y-102870000D03*
%TO.P,J2,3*%
%TO.N,DQ0*%
X123825000Y-102870000D03*
%TO.P,J2,4*%
%TO.N,A0*%
X126365000Y-102870000D03*
%TO.P,J2,5*%
%TO.N,A1*%
X128905000Y-102870000D03*
%TO.P,J2,6*%
%TO.N,DQ1*%
X131445000Y-102870000D03*
%TO.P,J2,7*%
%TO.N,A2*%
X133985000Y-102870000D03*
%TO.P,J2,8*%
%TO.N,A3*%
X136525000Y-102870000D03*
%TO.P,J2,9*%
%TO.N,GND*%
X139065000Y-102870000D03*
%TO.P,J2,10*%
%TO.N,DQ2*%
X141605000Y-102870000D03*
%TO.P,J2,11*%
%TO.N,A4*%
X144145000Y-102870000D03*
%TO.P,J2,12*%
%TO.N,A5*%
X146685000Y-102870000D03*
%TO.P,J2,13*%
%TO.N,DQ3*%
X149225000Y-102870000D03*
%TO.P,J2,14*%
%TO.N,A6*%
X151765000Y-102870000D03*
%TO.P,J2,15*%
%TO.N,A7*%
X154305000Y-102870000D03*
%TO.P,J2,16*%
%TO.N,DQ4*%
X156845000Y-102870000D03*
%TO.P,J2,17*%
%TO.N,A8*%
X159385000Y-102870000D03*
%TO.P,J2,18*%
%TO.N,A9*%
X161925000Y-102870000D03*
%TO.P,J2,19*%
%TO.N,A10*%
X164465000Y-102870000D03*
%TO.P,J2,20*%
%TO.N,DQ5*%
X167005000Y-102870000D03*
%TO.P,J2,21*%
%TO.N,WE*%
X169545000Y-102870000D03*
%TO.P,J2,22*%
%TO.N,GND*%
X172085000Y-102870000D03*
%TO.P,J2,23*%
%TO.N,DQ6*%
X174625000Y-102870000D03*
%TO.P,J2,24*%
%TO.N,A11*%
X177165000Y-102870000D03*
%TO.P,J2,25*%
%TO.N,DQ7*%
X179705000Y-102870000D03*
%TO.P,J2,26*%
%TO.N,QP*%
X182245000Y-102870000D03*
%TO.P,J2,27*%
%TO.N,RAS*%
X184785000Y-102870000D03*
%TO.P,J2,28*%
%TO.N,CASP*%
X187325000Y-102870000D03*
%TO.P,J2,29*%
%TO.N,DP*%
X189865000Y-102870000D03*
%TO.P,J2,30*%
%TO.N,VCC*%
X192405000Y-102870000D03*
%TD*%
D16*
%TO.P,J1,1*%
%TO.N,VCC*%
X118745000Y-100330000D03*
D17*
%TO.P,J1,2*%
%TO.N,CAS*%
X121285000Y-100330000D03*
%TO.P,J1,3*%
%TO.N,DQ0*%
X123825000Y-100330000D03*
%TO.P,J1,4*%
%TO.N,A0*%
X126365000Y-100330000D03*
%TO.P,J1,5*%
%TO.N,A1*%
X128905000Y-100330000D03*
%TO.P,J1,6*%
%TO.N,DQ1*%
X131445000Y-100330000D03*
%TO.P,J1,7*%
%TO.N,A2*%
X133985000Y-100330000D03*
%TO.P,J1,8*%
%TO.N,A3*%
X136525000Y-100330000D03*
%TO.P,J1,9*%
%TO.N,GND*%
X139065000Y-100330000D03*
%TO.P,J1,10*%
%TO.N,DQ2*%
X141605000Y-100330000D03*
%TO.P,J1,11*%
%TO.N,A4*%
X144145000Y-100330000D03*
%TO.P,J1,12*%
%TO.N,A5*%
X146685000Y-100330000D03*
%TO.P,J1,13*%
%TO.N,DQ3*%
X149225000Y-100330000D03*
%TO.P,J1,14*%
%TO.N,A6*%
X151765000Y-100330000D03*
%TO.P,J1,15*%
%TO.N,A7*%
X154305000Y-100330000D03*
%TO.P,J1,16*%
%TO.N,DQ4*%
X156845000Y-100330000D03*
%TO.P,J1,17*%
%TO.N,A8*%
X159385000Y-100330000D03*
%TO.P,J1,18*%
%TO.N,A9*%
X161925000Y-100330000D03*
%TO.P,J1,19*%
%TO.N,A10*%
X164465000Y-100330000D03*
%TO.P,J1,20*%
%TO.N,DQ5*%
X167005000Y-100330000D03*
%TO.P,J1,21*%
%TO.N,WE*%
X169545000Y-100330000D03*
%TO.P,J1,22*%
%TO.N,GND*%
X172085000Y-100330000D03*
%TO.P,J1,23*%
%TO.N,DQ6*%
X174625000Y-100330000D03*
%TO.P,J1,24*%
%TO.N,A11*%
X177165000Y-100330000D03*
%TO.P,J1,25*%
%TO.N,DQ7*%
X179705000Y-100330000D03*
%TO.P,J1,26*%
%TO.N,QP*%
X182245000Y-100330000D03*
%TO.P,J1,27*%
%TO.N,RAS*%
X184785000Y-100330000D03*
%TO.P,J1,28*%
%TO.N,CASP*%
X187325000Y-100330000D03*
%TO.P,J1,29*%
%TO.N,DP*%
X189865000Y-100330000D03*
%TO.P,J1,30*%
%TO.N,VCC*%
X192405000Y-100330000D03*
D18*
%TO.P,J1,31*%
%TO.N,N/C*%
X202565000Y-100330000D03*
%TO.P,J1,32*%
X108585000Y-100330000D03*
%TD*%
D19*
%TO.N,GND*%
X172085000Y-114300000D03*
%TD*%
D20*
%TO.N,VCC*%
X192405000Y-106680000D02*
X192405000Y-102870000D01*
X192405000Y-100330000D02*
X192405000Y-102870000D01*
X118745000Y-100330000D02*
X118745000Y-102870000D01*
X118745000Y-102870000D02*
X118745000Y-106807000D01*
%TO.N,GND*%
X139065000Y-100330000D02*
X139065000Y-100076000D01*
X172085000Y-100330000D02*
X172085000Y-100088700D01*
X172085000Y-114274600D02*
X172123100Y-114312700D01*
D21*
X172085000Y-102870000D02*
X172085000Y-100330000D01*
X172085000Y-80137000D02*
X171831000Y-79883000D01*
X172085000Y-100330000D02*
X172085000Y-80137000D01*
X139065000Y-80137000D02*
X138811000Y-79883000D01*
X139065000Y-100330000D02*
X139065000Y-80137000D01*
D22*
X121285000Y-82517000D02*
X121285000Y-80010000D01*
X123825000Y-82470000D02*
X123825000Y-80137000D01*
D21*
X121158000Y-79883000D02*
X124079000Y-79883000D01*
D22*
X126365000Y-82470000D02*
X126365000Y-80010000D01*
D21*
X124079000Y-79883000D02*
X126492000Y-79883000D01*
D22*
X128905000Y-82470000D02*
X128905000Y-79883000D01*
D21*
X126492000Y-79883000D02*
X128905000Y-79883000D01*
D22*
X131445000Y-82470000D02*
X131445000Y-79883000D01*
D21*
X128905000Y-79883000D02*
X131445000Y-79883000D01*
D22*
X133985000Y-82470000D02*
X133985000Y-80137000D01*
D21*
X131445000Y-79883000D02*
X133731000Y-79883000D01*
D22*
X136525000Y-82470000D02*
X136525000Y-80137000D01*
D21*
X136271000Y-79883000D02*
X138811000Y-79883000D01*
X133731000Y-79883000D02*
X136271000Y-79883000D01*
D22*
X141605000Y-82470000D02*
X141605000Y-80010000D01*
D21*
X138811000Y-79883000D02*
X141478000Y-79883000D01*
D22*
X144145000Y-82470000D02*
X144145000Y-80010000D01*
D21*
X141478000Y-79883000D02*
X144272000Y-79883000D01*
D22*
X146685000Y-82470000D02*
X146685000Y-80010000D01*
D21*
X144272000Y-79883000D02*
X146558000Y-79883000D01*
D22*
X149225000Y-82470000D02*
X149225000Y-79883000D01*
D21*
X146558000Y-79883000D02*
X149225000Y-79883000D01*
D22*
X151765000Y-82470000D02*
X151765000Y-79883000D01*
D21*
X149225000Y-79883000D02*
X151765000Y-79883000D01*
D22*
X154178000Y-82470000D02*
X154178000Y-80010000D01*
D21*
X151765000Y-79883000D02*
X154051000Y-79883000D01*
D22*
X156718000Y-82470000D02*
X156718000Y-80010000D01*
D21*
X154051000Y-79883000D02*
X156845000Y-79883000D01*
D22*
X159385000Y-82470000D02*
X159385000Y-80010000D01*
D21*
X156845000Y-79883000D02*
X159258000Y-79883000D01*
D22*
X161925000Y-82470000D02*
X161925000Y-79883000D01*
D21*
X159258000Y-79883000D02*
X161925000Y-79883000D01*
D22*
X164465000Y-82470000D02*
X164465000Y-79883000D01*
D21*
X161925000Y-79883000D02*
X164465000Y-79883000D01*
D22*
X167005000Y-82470000D02*
X167005000Y-80010000D01*
D21*
X164465000Y-79883000D02*
X166878000Y-79883000D01*
D22*
X169545000Y-82470000D02*
X169545000Y-79883000D01*
D21*
X169545000Y-79883000D02*
X171831000Y-79883000D01*
X166878000Y-79883000D02*
X169545000Y-79883000D01*
D22*
X174625000Y-82470000D02*
X174625000Y-80010000D01*
D21*
X171831000Y-79883000D02*
X174752000Y-79883000D01*
D22*
X177165000Y-82470000D02*
X177165000Y-80137000D01*
D21*
X174752000Y-79883000D02*
X177419000Y-79883000D01*
D22*
X179705000Y-82470000D02*
X179705000Y-80010000D01*
D21*
X177419000Y-79883000D02*
X179832000Y-79883000D01*
D22*
X182245000Y-82470000D02*
X182245000Y-79883000D01*
D21*
X179832000Y-79883000D02*
X182245000Y-79883000D01*
D22*
X184785000Y-82470000D02*
X184785000Y-79883000D01*
D21*
X182245000Y-79883000D02*
X184785000Y-79883000D01*
X187198000Y-79883000D02*
X189865000Y-79883000D01*
D22*
X187325000Y-82470000D02*
X187325000Y-80010000D01*
D21*
X184785000Y-79883000D02*
X187198000Y-79883000D01*
D22*
X189865000Y-82470000D02*
X189865000Y-79883000D01*
D20*
X172085000Y-109982000D02*
X194373000Y-109982000D01*
D21*
X172085000Y-102870000D02*
X172085000Y-109982000D01*
X172085000Y-109982000D02*
X172085000Y-114274600D01*
D20*
X194373000Y-106712000D02*
X194405000Y-106680000D01*
X194373000Y-109982000D02*
X194373000Y-106712000D01*
D22*
%TO.N,CAS*%
X121285000Y-100330000D02*
X121285000Y-92663000D01*
%TO.N,DQ0*%
X123825000Y-92663000D02*
X123825000Y-100330000D01*
%TO.N,A0*%
X126365000Y-100330000D02*
X126365000Y-92663000D01*
%TO.N,A1*%
X128905000Y-92663000D02*
X128905000Y-100330000D01*
%TO.N,DQ1*%
X131445000Y-100330000D02*
X131445000Y-92663000D01*
%TO.N,A2*%
X133985000Y-92663000D02*
X133985000Y-100330000D01*
%TO.N,A3*%
X136525000Y-100330000D02*
X136525000Y-92663000D01*
%TO.N,DQ2*%
X141605000Y-100330000D02*
X141605000Y-92663000D01*
%TO.N,A4*%
X144145000Y-92663000D02*
X144145000Y-100330000D01*
%TO.N,A5*%
X146685000Y-100330000D02*
X146685000Y-92663000D01*
%TO.N,DQ3*%
X149225000Y-92663000D02*
X149225000Y-100330000D01*
%TO.N,A6*%
X151765000Y-100330000D02*
X151765000Y-92663000D01*
%TO.N,A7*%
X154178000Y-100203000D02*
X154305000Y-100330000D01*
X154178000Y-92663000D02*
X154178000Y-100203000D01*
%TO.N,DQ4*%
X156845000Y-92790000D02*
X156718000Y-92663000D01*
X156845000Y-100330000D02*
X156845000Y-92790000D01*
%TO.N,A8*%
X159385000Y-92663000D02*
X159385000Y-100330000D01*
%TO.N,A9*%
X161925000Y-100330000D02*
X161925000Y-92663000D01*
%TO.N,A10*%
X164465000Y-92663000D02*
X164465000Y-100330000D01*
%TO.N,DQ5*%
X167005000Y-100330000D02*
X167005000Y-92663000D01*
%TO.N,WE*%
X169545000Y-92663000D02*
X169545000Y-100330000D01*
%TO.N,DQ6*%
X174625000Y-100330000D02*
X174625000Y-92663000D01*
%TO.N,A11*%
X177165000Y-92663000D02*
X177165000Y-100330000D01*
%TO.N,DQ7*%
X179705000Y-100330000D02*
X179705000Y-92663000D01*
%TO.N,QP*%
X182245000Y-92663000D02*
X182245000Y-100330000D01*
%TO.N,RAS*%
X184785000Y-100330000D02*
X184785000Y-92663000D01*
%TO.N,CASP*%
X187325000Y-92663000D02*
X187325000Y-100330000D01*
%TO.N,DP*%
X189865000Y-100330000D02*
X189865000Y-92663000D01*
%TO.N,Net-(D1-Pad2)*%
X123825000Y-85170000D02*
X123825000Y-89963000D01*
%TO.N,Net-(D3-Pad2)*%
X141605000Y-89963000D02*
X141605000Y-85170000D01*
%TO.N,Net-(D5-Pad2)*%
X156718000Y-89963000D02*
X156718000Y-85170000D01*
%TO.N,Net-(D7-Pad2)*%
X174625000Y-85170000D02*
X174625000Y-89963000D01*
%TO.N,Net-(D9-Pad2)*%
X126365000Y-85170000D02*
X126365000Y-89963000D01*
%TO.N,Net-(D11-Pad2)*%
X133985000Y-89963000D02*
X133985000Y-85170000D01*
%TO.N,Net-(D13-Pad2)*%
X144145000Y-85170000D02*
X144145000Y-89963000D01*
%TO.N,Net-(D15-Pad2)*%
X151765000Y-89963000D02*
X151765000Y-85170000D01*
%TO.N,Net-(D18-Pad2)*%
X161925000Y-89963000D02*
X161925000Y-85170000D01*
%TO.N,Net-(D22-Pad2)*%
X121285000Y-85217000D02*
X121285000Y-89963000D01*
%TO.N,Net-(D25-Pad2)*%
X182245000Y-89963000D02*
X182245000Y-85170000D01*
%TO.N,Net-(D2-Pad2)*%
X131445000Y-85170000D02*
X131445000Y-89963000D01*
%TO.N,Net-(D4-Pad2)*%
X149225000Y-85170000D02*
X149225000Y-89963000D01*
%TO.N,Net-(D6-Pad2)*%
X167005000Y-85170000D02*
X167005000Y-89963000D01*
%TO.N,Net-(D8-Pad2)*%
X179705000Y-85170000D02*
X179705000Y-89963000D01*
%TO.N,Net-(D10-Pad2)*%
X128905000Y-89963000D02*
X128905000Y-85170000D01*
%TO.N,Net-(D12-Pad2)*%
X136525000Y-85170000D02*
X136525000Y-89963000D01*
%TO.N,Net-(D14-Pad2)*%
X146685000Y-89963000D02*
X146685000Y-85170000D01*
%TO.N,Net-(D16-Pad2)*%
X154178000Y-85170000D02*
X154178000Y-89963000D01*
%TO.N,Net-(D17-Pad2)*%
X159385000Y-85170000D02*
X159385000Y-89963000D01*
%TO.N,Net-(D19-Pad2)*%
X164465000Y-89963000D02*
X164465000Y-85170000D01*
%TO.N,Net-(D20-Pad2)*%
X177165000Y-89963000D02*
X177165000Y-85170000D01*
%TO.N,Net-(D21-Pad2)*%
X169545000Y-89963000D02*
X169545000Y-85170000D01*
%TO.N,Net-(D23-Pad2)*%
X184785000Y-85170000D02*
X184785000Y-89963000D01*
%TO.N,Net-(D24-Pad2)*%
X189865000Y-85170000D02*
X189865000Y-89963000D01*
%TO.N,Net-(D26-Pad2)*%
X187325000Y-89963000D02*
X187325000Y-85170000D01*
%TD*%
D23*
%TO.N,VCC*%
X130020271Y-74463962D02*
X129708962Y-74775271D01*
X129464369Y-75141331D01*
X129295890Y-75548075D01*
X129210000Y-75979872D01*
X129210000Y-76420128D01*
X129295890Y-76851925D01*
X129464369Y-77258669D01*
X129708962Y-77624729D01*
X130020271Y-77936038D01*
X130386331Y-78180631D01*
X130793075Y-78349110D01*
X131224872Y-78435000D01*
X131665128Y-78435000D01*
X132096925Y-78349110D01*
X132503669Y-78180631D01*
X132869729Y-77936038D01*
X133181038Y-77624729D01*
X133425631Y-77258669D01*
X133594110Y-76851925D01*
X133611906Y-76762460D01*
X133672958Y-76909853D01*
X133836961Y-77155302D01*
X134045698Y-77364039D01*
X134291147Y-77528042D01*
X134563875Y-77641010D01*
X134853401Y-77698600D01*
X135148599Y-77698600D01*
X135438125Y-77641010D01*
X135710853Y-77528042D01*
X135956302Y-77364039D01*
X136165039Y-77155302D01*
X136271000Y-76996719D01*
X136376961Y-77155302D01*
X136585698Y-77364039D01*
X136831147Y-77528042D01*
X137103875Y-77641010D01*
X137393401Y-77698600D01*
X137688599Y-77698600D01*
X137978125Y-77641010D01*
X138250853Y-77528042D01*
X138496302Y-77364039D01*
X138705039Y-77155302D01*
X138811000Y-76996719D01*
X138916961Y-77155302D01*
X139125698Y-77364039D01*
X139371147Y-77528042D01*
X139643875Y-77641010D01*
X139933401Y-77698600D01*
X140228599Y-77698600D01*
X140518125Y-77641010D01*
X140790853Y-77528042D01*
X141036302Y-77364039D01*
X141245039Y-77155302D01*
X141351000Y-76996719D01*
X141456961Y-77155302D01*
X141665698Y-77364039D01*
X141911147Y-77528042D01*
X142183875Y-77641010D01*
X142473401Y-77698600D01*
X142768599Y-77698600D01*
X143058125Y-77641010D01*
X143330853Y-77528042D01*
X143576302Y-77364039D01*
X143785039Y-77155302D01*
X143891000Y-76996719D01*
X143996961Y-77155302D01*
X144205698Y-77364039D01*
X144451147Y-77528042D01*
X144723875Y-77641010D01*
X145013401Y-77698600D01*
X145308599Y-77698600D01*
X145598125Y-77641010D01*
X145870853Y-77528042D01*
X146116302Y-77364039D01*
X146325039Y-77155302D01*
X146431000Y-76996719D01*
X146536961Y-77155302D01*
X146745698Y-77364039D01*
X146991147Y-77528042D01*
X147263875Y-77641010D01*
X147553401Y-77698600D01*
X147848599Y-77698600D01*
X148138125Y-77641010D01*
X148410853Y-77528042D01*
X148656302Y-77364039D01*
X148865039Y-77155302D01*
X148971000Y-76996719D01*
X149076961Y-77155302D01*
X149285698Y-77364039D01*
X149531147Y-77528042D01*
X149803875Y-77641010D01*
X150093401Y-77698600D01*
X150388599Y-77698600D01*
X150678125Y-77641010D01*
X150950853Y-77528042D01*
X151196302Y-77364039D01*
X151405039Y-77155302D01*
X151511000Y-76996719D01*
X151616961Y-77155302D01*
X151825698Y-77364039D01*
X152071147Y-77528042D01*
X152343875Y-77641010D01*
X152633401Y-77698600D01*
X152928599Y-77698600D01*
X153218125Y-77641010D01*
X153490853Y-77528042D01*
X153736302Y-77364039D01*
X153945039Y-77155302D01*
X154051000Y-76996719D01*
X154156961Y-77155302D01*
X154365698Y-77364039D01*
X154611147Y-77528042D01*
X154883875Y-77641010D01*
X155173401Y-77698600D01*
X155468599Y-77698600D01*
X155758125Y-77641010D01*
X156030853Y-77528042D01*
X156276302Y-77364039D01*
X156485039Y-77155302D01*
X156591000Y-76996719D01*
X156696961Y-77155302D01*
X156905698Y-77364039D01*
X157151147Y-77528042D01*
X157423875Y-77641010D01*
X157713401Y-77698600D01*
X158008599Y-77698600D01*
X158298125Y-77641010D01*
X158570853Y-77528042D01*
X158816302Y-77364039D01*
X159025039Y-77155302D01*
X159189042Y-76909853D01*
X159302010Y-76637125D01*
X159359600Y-76347599D01*
X159359600Y-76052401D01*
X160426400Y-76052401D01*
X160426400Y-76347599D01*
X160483990Y-76637125D01*
X160596958Y-76909853D01*
X160760961Y-77155302D01*
X160969698Y-77364039D01*
X161215147Y-77528042D01*
X161487875Y-77641010D01*
X161777401Y-77698600D01*
X162072599Y-77698600D01*
X162362125Y-77641010D01*
X162634853Y-77528042D01*
X162880302Y-77364039D01*
X163089039Y-77155302D01*
X163195000Y-76996719D01*
X163300961Y-77155302D01*
X163509698Y-77364039D01*
X163755147Y-77528042D01*
X164027875Y-77641010D01*
X164317401Y-77698600D01*
X164612599Y-77698600D01*
X164902125Y-77641010D01*
X165174853Y-77528042D01*
X165420302Y-77364039D01*
X165629039Y-77155302D01*
X165735000Y-76996719D01*
X165840961Y-77155302D01*
X166049698Y-77364039D01*
X166295147Y-77528042D01*
X166567875Y-77641010D01*
X166857401Y-77698600D01*
X167152599Y-77698600D01*
X167442125Y-77641010D01*
X167714853Y-77528042D01*
X167960302Y-77364039D01*
X168169039Y-77155302D01*
X168275000Y-76996719D01*
X168380961Y-77155302D01*
X168589698Y-77364039D01*
X168835147Y-77528042D01*
X169107875Y-77641010D01*
X169397401Y-77698600D01*
X169692599Y-77698600D01*
X169982125Y-77641010D01*
X170254853Y-77528042D01*
X170500302Y-77364039D01*
X170709039Y-77155302D01*
X170815000Y-76996719D01*
X170920961Y-77155302D01*
X171129698Y-77364039D01*
X171375147Y-77528042D01*
X171647875Y-77641010D01*
X171937401Y-77698600D01*
X172232599Y-77698600D01*
X172522125Y-77641010D01*
X172794853Y-77528042D01*
X173040302Y-77364039D01*
X173249039Y-77155302D01*
X173355000Y-76996719D01*
X173460961Y-77155302D01*
X173669698Y-77364039D01*
X173915147Y-77528042D01*
X174187875Y-77641010D01*
X174477401Y-77698600D01*
X174772599Y-77698600D01*
X175062125Y-77641010D01*
X175334853Y-77528042D01*
X175580302Y-77364039D01*
X175789039Y-77155302D01*
X175895000Y-76996719D01*
X176000961Y-77155302D01*
X176209698Y-77364039D01*
X176455147Y-77528042D01*
X176727875Y-77641010D01*
X177017401Y-77698600D01*
X177312599Y-77698600D01*
X177602125Y-77641010D01*
X177874853Y-77528042D01*
X178120302Y-77364039D01*
X178329039Y-77155302D01*
X178435000Y-76996719D01*
X178540961Y-77155302D01*
X178749698Y-77364039D01*
X178995147Y-77528042D01*
X179267875Y-77641010D01*
X179557401Y-77698600D01*
X179852599Y-77698600D01*
X180142125Y-77641010D01*
X180414853Y-77528042D01*
X180660302Y-77364039D01*
X180869039Y-77155302D01*
X181033042Y-76909853D01*
X181146010Y-76637125D01*
X181203600Y-76347599D01*
X181203600Y-76052401D01*
X183286400Y-76052401D01*
X183286400Y-76347599D01*
X183343990Y-76637125D01*
X183456958Y-76909853D01*
X183620961Y-77155302D01*
X183829698Y-77364039D01*
X184075147Y-77528042D01*
X184347875Y-77641010D01*
X184637401Y-77698600D01*
X184932599Y-77698600D01*
X185222125Y-77641010D01*
X185494853Y-77528042D01*
X185740302Y-77364039D01*
X185949039Y-77155302D01*
X186055000Y-76996719D01*
X186160961Y-77155302D01*
X186369698Y-77364039D01*
X186615147Y-77528042D01*
X186887875Y-77641010D01*
X187177401Y-77698600D01*
X187472599Y-77698600D01*
X187762125Y-77641010D01*
X188034853Y-77528042D01*
X188280302Y-77364039D01*
X188489039Y-77155302D01*
X188595000Y-76996719D01*
X188700961Y-77155302D01*
X188909698Y-77364039D01*
X189155147Y-77528042D01*
X189427875Y-77641010D01*
X189717401Y-77698600D01*
X190012599Y-77698600D01*
X190302125Y-77641010D01*
X190574853Y-77528042D01*
X190820302Y-77364039D01*
X191029039Y-77155302D01*
X191135000Y-76996719D01*
X191240961Y-77155302D01*
X191449698Y-77364039D01*
X191695147Y-77528042D01*
X191967875Y-77641010D01*
X192257401Y-77698600D01*
X192552599Y-77698600D01*
X192842125Y-77641010D01*
X193114853Y-77528042D01*
X193360302Y-77364039D01*
X193569039Y-77155302D01*
X193675000Y-76996719D01*
X193780961Y-77155302D01*
X193989698Y-77364039D01*
X194235147Y-77528042D01*
X194507875Y-77641010D01*
X194797401Y-77698600D01*
X195092599Y-77698600D01*
X195382125Y-77641010D01*
X195654853Y-77528042D01*
X195900302Y-77364039D01*
X196109039Y-77155302D01*
X196215000Y-76996719D01*
X196320961Y-77155302D01*
X196529698Y-77364039D01*
X196775147Y-77528042D01*
X197047875Y-77641010D01*
X197337401Y-77698600D01*
X197632599Y-77698600D01*
X197922125Y-77641010D01*
X198194853Y-77528042D01*
X198440302Y-77364039D01*
X198649039Y-77155302D01*
X198755000Y-76996719D01*
X198860961Y-77155302D01*
X199069698Y-77364039D01*
X199315147Y-77528042D01*
X199587875Y-77641010D01*
X199877401Y-77698600D01*
X200172599Y-77698600D01*
X200462125Y-77641010D01*
X200734853Y-77528042D01*
X200980302Y-77364039D01*
X201189039Y-77155302D01*
X201295000Y-76996719D01*
X201400961Y-77155302D01*
X201609698Y-77364039D01*
X201855147Y-77528042D01*
X202127875Y-77641010D01*
X202417401Y-77698600D01*
X202712599Y-77698600D01*
X203002125Y-77641010D01*
X203274853Y-77528042D01*
X203520302Y-77364039D01*
X203729039Y-77155302D01*
X203893042Y-76909853D01*
X204006010Y-76637125D01*
X204063600Y-76347599D01*
X204063600Y-76052401D01*
X204006010Y-75762875D01*
X203893042Y-75490147D01*
X203729039Y-75244698D01*
X203520302Y-75035961D01*
X203274853Y-74871958D01*
X203002125Y-74758990D01*
X202712599Y-74701400D01*
X202417401Y-74701400D01*
X202127875Y-74758990D01*
X201855147Y-74871958D01*
X201609698Y-75035961D01*
X201400961Y-75244698D01*
X201295000Y-75403281D01*
X201189039Y-75244698D01*
X200980302Y-75035961D01*
X200734853Y-74871958D01*
X200462125Y-74758990D01*
X200172599Y-74701400D01*
X199877401Y-74701400D01*
X199587875Y-74758990D01*
X199315147Y-74871958D01*
X199069698Y-75035961D01*
X198860961Y-75244698D01*
X198755000Y-75403281D01*
X198649039Y-75244698D01*
X198440302Y-75035961D01*
X198194853Y-74871958D01*
X197922125Y-74758990D01*
X197632599Y-74701400D01*
X197337401Y-74701400D01*
X197047875Y-74758990D01*
X196775147Y-74871958D01*
X196529698Y-75035961D01*
X196320961Y-75244698D01*
X196215000Y-75403281D01*
X196109039Y-75244698D01*
X195900302Y-75035961D01*
X195654853Y-74871958D01*
X195382125Y-74758990D01*
X195092599Y-74701400D01*
X194797401Y-74701400D01*
X194507875Y-74758990D01*
X194235147Y-74871958D01*
X193989698Y-75035961D01*
X193780961Y-75244698D01*
X193675000Y-75403281D01*
X193569039Y-75244698D01*
X193360302Y-75035961D01*
X193114853Y-74871958D01*
X192842125Y-74758990D01*
X192552599Y-74701400D01*
X192257401Y-74701400D01*
X191967875Y-74758990D01*
X191695147Y-74871958D01*
X191449698Y-75035961D01*
X191240961Y-75244698D01*
X191135000Y-75403281D01*
X191029039Y-75244698D01*
X190820302Y-75035961D01*
X190574853Y-74871958D01*
X190302125Y-74758990D01*
X190012599Y-74701400D01*
X189717401Y-74701400D01*
X189427875Y-74758990D01*
X189155147Y-74871958D01*
X188909698Y-75035961D01*
X188700961Y-75244698D01*
X188595000Y-75403281D01*
X188489039Y-75244698D01*
X188280302Y-75035961D01*
X188034853Y-74871958D01*
X187762125Y-74758990D01*
X187472599Y-74701400D01*
X187177401Y-74701400D01*
X186887875Y-74758990D01*
X186615147Y-74871958D01*
X186369698Y-75035961D01*
X186160961Y-75244698D01*
X186055000Y-75403281D01*
X185949039Y-75244698D01*
X185740302Y-75035961D01*
X185494853Y-74871958D01*
X185222125Y-74758990D01*
X184932599Y-74701400D01*
X184637401Y-74701400D01*
X184347875Y-74758990D01*
X184075147Y-74871958D01*
X183829698Y-75035961D01*
X183620961Y-75244698D01*
X183456958Y-75490147D01*
X183343990Y-75762875D01*
X183286400Y-76052401D01*
X181203600Y-76052401D01*
X181146010Y-75762875D01*
X181033042Y-75490147D01*
X180869039Y-75244698D01*
X180660302Y-75035961D01*
X180414853Y-74871958D01*
X180142125Y-74758990D01*
X179852599Y-74701400D01*
X179557401Y-74701400D01*
X179267875Y-74758990D01*
X178995147Y-74871958D01*
X178749698Y-75035961D01*
X178540961Y-75244698D01*
X178435000Y-75403281D01*
X178329039Y-75244698D01*
X178120302Y-75035961D01*
X177874853Y-74871958D01*
X177602125Y-74758990D01*
X177312599Y-74701400D01*
X177017401Y-74701400D01*
X176727875Y-74758990D01*
X176455147Y-74871958D01*
X176209698Y-75035961D01*
X176000961Y-75244698D01*
X175895000Y-75403281D01*
X175789039Y-75244698D01*
X175580302Y-75035961D01*
X175334853Y-74871958D01*
X175062125Y-74758990D01*
X174772599Y-74701400D01*
X174477401Y-74701400D01*
X174187875Y-74758990D01*
X173915147Y-74871958D01*
X173669698Y-75035961D01*
X173460961Y-75244698D01*
X173355000Y-75403281D01*
X173249039Y-75244698D01*
X173040302Y-75035961D01*
X172794853Y-74871958D01*
X172522125Y-74758990D01*
X172232599Y-74701400D01*
X171937401Y-74701400D01*
X171647875Y-74758990D01*
X171375147Y-74871958D01*
X171129698Y-75035961D01*
X170920961Y-75244698D01*
X170815000Y-75403281D01*
X170709039Y-75244698D01*
X170500302Y-75035961D01*
X170254853Y-74871958D01*
X169982125Y-74758990D01*
X169692599Y-74701400D01*
X169397401Y-74701400D01*
X169107875Y-74758990D01*
X168835147Y-74871958D01*
X168589698Y-75035961D01*
X168380961Y-75244698D01*
X168275000Y-75403281D01*
X168169039Y-75244698D01*
X167960302Y-75035961D01*
X167714853Y-74871958D01*
X167442125Y-74758990D01*
X167152599Y-74701400D01*
X166857401Y-74701400D01*
X166567875Y-74758990D01*
X166295147Y-74871958D01*
X166049698Y-75035961D01*
X165840961Y-75244698D01*
X165735000Y-75403281D01*
X165629039Y-75244698D01*
X165420302Y-75035961D01*
X165174853Y-74871958D01*
X164902125Y-74758990D01*
X164612599Y-74701400D01*
X164317401Y-74701400D01*
X164027875Y-74758990D01*
X163755147Y-74871958D01*
X163509698Y-75035961D01*
X163300961Y-75244698D01*
X163195000Y-75403281D01*
X163089039Y-75244698D01*
X162880302Y-75035961D01*
X162634853Y-74871958D01*
X162362125Y-74758990D01*
X162072599Y-74701400D01*
X161777401Y-74701400D01*
X161487875Y-74758990D01*
X161215147Y-74871958D01*
X160969698Y-75035961D01*
X160760961Y-75244698D01*
X160596958Y-75490147D01*
X160483990Y-75762875D01*
X160426400Y-76052401D01*
X159359600Y-76052401D01*
X159302010Y-75762875D01*
X159189042Y-75490147D01*
X159025039Y-75244698D01*
X158816302Y-75035961D01*
X158570853Y-74871958D01*
X158298125Y-74758990D01*
X158008599Y-74701400D01*
X157713401Y-74701400D01*
X157423875Y-74758990D01*
X157151147Y-74871958D01*
X156905698Y-75035961D01*
X156696961Y-75244698D01*
X156591000Y-75403281D01*
X156485039Y-75244698D01*
X156276302Y-75035961D01*
X156030853Y-74871958D01*
X155758125Y-74758990D01*
X155468599Y-74701400D01*
X155173401Y-74701400D01*
X154883875Y-74758990D01*
X154611147Y-74871958D01*
X154365698Y-75035961D01*
X154156961Y-75244698D01*
X154051000Y-75403281D01*
X153945039Y-75244698D01*
X153736302Y-75035961D01*
X153490853Y-74871958D01*
X153218125Y-74758990D01*
X152928599Y-74701400D01*
X152633401Y-74701400D01*
X152343875Y-74758990D01*
X152071147Y-74871958D01*
X151825698Y-75035961D01*
X151616961Y-75244698D01*
X151511000Y-75403281D01*
X151405039Y-75244698D01*
X151196302Y-75035961D01*
X150950853Y-74871958D01*
X150678125Y-74758990D01*
X150388599Y-74701400D01*
X150093401Y-74701400D01*
X149803875Y-74758990D01*
X149531147Y-74871958D01*
X149285698Y-75035961D01*
X149076961Y-75244698D01*
X148971000Y-75403281D01*
X148865039Y-75244698D01*
X148656302Y-75035961D01*
X148410853Y-74871958D01*
X148138125Y-74758990D01*
X147848599Y-74701400D01*
X147553401Y-74701400D01*
X147263875Y-74758990D01*
X146991147Y-74871958D01*
X146745698Y-75035961D01*
X146536961Y-75244698D01*
X146431000Y-75403281D01*
X146325039Y-75244698D01*
X146116302Y-75035961D01*
X145870853Y-74871958D01*
X145598125Y-74758990D01*
X145308599Y-74701400D01*
X145013401Y-74701400D01*
X144723875Y-74758990D01*
X144451147Y-74871958D01*
X144205698Y-75035961D01*
X143996961Y-75244698D01*
X143891000Y-75403281D01*
X143785039Y-75244698D01*
X143576302Y-75035961D01*
X143330853Y-74871958D01*
X143058125Y-74758990D01*
X142768599Y-74701400D01*
X142473401Y-74701400D01*
X142183875Y-74758990D01*
X141911147Y-74871958D01*
X141665698Y-75035961D01*
X141456961Y-75244698D01*
X141351000Y-75403281D01*
X141245039Y-75244698D01*
X141036302Y-75035961D01*
X140790853Y-74871958D01*
X140518125Y-74758990D01*
X140228599Y-74701400D01*
X139933401Y-74701400D01*
X139643875Y-74758990D01*
X139371147Y-74871958D01*
X139125698Y-75035961D01*
X138916961Y-75244698D01*
X138811000Y-75403281D01*
X138705039Y-75244698D01*
X138496302Y-75035961D01*
X138250853Y-74871958D01*
X137978125Y-74758990D01*
X137688599Y-74701400D01*
X137393401Y-74701400D01*
X137103875Y-74758990D01*
X136831147Y-74871958D01*
X136585698Y-75035961D01*
X136376961Y-75244698D01*
X136271000Y-75403281D01*
X136165039Y-75244698D01*
X135956302Y-75035961D01*
X135710853Y-74871958D01*
X135438125Y-74758990D01*
X135148599Y-74701400D01*
X134853401Y-74701400D01*
X134563875Y-74758990D01*
X134291147Y-74871958D01*
X134045698Y-75035961D01*
X133836961Y-75244698D01*
X133672958Y-75490147D01*
X133611906Y-75637540D01*
X133594110Y-75548075D01*
X133425631Y-75141331D01*
X133181038Y-74775271D01*
X132869729Y-74463962D01*
X132654274Y-74320000D01*
X205165726Y-74320000D01*
X204950271Y-74463962D01*
X204638962Y-74775271D01*
X204394369Y-75141331D01*
X204225890Y-75548075D01*
X204140000Y-75979872D01*
X204140000Y-76420128D01*
X204225890Y-76851925D01*
X204394369Y-77258669D01*
X204638962Y-77624729D01*
X204950271Y-77936038D01*
X205316331Y-78180631D01*
X205723075Y-78349110D01*
X206154872Y-78435000D01*
X206595128Y-78435000D01*
X207026925Y-78349110D01*
X207433669Y-78180631D01*
X207799729Y-77936038D01*
X208111038Y-77624729D01*
X208355631Y-77258669D01*
X208524110Y-76851925D01*
X208610000Y-76420128D01*
X208610000Y-75979872D01*
X208524110Y-75548075D01*
X208355631Y-75141331D01*
X208111038Y-74775271D01*
X207799729Y-74463962D01*
X207584274Y-74320000D01*
X213467620Y-74320000D01*
X214605001Y-75457382D01*
X214605000Y-86327591D01*
X214601808Y-86360000D01*
X214605000Y-86392409D01*
X214605000Y-86392418D01*
X214614550Y-86489382D01*
X214645926Y-86592812D01*
X214652290Y-86613792D01*
X214713575Y-86728450D01*
X214761689Y-86787076D01*
X214796052Y-86828948D01*
X214821236Y-86849616D01*
X217145001Y-89173382D01*
X217145000Y-122916619D01*
X214821232Y-125240388D01*
X214820727Y-125240802D01*
X214874110Y-125111925D01*
X214960000Y-124680128D01*
X214960000Y-124239872D01*
X214874110Y-123808075D01*
X214705631Y-123401331D01*
X214461038Y-123035271D01*
X214149729Y-122723962D01*
X213783669Y-122479369D01*
X213376925Y-122310890D01*
X212945128Y-122225000D01*
X212504872Y-122225000D01*
X212073075Y-122310890D01*
X211666331Y-122479369D01*
X211300271Y-122723962D01*
X210988962Y-123035271D01*
X210744369Y-123401331D01*
X210575890Y-123808075D01*
X210490000Y-124239872D01*
X210490000Y-124680128D01*
X210575890Y-125111925D01*
X210744369Y-125518669D01*
X210988962Y-125884729D01*
X211300271Y-126196038D01*
X211515726Y-126340000D01*
X131384274Y-126340000D01*
X131599729Y-126196038D01*
X131911038Y-125884729D01*
X132155631Y-125518669D01*
X132324110Y-125111925D01*
X132410000Y-124680128D01*
X132410000Y-124312401D01*
X142646400Y-124312401D01*
X142646400Y-124607599D01*
X142703990Y-124897125D01*
X142816958Y-125169853D01*
X142980961Y-125415302D01*
X143189698Y-125624039D01*
X143435147Y-125788042D01*
X143707875Y-125901010D01*
X143997401Y-125958600D01*
X144292599Y-125958600D01*
X144582125Y-125901010D01*
X144854853Y-125788042D01*
X145100302Y-125624039D01*
X145309039Y-125415302D01*
X145415000Y-125256719D01*
X145520961Y-125415302D01*
X145729698Y-125624039D01*
X145975147Y-125788042D01*
X146247875Y-125901010D01*
X146537401Y-125958600D01*
X146832599Y-125958600D01*
X147122125Y-125901010D01*
X147394853Y-125788042D01*
X147640302Y-125624039D01*
X147849039Y-125415302D01*
X147955000Y-125256719D01*
X148060961Y-125415302D01*
X148269698Y-125624039D01*
X148515147Y-125788042D01*
X148787875Y-125901010D01*
X149077401Y-125958600D01*
X149372599Y-125958600D01*
X149662125Y-125901010D01*
X149934853Y-125788042D01*
X150180302Y-125624039D01*
X150389039Y-125415302D01*
X150495000Y-125256719D01*
X150600961Y-125415302D01*
X150809698Y-125624039D01*
X151055147Y-125788042D01*
X151327875Y-125901010D01*
X151617401Y-125958600D01*
X151912599Y-125958600D01*
X152202125Y-125901010D01*
X152474853Y-125788042D01*
X152720302Y-125624039D01*
X152929039Y-125415302D01*
X153093042Y-125169853D01*
X153206010Y-124897125D01*
X153263600Y-124607599D01*
X153263600Y-124312401D01*
X155346400Y-124312401D01*
X155346400Y-124607599D01*
X155403990Y-124897125D01*
X155516958Y-125169853D01*
X155680961Y-125415302D01*
X155889698Y-125624039D01*
X156135147Y-125788042D01*
X156407875Y-125901010D01*
X156697401Y-125958600D01*
X156992599Y-125958600D01*
X157282125Y-125901010D01*
X157554853Y-125788042D01*
X157800302Y-125624039D01*
X158009039Y-125415302D01*
X158115000Y-125256719D01*
X158220961Y-125415302D01*
X158429698Y-125624039D01*
X158675147Y-125788042D01*
X158947875Y-125901010D01*
X159237401Y-125958600D01*
X159532599Y-125958600D01*
X159822125Y-125901010D01*
X160094853Y-125788042D01*
X160340302Y-125624039D01*
X160549039Y-125415302D01*
X160655000Y-125256719D01*
X160760961Y-125415302D01*
X160969698Y-125624039D01*
X161215147Y-125788042D01*
X161487875Y-125901010D01*
X161777401Y-125958600D01*
X162072599Y-125958600D01*
X162362125Y-125901010D01*
X162634853Y-125788042D01*
X162880302Y-125624039D01*
X163089039Y-125415302D01*
X163253042Y-125169853D01*
X163366010Y-124897125D01*
X163423600Y-124607599D01*
X163423600Y-124312401D01*
X165506400Y-124312401D01*
X165506400Y-124607599D01*
X165563990Y-124897125D01*
X165676958Y-125169853D01*
X165840961Y-125415302D01*
X166049698Y-125624039D01*
X166295147Y-125788042D01*
X166567875Y-125901010D01*
X166857401Y-125958600D01*
X167152599Y-125958600D01*
X167442125Y-125901010D01*
X167714853Y-125788042D01*
X167960302Y-125624039D01*
X168169039Y-125415302D01*
X168275000Y-125256719D01*
X168380961Y-125415302D01*
X168589698Y-125624039D01*
X168835147Y-125788042D01*
X169107875Y-125901010D01*
X169397401Y-125958600D01*
X169692599Y-125958600D01*
X169982125Y-125901010D01*
X170254853Y-125788042D01*
X170500302Y-125624039D01*
X170709039Y-125415302D01*
X170815000Y-125256719D01*
X170920961Y-125415302D01*
X171129698Y-125624039D01*
X171375147Y-125788042D01*
X171647875Y-125901010D01*
X171937401Y-125958600D01*
X172232599Y-125958600D01*
X172522125Y-125901010D01*
X172794853Y-125788042D01*
X173040302Y-125624039D01*
X173249039Y-125415302D01*
X173355000Y-125256719D01*
X173460961Y-125415302D01*
X173669698Y-125624039D01*
X173915147Y-125788042D01*
X174187875Y-125901010D01*
X174477401Y-125958600D01*
X174772599Y-125958600D01*
X175062125Y-125901010D01*
X175334853Y-125788042D01*
X175580302Y-125624039D01*
X175789039Y-125415302D01*
X175895000Y-125256719D01*
X176000961Y-125415302D01*
X176209698Y-125624039D01*
X176455147Y-125788042D01*
X176727875Y-125901010D01*
X177017401Y-125958600D01*
X177312599Y-125958600D01*
X177602125Y-125901010D01*
X177874853Y-125788042D01*
X178120302Y-125624039D01*
X178329039Y-125415302D01*
X178435000Y-125256719D01*
X178540961Y-125415302D01*
X178749698Y-125624039D01*
X178995147Y-125788042D01*
X179267875Y-125901010D01*
X179557401Y-125958600D01*
X179852599Y-125958600D01*
X180142125Y-125901010D01*
X180414853Y-125788042D01*
X180660302Y-125624039D01*
X180869039Y-125415302D01*
X180975000Y-125256719D01*
X181080961Y-125415302D01*
X181289698Y-125624039D01*
X181535147Y-125788042D01*
X181807875Y-125901010D01*
X182097401Y-125958600D01*
X182392599Y-125958600D01*
X182682125Y-125901010D01*
X182954853Y-125788042D01*
X183200302Y-125624039D01*
X183409039Y-125415302D01*
X183515000Y-125256719D01*
X183620961Y-125415302D01*
X183829698Y-125624039D01*
X184075147Y-125788042D01*
X184347875Y-125901010D01*
X184637401Y-125958600D01*
X184932599Y-125958600D01*
X185222125Y-125901010D01*
X185494853Y-125788042D01*
X185740302Y-125624039D01*
X185949039Y-125415302D01*
X186113042Y-125169853D01*
X186226010Y-124897125D01*
X186283600Y-124607599D01*
X186283600Y-124312401D01*
X188366400Y-124312401D01*
X188366400Y-124607599D01*
X188423990Y-124897125D01*
X188536958Y-125169853D01*
X188700961Y-125415302D01*
X188909698Y-125624039D01*
X189155147Y-125788042D01*
X189427875Y-125901010D01*
X189717401Y-125958600D01*
X190012599Y-125958600D01*
X190302125Y-125901010D01*
X190574853Y-125788042D01*
X190820302Y-125624039D01*
X191029039Y-125415302D01*
X191135000Y-125256719D01*
X191240961Y-125415302D01*
X191449698Y-125624039D01*
X191695147Y-125788042D01*
X191967875Y-125901010D01*
X192257401Y-125958600D01*
X192552599Y-125958600D01*
X192842125Y-125901010D01*
X193114853Y-125788042D01*
X193360302Y-125624039D01*
X193569039Y-125415302D01*
X193675000Y-125256719D01*
X193780961Y-125415302D01*
X193989698Y-125624039D01*
X194235147Y-125788042D01*
X194507875Y-125901010D01*
X194797401Y-125958600D01*
X195092599Y-125958600D01*
X195382125Y-125901010D01*
X195654853Y-125788042D01*
X195900302Y-125624039D01*
X196109039Y-125415302D01*
X196215000Y-125256719D01*
X196320961Y-125415302D01*
X196529698Y-125624039D01*
X196775147Y-125788042D01*
X197047875Y-125901010D01*
X197337401Y-125958600D01*
X197632599Y-125958600D01*
X197922125Y-125901010D01*
X198194853Y-125788042D01*
X198440302Y-125624039D01*
X198649039Y-125415302D01*
X198755000Y-125256719D01*
X198860961Y-125415302D01*
X199069698Y-125624039D01*
X199315147Y-125788042D01*
X199587875Y-125901010D01*
X199877401Y-125958600D01*
X200172599Y-125958600D01*
X200462125Y-125901010D01*
X200734853Y-125788042D01*
X200980302Y-125624039D01*
X201189039Y-125415302D01*
X201295000Y-125256719D01*
X201400961Y-125415302D01*
X201609698Y-125624039D01*
X201855147Y-125788042D01*
X202127875Y-125901010D01*
X202417401Y-125958600D01*
X202712599Y-125958600D01*
X203002125Y-125901010D01*
X203274853Y-125788042D01*
X203520302Y-125624039D01*
X203729039Y-125415302D01*
X203835000Y-125256719D01*
X203940961Y-125415302D01*
X204149698Y-125624039D01*
X204395147Y-125788042D01*
X204667875Y-125901010D01*
X204957401Y-125958600D01*
X205252599Y-125958600D01*
X205542125Y-125901010D01*
X205814853Y-125788042D01*
X206060302Y-125624039D01*
X206269039Y-125415302D01*
X206375000Y-125256719D01*
X206480961Y-125415302D01*
X206689698Y-125624039D01*
X206935147Y-125788042D01*
X207207875Y-125901010D01*
X207497401Y-125958600D01*
X207792599Y-125958600D01*
X208082125Y-125901010D01*
X208354853Y-125788042D01*
X208600302Y-125624039D01*
X208809039Y-125415302D01*
X208973042Y-125169853D01*
X209086010Y-124897125D01*
X209143600Y-124607599D01*
X209143600Y-124312401D01*
X209086010Y-124022875D01*
X208973042Y-123750147D01*
X208809039Y-123504698D01*
X208600302Y-123295961D01*
X208354853Y-123131958D01*
X208082125Y-123018990D01*
X207792599Y-122961400D01*
X207497401Y-122961400D01*
X207207875Y-123018990D01*
X206935147Y-123131958D01*
X206689698Y-123295961D01*
X206480961Y-123504698D01*
X206375000Y-123663281D01*
X206269039Y-123504698D01*
X206060302Y-123295961D01*
X205814853Y-123131958D01*
X205542125Y-123018990D01*
X205252599Y-122961400D01*
X204957401Y-122961400D01*
X204667875Y-123018990D01*
X204395147Y-123131958D01*
X204149698Y-123295961D01*
X203940961Y-123504698D01*
X203835000Y-123663281D01*
X203729039Y-123504698D01*
X203520302Y-123295961D01*
X203274853Y-123131958D01*
X203002125Y-123018990D01*
X202712599Y-122961400D01*
X202417401Y-122961400D01*
X202127875Y-123018990D01*
X201855147Y-123131958D01*
X201609698Y-123295961D01*
X201400961Y-123504698D01*
X201295000Y-123663281D01*
X201189039Y-123504698D01*
X200980302Y-123295961D01*
X200734853Y-123131958D01*
X200462125Y-123018990D01*
X200172599Y-122961400D01*
X199877401Y-122961400D01*
X199587875Y-123018990D01*
X199315147Y-123131958D01*
X199069698Y-123295961D01*
X198860961Y-123504698D01*
X198755000Y-123663281D01*
X198649039Y-123504698D01*
X198440302Y-123295961D01*
X198194853Y-123131958D01*
X197922125Y-123018990D01*
X197632599Y-122961400D01*
X197337401Y-122961400D01*
X197047875Y-123018990D01*
X196775147Y-123131958D01*
X196529698Y-123295961D01*
X196320961Y-123504698D01*
X196215000Y-123663281D01*
X196109039Y-123504698D01*
X195900302Y-123295961D01*
X195654853Y-123131958D01*
X195382125Y-123018990D01*
X195092599Y-122961400D01*
X194797401Y-122961400D01*
X194507875Y-123018990D01*
X194235147Y-123131958D01*
X193989698Y-123295961D01*
X193780961Y-123504698D01*
X193675000Y-123663281D01*
X193569039Y-123504698D01*
X193360302Y-123295961D01*
X193114853Y-123131958D01*
X192842125Y-123018990D01*
X192552599Y-122961400D01*
X192257401Y-122961400D01*
X191967875Y-123018990D01*
X191695147Y-123131958D01*
X191449698Y-123295961D01*
X191240961Y-123504698D01*
X191135000Y-123663281D01*
X191029039Y-123504698D01*
X190820302Y-123295961D01*
X190574853Y-123131958D01*
X190302125Y-123018990D01*
X190012599Y-122961400D01*
X189717401Y-122961400D01*
X189427875Y-123018990D01*
X189155147Y-123131958D01*
X188909698Y-123295961D01*
X188700961Y-123504698D01*
X188536958Y-123750147D01*
X188423990Y-124022875D01*
X188366400Y-124312401D01*
X186283600Y-124312401D01*
X186226010Y-124022875D01*
X186113042Y-123750147D01*
X185949039Y-123504698D01*
X185740302Y-123295961D01*
X185494853Y-123131958D01*
X185222125Y-123018990D01*
X184932599Y-122961400D01*
X184637401Y-122961400D01*
X184347875Y-123018990D01*
X184075147Y-123131958D01*
X183829698Y-123295961D01*
X183620961Y-123504698D01*
X183515000Y-123663281D01*
X183409039Y-123504698D01*
X183200302Y-123295961D01*
X182954853Y-123131958D01*
X182682125Y-123018990D01*
X182392599Y-122961400D01*
X182097401Y-122961400D01*
X181807875Y-123018990D01*
X181535147Y-123131958D01*
X181289698Y-123295961D01*
X181080961Y-123504698D01*
X180975000Y-123663281D01*
X180869039Y-123504698D01*
X180660302Y-123295961D01*
X180414853Y-123131958D01*
X180142125Y-123018990D01*
X179852599Y-122961400D01*
X179557401Y-122961400D01*
X179267875Y-123018990D01*
X178995147Y-123131958D01*
X178749698Y-123295961D01*
X178540961Y-123504698D01*
X178435000Y-123663281D01*
X178329039Y-123504698D01*
X178120302Y-123295961D01*
X177874853Y-123131958D01*
X177602125Y-123018990D01*
X177312599Y-122961400D01*
X177017401Y-122961400D01*
X176727875Y-123018990D01*
X176455147Y-123131958D01*
X176209698Y-123295961D01*
X176000961Y-123504698D01*
X175895000Y-123663281D01*
X175789039Y-123504698D01*
X175580302Y-123295961D01*
X175334853Y-123131958D01*
X175062125Y-123018990D01*
X174772599Y-122961400D01*
X174477401Y-122961400D01*
X174187875Y-123018990D01*
X173915147Y-123131958D01*
X173669698Y-123295961D01*
X173460961Y-123504698D01*
X173355000Y-123663281D01*
X173249039Y-123504698D01*
X173040302Y-123295961D01*
X172794853Y-123131958D01*
X172522125Y-123018990D01*
X172232599Y-122961400D01*
X171937401Y-122961400D01*
X171647875Y-123018990D01*
X171375147Y-123131958D01*
X171129698Y-123295961D01*
X170920961Y-123504698D01*
X170815000Y-123663281D01*
X170709039Y-123504698D01*
X170500302Y-123295961D01*
X170254853Y-123131958D01*
X169982125Y-123018990D01*
X169692599Y-122961400D01*
X169397401Y-122961400D01*
X169107875Y-123018990D01*
X168835147Y-123131958D01*
X168589698Y-123295961D01*
X168380961Y-123504698D01*
X168275000Y-123663281D01*
X168169039Y-123504698D01*
X167960302Y-123295961D01*
X167714853Y-123131958D01*
X167442125Y-123018990D01*
X167152599Y-122961400D01*
X166857401Y-122961400D01*
X166567875Y-123018990D01*
X166295147Y-123131958D01*
X166049698Y-123295961D01*
X165840961Y-123504698D01*
X165676958Y-123750147D01*
X165563990Y-124022875D01*
X165506400Y-124312401D01*
X163423600Y-124312401D01*
X163366010Y-124022875D01*
X163253042Y-123750147D01*
X163089039Y-123504698D01*
X162880302Y-123295961D01*
X162634853Y-123131958D01*
X162362125Y-123018990D01*
X162072599Y-122961400D01*
X161777401Y-122961400D01*
X161487875Y-123018990D01*
X161215147Y-123131958D01*
X160969698Y-123295961D01*
X160760961Y-123504698D01*
X160655000Y-123663281D01*
X160549039Y-123504698D01*
X160340302Y-123295961D01*
X160094853Y-123131958D01*
X159822125Y-123018990D01*
X159532599Y-122961400D01*
X159237401Y-122961400D01*
X158947875Y-123018990D01*
X158675147Y-123131958D01*
X158429698Y-123295961D01*
X158220961Y-123504698D01*
X158115000Y-123663281D01*
X158009039Y-123504698D01*
X157800302Y-123295961D01*
X157554853Y-123131958D01*
X157282125Y-123018990D01*
X156992599Y-122961400D01*
X156697401Y-122961400D01*
X156407875Y-123018990D01*
X156135147Y-123131958D01*
X155889698Y-123295961D01*
X155680961Y-123504698D01*
X155516958Y-123750147D01*
X155403990Y-124022875D01*
X155346400Y-124312401D01*
X153263600Y-124312401D01*
X153206010Y-124022875D01*
X153093042Y-123750147D01*
X152929039Y-123504698D01*
X152720302Y-123295961D01*
X152474853Y-123131958D01*
X152202125Y-123018990D01*
X151912599Y-122961400D01*
X151617401Y-122961400D01*
X151327875Y-123018990D01*
X151055147Y-123131958D01*
X150809698Y-123295961D01*
X150600961Y-123504698D01*
X150495000Y-123663281D01*
X150389039Y-123504698D01*
X150180302Y-123295961D01*
X149934853Y-123131958D01*
X149662125Y-123018990D01*
X149372599Y-122961400D01*
X149077401Y-122961400D01*
X148787875Y-123018990D01*
X148515147Y-123131958D01*
X148269698Y-123295961D01*
X148060961Y-123504698D01*
X147955000Y-123663281D01*
X147849039Y-123504698D01*
X147640302Y-123295961D01*
X147394853Y-123131958D01*
X147122125Y-123018990D01*
X146832599Y-122961400D01*
X146537401Y-122961400D01*
X146247875Y-123018990D01*
X145975147Y-123131958D01*
X145729698Y-123295961D01*
X145520961Y-123504698D01*
X145415000Y-123663281D01*
X145309039Y-123504698D01*
X145100302Y-123295961D01*
X144854853Y-123131958D01*
X144582125Y-123018990D01*
X144292599Y-122961400D01*
X143997401Y-122961400D01*
X143707875Y-123018990D01*
X143435147Y-123131958D01*
X143189698Y-123295961D01*
X142980961Y-123504698D01*
X142816958Y-123750147D01*
X142703990Y-124022875D01*
X142646400Y-124312401D01*
X132410000Y-124312401D01*
X132410000Y-124239872D01*
X132324110Y-123808075D01*
X132155631Y-123401331D01*
X131911038Y-123035271D01*
X131599729Y-122723962D01*
X131233669Y-122479369D01*
X130826925Y-122310890D01*
X130395128Y-122225000D01*
X129954872Y-122225000D01*
X129523075Y-122310890D01*
X129116331Y-122479369D01*
X128750271Y-122723962D01*
X128438962Y-123035271D01*
X128194369Y-123401331D01*
X128025890Y-123808075D01*
X127940000Y-124239872D01*
X127940000Y-124680128D01*
X128025890Y-125111925D01*
X128194369Y-125518669D01*
X128438962Y-125884729D01*
X128750271Y-126196038D01*
X128965726Y-126340000D01*
X104165000Y-126340000D01*
X104165000Y-125762408D01*
X104168192Y-125729999D01*
X104165000Y-125697590D01*
X104165000Y-125697581D01*
X104155450Y-125600617D01*
X104117710Y-125476207D01*
X104056425Y-125361550D01*
X104027364Y-125326139D01*
X103994613Y-125286232D01*
X103994612Y-125286231D01*
X103973948Y-125261052D01*
X103948769Y-125240388D01*
X101625000Y-122916620D01*
X101625000Y-106685363D01*
X115510000Y-106685363D01*
X115510000Y-106928637D01*
X115557460Y-107167236D01*
X115650557Y-107391992D01*
X115785713Y-107594267D01*
X115957733Y-107766287D01*
X116160008Y-107901443D01*
X116384764Y-107994540D01*
X116623363Y-108042000D01*
X116866637Y-108042000D01*
X117105236Y-107994540D01*
X117329992Y-107901443D01*
X117532267Y-107766287D01*
X117704287Y-107594267D01*
X117839443Y-107391992D01*
X117932540Y-107167236D01*
X117980000Y-106928637D01*
X117980000Y-106685363D01*
X117932540Y-106446764D01*
X117839443Y-106222008D01*
X117704287Y-106019733D01*
X117532267Y-105847713D01*
X117329992Y-105712557D01*
X117105236Y-105619460D01*
X116866637Y-105572000D01*
X116623363Y-105572000D01*
X116384764Y-105619460D01*
X116160008Y-105712557D01*
X115957733Y-105847713D01*
X115785713Y-106019733D01*
X115650557Y-106222008D01*
X115557460Y-106446764D01*
X115510000Y-106685363D01*
X101625000Y-106685363D01*
X101625000Y-102723740D01*
X119800000Y-102723740D01*
X119800000Y-103016260D01*
X119857068Y-103303158D01*
X119969010Y-103573411D01*
X120131525Y-103816632D01*
X120338368Y-104023475D01*
X120581589Y-104185990D01*
X120851842Y-104297932D01*
X121138740Y-104355000D01*
X121431260Y-104355000D01*
X121718158Y-104297932D01*
X121988411Y-104185990D01*
X122231632Y-104023475D01*
X122438475Y-103816632D01*
X122555000Y-103642240D01*
X122671525Y-103816632D01*
X122878368Y-104023475D01*
X123121589Y-104185990D01*
X123391842Y-104297932D01*
X123678740Y-104355000D01*
X123971260Y-104355000D01*
X124258158Y-104297932D01*
X124528411Y-104185990D01*
X124771632Y-104023475D01*
X124978475Y-103816632D01*
X125095000Y-103642240D01*
X125211525Y-103816632D01*
X125418368Y-104023475D01*
X125661589Y-104185990D01*
X125931842Y-104297932D01*
X126218740Y-104355000D01*
X126511260Y-104355000D01*
X126798158Y-104297932D01*
X127068411Y-104185990D01*
X127311632Y-104023475D01*
X127518475Y-103816632D01*
X127635000Y-103642240D01*
X127751525Y-103816632D01*
X127958368Y-104023475D01*
X128201589Y-104185990D01*
X128471842Y-104297932D01*
X128758740Y-104355000D01*
X129051260Y-104355000D01*
X129338158Y-104297932D01*
X129608411Y-104185990D01*
X129851632Y-104023475D01*
X130058475Y-103816632D01*
X130175000Y-103642240D01*
X130291525Y-103816632D01*
X130498368Y-104023475D01*
X130741589Y-104185990D01*
X131011842Y-104297932D01*
X131298740Y-104355000D01*
X131591260Y-104355000D01*
X131878158Y-104297932D01*
X132148411Y-104185990D01*
X132391632Y-104023475D01*
X132598475Y-103816632D01*
X132715000Y-103642240D01*
X132831525Y-103816632D01*
X133038368Y-104023475D01*
X133281589Y-104185990D01*
X133551842Y-104297932D01*
X133838740Y-104355000D01*
X134131260Y-104355000D01*
X134418158Y-104297932D01*
X134688411Y-104185990D01*
X134931632Y-104023475D01*
X135138475Y-103816632D01*
X135255000Y-103642240D01*
X135371525Y-103816632D01*
X135578368Y-104023475D01*
X135821589Y-104185990D01*
X136091842Y-104297932D01*
X136378740Y-104355000D01*
X136671260Y-104355000D01*
X136958158Y-104297932D01*
X137228411Y-104185990D01*
X137471632Y-104023475D01*
X137678475Y-103816632D01*
X137795000Y-103642240D01*
X137911525Y-103816632D01*
X138118368Y-104023475D01*
X138361589Y-104185990D01*
X138631842Y-104297932D01*
X138918740Y-104355000D01*
X139211260Y-104355000D01*
X139498158Y-104297932D01*
X139768411Y-104185990D01*
X140011632Y-104023475D01*
X140218475Y-103816632D01*
X140335000Y-103642240D01*
X140451525Y-103816632D01*
X140658368Y-104023475D01*
X140901589Y-104185990D01*
X141171842Y-104297932D01*
X141458740Y-104355000D01*
X141751260Y-104355000D01*
X142038158Y-104297932D01*
X142308411Y-104185990D01*
X142551632Y-104023475D01*
X142758475Y-103816632D01*
X142875000Y-103642240D01*
X142991525Y-103816632D01*
X143198368Y-104023475D01*
X143441589Y-104185990D01*
X143711842Y-104297932D01*
X143998740Y-104355000D01*
X144291260Y-104355000D01*
X144578158Y-104297932D01*
X144848411Y-104185990D01*
X145091632Y-104023475D01*
X145298475Y-103816632D01*
X145415000Y-103642240D01*
X145531525Y-103816632D01*
X145738368Y-104023475D01*
X145981589Y-104185990D01*
X146251842Y-104297932D01*
X146538740Y-104355000D01*
X146831260Y-104355000D01*
X147118158Y-104297932D01*
X147388411Y-104185990D01*
X147631632Y-104023475D01*
X147838475Y-103816632D01*
X147955000Y-103642240D01*
X148071525Y-103816632D01*
X148278368Y-104023475D01*
X148521589Y-104185990D01*
X148791842Y-104297932D01*
X149078740Y-104355000D01*
X149371260Y-104355000D01*
X149658158Y-104297932D01*
X149928411Y-104185990D01*
X150171632Y-104023475D01*
X150378475Y-103816632D01*
X150495000Y-103642240D01*
X150611525Y-103816632D01*
X150818368Y-104023475D01*
X151061589Y-104185990D01*
X151331842Y-104297932D01*
X151618740Y-104355000D01*
X151911260Y-104355000D01*
X152198158Y-104297932D01*
X152468411Y-104185990D01*
X152711632Y-104023475D01*
X152918475Y-103816632D01*
X153035000Y-103642240D01*
X153151525Y-103816632D01*
X153358368Y-104023475D01*
X153601589Y-104185990D01*
X153871842Y-104297932D01*
X154158740Y-104355000D01*
X154451260Y-104355000D01*
X154738158Y-104297932D01*
X155008411Y-104185990D01*
X155251632Y-104023475D01*
X155458475Y-103816632D01*
X155575000Y-103642240D01*
X155691525Y-103816632D01*
X155898368Y-104023475D01*
X156141589Y-104185990D01*
X156411842Y-104297932D01*
X156698740Y-104355000D01*
X156991260Y-104355000D01*
X157278158Y-104297932D01*
X157548411Y-104185990D01*
X157791632Y-104023475D01*
X157998475Y-103816632D01*
X158115000Y-103642240D01*
X158231525Y-103816632D01*
X158438368Y-104023475D01*
X158681589Y-104185990D01*
X158951842Y-104297932D01*
X159238740Y-104355000D01*
X159531260Y-104355000D01*
X159818158Y-104297932D01*
X160088411Y-104185990D01*
X160331632Y-104023475D01*
X160538475Y-103816632D01*
X160655000Y-103642240D01*
X160771525Y-103816632D01*
X160978368Y-104023475D01*
X161221589Y-104185990D01*
X161491842Y-104297932D01*
X161778740Y-104355000D01*
X162071260Y-104355000D01*
X162358158Y-104297932D01*
X162628411Y-104185990D01*
X162871632Y-104023475D01*
X163078475Y-103816632D01*
X163195000Y-103642240D01*
X163311525Y-103816632D01*
X163518368Y-104023475D01*
X163761589Y-104185990D01*
X164031842Y-104297932D01*
X164318740Y-104355000D01*
X164611260Y-104355000D01*
X164898158Y-104297932D01*
X165168411Y-104185990D01*
X165411632Y-104023475D01*
X165618475Y-103816632D01*
X165735000Y-103642240D01*
X165851525Y-103816632D01*
X166058368Y-104023475D01*
X166301589Y-104185990D01*
X166571842Y-104297932D01*
X166858740Y-104355000D01*
X167151260Y-104355000D01*
X167438158Y-104297932D01*
X167708411Y-104185990D01*
X167951632Y-104023475D01*
X168158475Y-103816632D01*
X168275000Y-103642240D01*
X168391525Y-103816632D01*
X168598368Y-104023475D01*
X168841589Y-104185990D01*
X169111842Y-104297932D01*
X169398740Y-104355000D01*
X169691260Y-104355000D01*
X169978158Y-104297932D01*
X170248411Y-104185990D01*
X170491632Y-104023475D01*
X170698475Y-103816632D01*
X170815000Y-103642240D01*
X170931525Y-103816632D01*
X170950000Y-103835107D01*
X170950001Y-109926239D01*
X170950000Y-109926249D01*
X170950001Y-114330352D01*
X170966424Y-114497099D01*
X171031325Y-114711047D01*
X171136717Y-114908223D01*
X171278552Y-115081049D01*
X171451378Y-115222884D01*
X171648554Y-115328276D01*
X171862502Y-115393177D01*
X172085000Y-115415091D01*
X172307499Y-115393177D01*
X172521447Y-115328276D01*
X172718623Y-115222884D01*
X172891449Y-115081049D01*
X173033284Y-114908223D01*
X173138676Y-114711047D01*
X173203577Y-114497099D01*
X173220000Y-114330352D01*
X173220000Y-110867000D01*
X194329523Y-110867000D01*
X194373000Y-110871282D01*
X194416476Y-110867000D01*
X194416477Y-110867000D01*
X194546490Y-110854195D01*
X194713313Y-110803589D01*
X194867059Y-110721411D01*
X195001817Y-110610817D01*
X195112411Y-110476059D01*
X195194589Y-110322313D01*
X195245195Y-110155490D01*
X195262282Y-109982000D01*
X195258000Y-109938523D01*
X195258000Y-107573554D01*
X195364287Y-107467267D01*
X195499443Y-107264992D01*
X195592540Y-107040236D01*
X195640000Y-106801637D01*
X195640000Y-106558363D01*
X195592540Y-106319764D01*
X195499443Y-106095008D01*
X195364287Y-105892733D01*
X195192267Y-105720713D01*
X194989992Y-105585557D01*
X194765236Y-105492460D01*
X194526637Y-105445000D01*
X194283363Y-105445000D01*
X194044764Y-105492460D01*
X193820008Y-105585557D01*
X193617733Y-105720713D01*
X193445713Y-105892733D01*
X193310557Y-106095008D01*
X193217460Y-106319764D01*
X193170000Y-106558363D01*
X193170000Y-106801637D01*
X193217460Y-107040236D01*
X193310557Y-107264992D01*
X193445713Y-107467267D01*
X193488001Y-107509555D01*
X193488000Y-109097000D01*
X173220000Y-109097000D01*
X173220000Y-103835107D01*
X173238475Y-103816632D01*
X173355000Y-103642240D01*
X173471525Y-103816632D01*
X173678368Y-104023475D01*
X173921589Y-104185990D01*
X174191842Y-104297932D01*
X174478740Y-104355000D01*
X174771260Y-104355000D01*
X175058158Y-104297932D01*
X175328411Y-104185990D01*
X175571632Y-104023475D01*
X175778475Y-103816632D01*
X175895000Y-103642240D01*
X176011525Y-103816632D01*
X176218368Y-104023475D01*
X176461589Y-104185990D01*
X176731842Y-104297932D01*
X177018740Y-104355000D01*
X177311260Y-104355000D01*
X177598158Y-104297932D01*
X177868411Y-104185990D01*
X178111632Y-104023475D01*
X178318475Y-103816632D01*
X178435000Y-103642240D01*
X178551525Y-103816632D01*
X178758368Y-104023475D01*
X179001589Y-104185990D01*
X179271842Y-104297932D01*
X179558740Y-104355000D01*
X179851260Y-104355000D01*
X180138158Y-104297932D01*
X180408411Y-104185990D01*
X180651632Y-104023475D01*
X180858475Y-103816632D01*
X180975000Y-103642240D01*
X181091525Y-103816632D01*
X181298368Y-104023475D01*
X181541589Y-104185990D01*
X181811842Y-104297932D01*
X182098740Y-104355000D01*
X182391260Y-104355000D01*
X182678158Y-104297932D01*
X182948411Y-104185990D01*
X183191632Y-104023475D01*
X183398475Y-103816632D01*
X183515000Y-103642240D01*
X183631525Y-103816632D01*
X183838368Y-104023475D01*
X184081589Y-104185990D01*
X184351842Y-104297932D01*
X184638740Y-104355000D01*
X184931260Y-104355000D01*
X185218158Y-104297932D01*
X185488411Y-104185990D01*
X185731632Y-104023475D01*
X185938475Y-103816632D01*
X186055000Y-103642240D01*
X186171525Y-103816632D01*
X186378368Y-104023475D01*
X186621589Y-104185990D01*
X186891842Y-104297932D01*
X187178740Y-104355000D01*
X187471260Y-104355000D01*
X187758158Y-104297932D01*
X188028411Y-104185990D01*
X188271632Y-104023475D01*
X188478475Y-103816632D01*
X188595000Y-103642240D01*
X188711525Y-103816632D01*
X188918368Y-104023475D01*
X189161589Y-104185990D01*
X189431842Y-104297932D01*
X189718740Y-104355000D01*
X190011260Y-104355000D01*
X190298158Y-104297932D01*
X190568411Y-104185990D01*
X190811632Y-104023475D01*
X191018475Y-103816632D01*
X191180990Y-103573411D01*
X191292932Y-103303158D01*
X191350000Y-103016260D01*
X191350000Y-102723740D01*
X191292932Y-102436842D01*
X191180990Y-102166589D01*
X191018475Y-101923368D01*
X190811632Y-101716525D01*
X190568411Y-101554010D01*
X190481496Y-101518009D01*
X190496649Y-101511732D01*
X190715057Y-101365797D01*
X190900797Y-101180057D01*
X191046732Y-100961649D01*
X191147254Y-100718968D01*
X191198500Y-100461338D01*
X191198500Y-100198662D01*
X191182328Y-100117357D01*
X200406000Y-100117357D01*
X200406000Y-100542643D01*
X200488970Y-100959757D01*
X200651719Y-101352670D01*
X200887996Y-101706282D01*
X201188718Y-102007004D01*
X201542330Y-102243281D01*
X201935243Y-102406030D01*
X202352357Y-102489000D01*
X202777643Y-102489000D01*
X203194757Y-102406030D01*
X203587670Y-102243281D01*
X203941282Y-102007004D01*
X204242004Y-101706282D01*
X204478281Y-101352670D01*
X204641030Y-100959757D01*
X204724000Y-100542643D01*
X204724000Y-100117357D01*
X204641030Y-99700243D01*
X204478281Y-99307330D01*
X204242004Y-98953718D01*
X203941282Y-98652996D01*
X203587670Y-98416719D01*
X203194757Y-98253970D01*
X202777643Y-98171000D01*
X202352357Y-98171000D01*
X201935243Y-98253970D01*
X201542330Y-98416719D01*
X201188718Y-98652996D01*
X200887996Y-98953718D01*
X200651719Y-99307330D01*
X200488970Y-99700243D01*
X200406000Y-100117357D01*
X191182328Y-100117357D01*
X191147254Y-99941032D01*
X191046732Y-99698351D01*
X190900797Y-99479943D01*
X190715057Y-99294203D01*
X190625000Y-99234029D01*
X190625000Y-94040238D01*
X190639482Y-94038812D01*
X190759180Y-94002502D01*
X190869494Y-93943537D01*
X190966185Y-93864185D01*
X191045537Y-93767494D01*
X191104502Y-93657180D01*
X191140812Y-93537482D01*
X191153072Y-93413000D01*
X191153072Y-91913000D01*
X191140812Y-91788518D01*
X191104502Y-91668820D01*
X191045537Y-91558506D01*
X190966185Y-91461815D01*
X190869494Y-91382463D01*
X190759180Y-91323498D01*
X190724573Y-91313000D01*
X190759180Y-91302502D01*
X190869494Y-91243537D01*
X190966185Y-91164185D01*
X191045537Y-91067494D01*
X191104502Y-90957180D01*
X191140812Y-90837482D01*
X191153072Y-90713000D01*
X191153072Y-89213000D01*
X191140812Y-89088518D01*
X191104502Y-88968820D01*
X191045537Y-88858506D01*
X190966185Y-88761815D01*
X190869494Y-88682463D01*
X190759180Y-88623498D01*
X190639482Y-88587188D01*
X190625000Y-88585762D01*
X190625000Y-86547238D01*
X190639482Y-86545812D01*
X190759180Y-86509502D01*
X190869494Y-86450537D01*
X190966185Y-86371185D01*
X191045537Y-86274494D01*
X191104502Y-86164180D01*
X191140812Y-86044482D01*
X191153072Y-85920000D01*
X191153072Y-84420000D01*
X191140812Y-84295518D01*
X191104502Y-84175820D01*
X191045537Y-84065506D01*
X190966185Y-83968815D01*
X190869494Y-83889463D01*
X190759180Y-83830498D01*
X190724573Y-83820000D01*
X190759180Y-83809502D01*
X190869494Y-83750537D01*
X190966185Y-83671185D01*
X191045537Y-83574494D01*
X191104502Y-83464180D01*
X191140812Y-83344482D01*
X191153072Y-83220000D01*
X191153072Y-81720000D01*
X191140812Y-81595518D01*
X191104502Y-81475820D01*
X191045537Y-81365506D01*
X190966185Y-81268815D01*
X190869494Y-81189463D01*
X190759180Y-81130498D01*
X190639482Y-81094188D01*
X190625000Y-81092762D01*
X190625000Y-80727569D01*
X190671449Y-80689449D01*
X190813284Y-80516623D01*
X190918676Y-80319447D01*
X190983577Y-80105499D01*
X191005491Y-79883000D01*
X190983577Y-79660501D01*
X190918676Y-79446553D01*
X190813284Y-79249377D01*
X190671449Y-79076551D01*
X190498623Y-78934716D01*
X190301447Y-78829324D01*
X190087499Y-78764423D01*
X189920752Y-78748000D01*
X171886751Y-78748000D01*
X171831000Y-78742509D01*
X171775249Y-78748000D01*
X138866751Y-78748000D01*
X138811000Y-78742509D01*
X138755249Y-78748000D01*
X121102248Y-78748000D01*
X120935501Y-78764423D01*
X120721553Y-78829324D01*
X120524377Y-78934716D01*
X120351551Y-79076551D01*
X120209716Y-79249377D01*
X120104324Y-79446553D01*
X120039423Y-79660501D01*
X120017509Y-79883000D01*
X120039423Y-80105499D01*
X120104324Y-80319447D01*
X120209716Y-80516623D01*
X120351551Y-80689449D01*
X120524377Y-80831284D01*
X120525001Y-80831617D01*
X120525001Y-81139762D01*
X120510518Y-81141188D01*
X120390820Y-81177498D01*
X120280506Y-81236463D01*
X120183815Y-81315815D01*
X120104463Y-81412506D01*
X120045498Y-81522820D01*
X120009188Y-81642518D01*
X119996928Y-81767000D01*
X119996928Y-83267000D01*
X120009188Y-83391482D01*
X120045498Y-83511180D01*
X120104463Y-83621494D01*
X120183815Y-83718185D01*
X120280506Y-83797537D01*
X120390820Y-83856502D01*
X120425427Y-83867000D01*
X120390820Y-83877498D01*
X120280506Y-83936463D01*
X120183815Y-84015815D01*
X120104463Y-84112506D01*
X120045498Y-84222820D01*
X120009188Y-84342518D01*
X119996928Y-84467000D01*
X119996928Y-85967000D01*
X120009188Y-86091482D01*
X120045498Y-86211180D01*
X120104463Y-86321494D01*
X120183815Y-86418185D01*
X120280506Y-86497537D01*
X120390820Y-86556502D01*
X120510518Y-86592812D01*
X120525000Y-86594238D01*
X120525001Y-88585762D01*
X120510518Y-88587188D01*
X120390820Y-88623498D01*
X120280506Y-88682463D01*
X120183815Y-88761815D01*
X120104463Y-88858506D01*
X120045498Y-88968820D01*
X120009188Y-89088518D01*
X119996928Y-89213000D01*
X119996928Y-90713000D01*
X120009188Y-90837482D01*
X120045498Y-90957180D01*
X120104463Y-91067494D01*
X120183815Y-91164185D01*
X120280506Y-91243537D01*
X120390820Y-91302502D01*
X120425427Y-91313000D01*
X120390820Y-91323498D01*
X120280506Y-91382463D01*
X120183815Y-91461815D01*
X120104463Y-91558506D01*
X120045498Y-91668820D01*
X120009188Y-91788518D01*
X119996928Y-91913000D01*
X119996928Y-93413000D01*
X120009188Y-93537482D01*
X120045498Y-93657180D01*
X120104463Y-93767494D01*
X120183815Y-93864185D01*
X120280506Y-93943537D01*
X120390820Y-94002502D01*
X120510518Y-94038812D01*
X120525001Y-94040238D01*
X120525000Y-99234029D01*
X120434943Y-99294203D01*
X120249203Y-99479943D01*
X120103268Y-99698351D01*
X120002746Y-99941032D01*
X119951500Y-100198662D01*
X119951500Y-100461338D01*
X120002746Y-100718968D01*
X120103268Y-100961649D01*
X120249203Y-101180057D01*
X120434943Y-101365797D01*
X120653351Y-101511732D01*
X120668504Y-101518009D01*
X120581589Y-101554010D01*
X120338368Y-101716525D01*
X120131525Y-101923368D01*
X119969010Y-102166589D01*
X119857068Y-102436842D01*
X119800000Y-102723740D01*
X101625000Y-102723740D01*
X101625000Y-100117357D01*
X106426000Y-100117357D01*
X106426000Y-100542643D01*
X106508970Y-100959757D01*
X106671719Y-101352670D01*
X106907996Y-101706282D01*
X107208718Y-102007004D01*
X107562330Y-102243281D01*
X107955243Y-102406030D01*
X108372357Y-102489000D01*
X108797643Y-102489000D01*
X109214757Y-102406030D01*
X109607670Y-102243281D01*
X109961282Y-102007004D01*
X110262004Y-101706282D01*
X110498281Y-101352670D01*
X110661030Y-100959757D01*
X110744000Y-100542643D01*
X110744000Y-100117357D01*
X110661030Y-99700243D01*
X110498281Y-99307330D01*
X110262004Y-98953718D01*
X109961282Y-98652996D01*
X109607670Y-98416719D01*
X109214757Y-98253970D01*
X108797643Y-98171000D01*
X108372357Y-98171000D01*
X107955243Y-98253970D01*
X107562330Y-98416719D01*
X107208718Y-98652996D01*
X106907996Y-98953718D01*
X106671719Y-99307330D01*
X106508970Y-99700243D01*
X106426000Y-100117357D01*
X101625000Y-100117357D01*
X101625000Y-89173380D01*
X103948770Y-86849611D01*
X103973948Y-86828948D01*
X103994615Y-86803766D01*
X104056424Y-86728451D01*
X104056425Y-86728450D01*
X104117710Y-86613793D01*
X104155450Y-86489383D01*
X104165000Y-86392419D01*
X104165000Y-86392410D01*
X104168192Y-86360001D01*
X104165000Y-86327592D01*
X104165000Y-76688740D01*
X106465000Y-76688740D01*
X106465000Y-76981260D01*
X106522068Y-77268158D01*
X106634010Y-77538411D01*
X106796525Y-77781632D01*
X107003368Y-77988475D01*
X107177760Y-78105000D01*
X107003368Y-78221525D01*
X106796525Y-78428368D01*
X106634010Y-78671589D01*
X106522068Y-78941842D01*
X106465000Y-79228740D01*
X106465000Y-79521260D01*
X106522068Y-79808158D01*
X106634010Y-80078411D01*
X106796525Y-80321632D01*
X107003368Y-80528475D01*
X107177760Y-80645000D01*
X107003368Y-80761525D01*
X106796525Y-80968368D01*
X106634010Y-81211589D01*
X106522068Y-81481842D01*
X106465000Y-81768740D01*
X106465000Y-82061260D01*
X106522068Y-82348158D01*
X106634010Y-82618411D01*
X106796525Y-82861632D01*
X107003368Y-83068475D01*
X107246589Y-83230990D01*
X107516842Y-83342932D01*
X107803740Y-83400000D01*
X108096260Y-83400000D01*
X108383158Y-83342932D01*
X108653411Y-83230990D01*
X108896632Y-83068475D01*
X109103475Y-82861632D01*
X109265990Y-82618411D01*
X109377932Y-82348158D01*
X109435000Y-82061260D01*
X109435000Y-81768740D01*
X109377932Y-81481842D01*
X109265990Y-81211589D01*
X109103475Y-80968368D01*
X108896632Y-80761525D01*
X108722240Y-80645000D01*
X108896632Y-80528475D01*
X109103475Y-80321632D01*
X109265990Y-80078411D01*
X109377932Y-79808158D01*
X109435000Y-79521260D01*
X109435000Y-79228740D01*
X109377932Y-78941842D01*
X109265990Y-78671589D01*
X109213079Y-78592401D01*
X208686400Y-78592401D01*
X208686400Y-78887599D01*
X208743990Y-79177125D01*
X208856958Y-79449853D01*
X209020961Y-79695302D01*
X209229698Y-79904039D01*
X209388281Y-80010000D01*
X209229698Y-80115961D01*
X209020961Y-80324698D01*
X208856958Y-80570147D01*
X208743990Y-80842875D01*
X208686400Y-81132401D01*
X208686400Y-81427599D01*
X208743990Y-81717125D01*
X208856958Y-81989853D01*
X209020961Y-82235302D01*
X209229698Y-82444039D01*
X209388281Y-82550000D01*
X209229698Y-82655961D01*
X209020961Y-82864698D01*
X208856958Y-83110147D01*
X208743990Y-83382875D01*
X208686400Y-83672401D01*
X208686400Y-83967599D01*
X208743990Y-84257125D01*
X208856958Y-84529853D01*
X209020961Y-84775302D01*
X209229698Y-84984039D01*
X209388281Y-85090000D01*
X209229698Y-85195961D01*
X209020961Y-85404698D01*
X208856958Y-85650147D01*
X208743990Y-85922875D01*
X208686400Y-86212401D01*
X208686400Y-86507599D01*
X208743990Y-86797125D01*
X208856958Y-87069853D01*
X209020961Y-87315302D01*
X209229698Y-87524039D01*
X209388281Y-87630000D01*
X209229698Y-87735961D01*
X209020961Y-87944698D01*
X208856958Y-88190147D01*
X208743990Y-88462875D01*
X208686400Y-88752401D01*
X208686400Y-89047599D01*
X208743990Y-89337125D01*
X208856958Y-89609853D01*
X209020961Y-89855302D01*
X209229698Y-90064039D01*
X209388281Y-90170000D01*
X209229698Y-90275961D01*
X209020961Y-90484698D01*
X208856958Y-90730147D01*
X208743990Y-91002875D01*
X208686400Y-91292401D01*
X208686400Y-91587599D01*
X208743990Y-91877125D01*
X208856958Y-92149853D01*
X209020961Y-92395302D01*
X209229698Y-92604039D01*
X209388281Y-92710000D01*
X209229698Y-92815961D01*
X209020961Y-93024698D01*
X208856958Y-93270147D01*
X208743990Y-93542875D01*
X208686400Y-93832401D01*
X208686400Y-94127599D01*
X208743990Y-94417125D01*
X208856958Y-94689853D01*
X209020961Y-94935302D01*
X209229698Y-95144039D01*
X209388281Y-95250000D01*
X209229698Y-95355961D01*
X209020961Y-95564698D01*
X208856958Y-95810147D01*
X208743990Y-96082875D01*
X208686400Y-96372401D01*
X208686400Y-96667599D01*
X208743990Y-96957125D01*
X208856958Y-97229853D01*
X209020961Y-97475302D01*
X209229698Y-97684039D01*
X209388281Y-97790000D01*
X209229698Y-97895961D01*
X209020961Y-98104698D01*
X208856958Y-98350147D01*
X208743990Y-98622875D01*
X208686400Y-98912401D01*
X208686400Y-99207599D01*
X208743990Y-99497125D01*
X208856958Y-99769853D01*
X209020961Y-100015302D01*
X209229698Y-100224039D01*
X209388281Y-100330000D01*
X209229698Y-100435961D01*
X209020961Y-100644698D01*
X208856958Y-100890147D01*
X208743990Y-101162875D01*
X208686400Y-101452401D01*
X208686400Y-101747599D01*
X208743990Y-102037125D01*
X208856958Y-102309853D01*
X209020961Y-102555302D01*
X209229698Y-102764039D01*
X209388281Y-102870000D01*
X209229698Y-102975961D01*
X209020961Y-103184698D01*
X208856958Y-103430147D01*
X208743990Y-103702875D01*
X208686400Y-103992401D01*
X208686400Y-104287599D01*
X208743990Y-104577125D01*
X208856958Y-104849853D01*
X209020961Y-105095302D01*
X209229698Y-105304039D01*
X209388281Y-105410000D01*
X209229698Y-105515961D01*
X209020961Y-105724698D01*
X208856958Y-105970147D01*
X208743990Y-106242875D01*
X208686400Y-106532401D01*
X208686400Y-106827599D01*
X208743990Y-107117125D01*
X208856958Y-107389853D01*
X209020961Y-107635302D01*
X209229698Y-107844039D01*
X209388281Y-107950000D01*
X209229698Y-108055961D01*
X209020961Y-108264698D01*
X208856958Y-108510147D01*
X208743990Y-108782875D01*
X208686400Y-109072401D01*
X208686400Y-109367599D01*
X208743990Y-109657125D01*
X208856958Y-109929853D01*
X209020961Y-110175302D01*
X209229698Y-110384039D01*
X209388281Y-110490000D01*
X209229698Y-110595961D01*
X209020961Y-110804698D01*
X208856958Y-111050147D01*
X208743990Y-111322875D01*
X208686400Y-111612401D01*
X208686400Y-111907599D01*
X208743990Y-112197125D01*
X208856958Y-112469853D01*
X209020961Y-112715302D01*
X209229698Y-112924039D01*
X209388281Y-113030000D01*
X209229698Y-113135961D01*
X209020961Y-113344698D01*
X208856958Y-113590147D01*
X208743990Y-113862875D01*
X208686400Y-114152401D01*
X208686400Y-114447599D01*
X208743990Y-114737125D01*
X208856958Y-115009853D01*
X209020961Y-115255302D01*
X209229698Y-115464039D01*
X209388281Y-115570000D01*
X209229698Y-115675961D01*
X209020961Y-115884698D01*
X208856958Y-116130147D01*
X208743990Y-116402875D01*
X208686400Y-116692401D01*
X208686400Y-116987599D01*
X208743990Y-117277125D01*
X208856958Y-117549853D01*
X209020961Y-117795302D01*
X209229698Y-118004039D01*
X209388281Y-118110000D01*
X209229698Y-118215961D01*
X209020961Y-118424698D01*
X208856958Y-118670147D01*
X208743990Y-118942875D01*
X208686400Y-119232401D01*
X208686400Y-119527599D01*
X208743990Y-119817125D01*
X208856958Y-120089853D01*
X209020961Y-120335302D01*
X209229698Y-120544039D01*
X209475147Y-120708042D01*
X209747875Y-120821010D01*
X210037401Y-120878600D01*
X210332599Y-120878600D01*
X210622125Y-120821010D01*
X210894853Y-120708042D01*
X211140302Y-120544039D01*
X211349039Y-120335302D01*
X211455000Y-120176719D01*
X211560961Y-120335302D01*
X211769698Y-120544039D01*
X212015147Y-120708042D01*
X212287875Y-120821010D01*
X212577401Y-120878600D01*
X212872599Y-120878600D01*
X213162125Y-120821010D01*
X213434853Y-120708042D01*
X213680302Y-120544039D01*
X213889039Y-120335302D01*
X214053042Y-120089853D01*
X214166010Y-119817125D01*
X214223600Y-119527599D01*
X214223600Y-119232401D01*
X214166010Y-118942875D01*
X214053042Y-118670147D01*
X213889039Y-118424698D01*
X213680302Y-118215961D01*
X213521719Y-118110000D01*
X213680302Y-118004039D01*
X213889039Y-117795302D01*
X214053042Y-117549853D01*
X214166010Y-117277125D01*
X214223600Y-116987599D01*
X214223600Y-116692401D01*
X214166010Y-116402875D01*
X214053042Y-116130147D01*
X213889039Y-115884698D01*
X213680302Y-115675961D01*
X213521719Y-115570000D01*
X213680302Y-115464039D01*
X213889039Y-115255302D01*
X214053042Y-115009853D01*
X214166010Y-114737125D01*
X214223600Y-114447599D01*
X214223600Y-114152401D01*
X214166010Y-113862875D01*
X214053042Y-113590147D01*
X213889039Y-113344698D01*
X213680302Y-113135961D01*
X213521719Y-113030000D01*
X213680302Y-112924039D01*
X213889039Y-112715302D01*
X214053042Y-112469853D01*
X214166010Y-112197125D01*
X214223600Y-111907599D01*
X214223600Y-111612401D01*
X214166010Y-111322875D01*
X214053042Y-111050147D01*
X213889039Y-110804698D01*
X213680302Y-110595961D01*
X213521719Y-110490000D01*
X213680302Y-110384039D01*
X213889039Y-110175302D01*
X214053042Y-109929853D01*
X214166010Y-109657125D01*
X214223600Y-109367599D01*
X214223600Y-109072401D01*
X214166010Y-108782875D01*
X214053042Y-108510147D01*
X213889039Y-108264698D01*
X213680302Y-108055961D01*
X213521719Y-107950000D01*
X213680302Y-107844039D01*
X213889039Y-107635302D01*
X214053042Y-107389853D01*
X214166010Y-107117125D01*
X214223600Y-106827599D01*
X214223600Y-106532401D01*
X214166010Y-106242875D01*
X214053042Y-105970147D01*
X213889039Y-105724698D01*
X213680302Y-105515961D01*
X213521719Y-105410000D01*
X213680302Y-105304039D01*
X213889039Y-105095302D01*
X214053042Y-104849853D01*
X214166010Y-104577125D01*
X214223600Y-104287599D01*
X214223600Y-103992401D01*
X214166010Y-103702875D01*
X214053042Y-103430147D01*
X213889039Y-103184698D01*
X213680302Y-102975961D01*
X213521719Y-102870000D01*
X213680302Y-102764039D01*
X213889039Y-102555302D01*
X214053042Y-102309853D01*
X214166010Y-102037125D01*
X214223600Y-101747599D01*
X214223600Y-101452401D01*
X214166010Y-101162875D01*
X214053042Y-100890147D01*
X213889039Y-100644698D01*
X213680302Y-100435961D01*
X213521719Y-100330000D01*
X213680302Y-100224039D01*
X213889039Y-100015302D01*
X214053042Y-99769853D01*
X214166010Y-99497125D01*
X214223600Y-99207599D01*
X214223600Y-98912401D01*
X214166010Y-98622875D01*
X214053042Y-98350147D01*
X213889039Y-98104698D01*
X213680302Y-97895961D01*
X213521719Y-97790000D01*
X213680302Y-97684039D01*
X213889039Y-97475302D01*
X214053042Y-97229853D01*
X214166010Y-96957125D01*
X214223600Y-96667599D01*
X214223600Y-96372401D01*
X214166010Y-96082875D01*
X214053042Y-95810147D01*
X213889039Y-95564698D01*
X213680302Y-95355961D01*
X213521719Y-95250000D01*
X213680302Y-95144039D01*
X213889039Y-94935302D01*
X214053042Y-94689853D01*
X214166010Y-94417125D01*
X214223600Y-94127599D01*
X214223600Y-93832401D01*
X214166010Y-93542875D01*
X214053042Y-93270147D01*
X213889039Y-93024698D01*
X213680302Y-92815961D01*
X213521719Y-92710000D01*
X213680302Y-92604039D01*
X213889039Y-92395302D01*
X214053042Y-92149853D01*
X214166010Y-91877125D01*
X214223600Y-91587599D01*
X214223600Y-91292401D01*
X214166010Y-91002875D01*
X214053042Y-90730147D01*
X213889039Y-90484698D01*
X213680302Y-90275961D01*
X213521719Y-90170000D01*
X213680302Y-90064039D01*
X213889039Y-89855302D01*
X214053042Y-89609853D01*
X214166010Y-89337125D01*
X214223600Y-89047599D01*
X214223600Y-88752401D01*
X214166010Y-88462875D01*
X214053042Y-88190147D01*
X213889039Y-87944698D01*
X213680302Y-87735961D01*
X213521719Y-87630000D01*
X213680302Y-87524039D01*
X213889039Y-87315302D01*
X214053042Y-87069853D01*
X214166010Y-86797125D01*
X214223600Y-86507599D01*
X214223600Y-86212401D01*
X214166010Y-85922875D01*
X214053042Y-85650147D01*
X213889039Y-85404698D01*
X213680302Y-85195961D01*
X213521719Y-85090000D01*
X213680302Y-84984039D01*
X213889039Y-84775302D01*
X214053042Y-84529853D01*
X214166010Y-84257125D01*
X214223600Y-83967599D01*
X214223600Y-83672401D01*
X214166010Y-83382875D01*
X214053042Y-83110147D01*
X213889039Y-82864698D01*
X213680302Y-82655961D01*
X213521719Y-82550000D01*
X213680302Y-82444039D01*
X213889039Y-82235302D01*
X214053042Y-81989853D01*
X214166010Y-81717125D01*
X214223600Y-81427599D01*
X214223600Y-81132401D01*
X214166010Y-80842875D01*
X214053042Y-80570147D01*
X213889039Y-80324698D01*
X213680302Y-80115961D01*
X213521719Y-80010000D01*
X213680302Y-79904039D01*
X213889039Y-79695302D01*
X214053042Y-79449853D01*
X214166010Y-79177125D01*
X214223600Y-78887599D01*
X214223600Y-78592401D01*
X214166010Y-78302875D01*
X214053042Y-78030147D01*
X213889039Y-77784698D01*
X213680302Y-77575961D01*
X213434853Y-77411958D01*
X213162125Y-77298990D01*
X212872599Y-77241400D01*
X212577401Y-77241400D01*
X212287875Y-77298990D01*
X212015147Y-77411958D01*
X211769698Y-77575961D01*
X211560961Y-77784698D01*
X211455000Y-77943281D01*
X211349039Y-77784698D01*
X211140302Y-77575961D01*
X210894853Y-77411958D01*
X210622125Y-77298990D01*
X210332599Y-77241400D01*
X210037401Y-77241400D01*
X209747875Y-77298990D01*
X209475147Y-77411958D01*
X209229698Y-77575961D01*
X209020961Y-77784698D01*
X208856958Y-78030147D01*
X208743990Y-78302875D01*
X208686400Y-78592401D01*
X109213079Y-78592401D01*
X109103475Y-78428368D01*
X108896632Y-78221525D01*
X108722240Y-78105000D01*
X108896632Y-77988475D01*
X109103475Y-77781632D01*
X109265990Y-77538411D01*
X109377932Y-77268158D01*
X109435000Y-76981260D01*
X109435000Y-76688740D01*
X109377932Y-76401842D01*
X109265990Y-76131589D01*
X109103475Y-75888368D01*
X108896632Y-75681525D01*
X108653411Y-75519010D01*
X108383158Y-75407068D01*
X108096260Y-75350000D01*
X107803740Y-75350000D01*
X107516842Y-75407068D01*
X107246589Y-75519010D01*
X107003368Y-75681525D01*
X106796525Y-75888368D01*
X106634010Y-76131589D01*
X106522068Y-76401842D01*
X106465000Y-76688740D01*
X104165000Y-76688740D01*
X104165000Y-75457380D01*
X105302381Y-74320000D01*
X130235726Y-74320000D01*
X130020271Y-74463962D01*
%TA.AperFunction,Conductor*%
D24*
G36*
X130020271Y-74463962D02*
G01*
X129708962Y-74775271D01*
X129464369Y-75141331D01*
X129295890Y-75548075D01*
X129210000Y-75979872D01*
X129210000Y-76420128D01*
X129295890Y-76851925D01*
X129464369Y-77258669D01*
X129708962Y-77624729D01*
X130020271Y-77936038D01*
X130386331Y-78180631D01*
X130793075Y-78349110D01*
X131224872Y-78435000D01*
X131665128Y-78435000D01*
X132096925Y-78349110D01*
X132503669Y-78180631D01*
X132869729Y-77936038D01*
X133181038Y-77624729D01*
X133425631Y-77258669D01*
X133594110Y-76851925D01*
X133611906Y-76762460D01*
X133672958Y-76909853D01*
X133836961Y-77155302D01*
X134045698Y-77364039D01*
X134291147Y-77528042D01*
X134563875Y-77641010D01*
X134853401Y-77698600D01*
X135148599Y-77698600D01*
X135438125Y-77641010D01*
X135710853Y-77528042D01*
X135956302Y-77364039D01*
X136165039Y-77155302D01*
X136271000Y-76996719D01*
X136376961Y-77155302D01*
X136585698Y-77364039D01*
X136831147Y-77528042D01*
X137103875Y-77641010D01*
X137393401Y-77698600D01*
X137688599Y-77698600D01*
X137978125Y-77641010D01*
X138250853Y-77528042D01*
X138496302Y-77364039D01*
X138705039Y-77155302D01*
X138811000Y-76996719D01*
X138916961Y-77155302D01*
X139125698Y-77364039D01*
X139371147Y-77528042D01*
X139643875Y-77641010D01*
X139933401Y-77698600D01*
X140228599Y-77698600D01*
X140518125Y-77641010D01*
X140790853Y-77528042D01*
X141036302Y-77364039D01*
X141245039Y-77155302D01*
X141351000Y-76996719D01*
X141456961Y-77155302D01*
X141665698Y-77364039D01*
X141911147Y-77528042D01*
X142183875Y-77641010D01*
X142473401Y-77698600D01*
X142768599Y-77698600D01*
X143058125Y-77641010D01*
X143330853Y-77528042D01*
X143576302Y-77364039D01*
X143785039Y-77155302D01*
X143891000Y-76996719D01*
X143996961Y-77155302D01*
X144205698Y-77364039D01*
X144451147Y-77528042D01*
X144723875Y-77641010D01*
X145013401Y-77698600D01*
X145308599Y-77698600D01*
X145598125Y-77641010D01*
X145870853Y-77528042D01*
X146116302Y-77364039D01*
X146325039Y-77155302D01*
X146431000Y-76996719D01*
X146536961Y-77155302D01*
X146745698Y-77364039D01*
X146991147Y-77528042D01*
X147263875Y-77641010D01*
X147553401Y-77698600D01*
X147848599Y-77698600D01*
X148138125Y-77641010D01*
X148410853Y-77528042D01*
X148656302Y-77364039D01*
X148865039Y-77155302D01*
X148971000Y-76996719D01*
X149076961Y-77155302D01*
X149285698Y-77364039D01*
X149531147Y-77528042D01*
X149803875Y-77641010D01*
X150093401Y-77698600D01*
X150388599Y-77698600D01*
X150678125Y-77641010D01*
X150950853Y-77528042D01*
X151196302Y-77364039D01*
X151405039Y-77155302D01*
X151511000Y-76996719D01*
X151616961Y-77155302D01*
X151825698Y-77364039D01*
X152071147Y-77528042D01*
X152343875Y-77641010D01*
X152633401Y-77698600D01*
X152928599Y-77698600D01*
X153218125Y-77641010D01*
X153490853Y-77528042D01*
X153736302Y-77364039D01*
X153945039Y-77155302D01*
X154051000Y-76996719D01*
X154156961Y-77155302D01*
X154365698Y-77364039D01*
X154611147Y-77528042D01*
X154883875Y-77641010D01*
X155173401Y-77698600D01*
X155468599Y-77698600D01*
X155758125Y-77641010D01*
X156030853Y-77528042D01*
X156276302Y-77364039D01*
X156485039Y-77155302D01*
X156591000Y-76996719D01*
X156696961Y-77155302D01*
X156905698Y-77364039D01*
X157151147Y-77528042D01*
X157423875Y-77641010D01*
X157713401Y-77698600D01*
X158008599Y-77698600D01*
X158298125Y-77641010D01*
X158570853Y-77528042D01*
X158816302Y-77364039D01*
X159025039Y-77155302D01*
X159189042Y-76909853D01*
X159302010Y-76637125D01*
X159359600Y-76347599D01*
X159359600Y-76052401D01*
X160426400Y-76052401D01*
X160426400Y-76347599D01*
X160483990Y-76637125D01*
X160596958Y-76909853D01*
X160760961Y-77155302D01*
X160969698Y-77364039D01*
X161215147Y-77528042D01*
X161487875Y-77641010D01*
X161777401Y-77698600D01*
X162072599Y-77698600D01*
X162362125Y-77641010D01*
X162634853Y-77528042D01*
X162880302Y-77364039D01*
X163089039Y-77155302D01*
X163195000Y-76996719D01*
X163300961Y-77155302D01*
X163509698Y-77364039D01*
X163755147Y-77528042D01*
X164027875Y-77641010D01*
X164317401Y-77698600D01*
X164612599Y-77698600D01*
X164902125Y-77641010D01*
X165174853Y-77528042D01*
X165420302Y-77364039D01*
X165629039Y-77155302D01*
X165735000Y-76996719D01*
X165840961Y-77155302D01*
X166049698Y-77364039D01*
X166295147Y-77528042D01*
X166567875Y-77641010D01*
X166857401Y-77698600D01*
X167152599Y-77698600D01*
X167442125Y-77641010D01*
X167714853Y-77528042D01*
X167960302Y-77364039D01*
X168169039Y-77155302D01*
X168275000Y-76996719D01*
X168380961Y-77155302D01*
X168589698Y-77364039D01*
X168835147Y-77528042D01*
X169107875Y-77641010D01*
X169397401Y-77698600D01*
X169692599Y-77698600D01*
X169982125Y-77641010D01*
X170254853Y-77528042D01*
X170500302Y-77364039D01*
X170709039Y-77155302D01*
X170815000Y-76996719D01*
X170920961Y-77155302D01*
X171129698Y-77364039D01*
X171375147Y-77528042D01*
X171647875Y-77641010D01*
X171937401Y-77698600D01*
X172232599Y-77698600D01*
X172522125Y-77641010D01*
X172794853Y-77528042D01*
X173040302Y-77364039D01*
X173249039Y-77155302D01*
X173355000Y-76996719D01*
X173460961Y-77155302D01*
X173669698Y-77364039D01*
X173915147Y-77528042D01*
X174187875Y-77641010D01*
X174477401Y-77698600D01*
X174772599Y-77698600D01*
X175062125Y-77641010D01*
X175334853Y-77528042D01*
X175580302Y-77364039D01*
X175789039Y-77155302D01*
X175895000Y-76996719D01*
X176000961Y-77155302D01*
X176209698Y-77364039D01*
X176455147Y-77528042D01*
X176727875Y-77641010D01*
X177017401Y-77698600D01*
X177312599Y-77698600D01*
X177602125Y-77641010D01*
X177874853Y-77528042D01*
X178120302Y-77364039D01*
X178329039Y-77155302D01*
X178435000Y-76996719D01*
X178540961Y-77155302D01*
X178749698Y-77364039D01*
X178995147Y-77528042D01*
X179267875Y-77641010D01*
X179557401Y-77698600D01*
X179852599Y-77698600D01*
X180142125Y-77641010D01*
X180414853Y-77528042D01*
X180660302Y-77364039D01*
X180869039Y-77155302D01*
X181033042Y-76909853D01*
X181146010Y-76637125D01*
X181203600Y-76347599D01*
X181203600Y-76052401D01*
X183286400Y-76052401D01*
X183286400Y-76347599D01*
X183343990Y-76637125D01*
X183456958Y-76909853D01*
X183620961Y-77155302D01*
X183829698Y-77364039D01*
X184075147Y-77528042D01*
X184347875Y-77641010D01*
X184637401Y-77698600D01*
X184932599Y-77698600D01*
X185222125Y-77641010D01*
X185494853Y-77528042D01*
X185740302Y-77364039D01*
X185949039Y-77155302D01*
X186055000Y-76996719D01*
X186160961Y-77155302D01*
X186369698Y-77364039D01*
X186615147Y-77528042D01*
X186887875Y-77641010D01*
X187177401Y-77698600D01*
X187472599Y-77698600D01*
X187762125Y-77641010D01*
X188034853Y-77528042D01*
X188280302Y-77364039D01*
X188489039Y-77155302D01*
X188595000Y-76996719D01*
X188700961Y-77155302D01*
X188909698Y-77364039D01*
X189155147Y-77528042D01*
X189427875Y-77641010D01*
X189717401Y-77698600D01*
X190012599Y-77698600D01*
X190302125Y-77641010D01*
X190574853Y-77528042D01*
X190820302Y-77364039D01*
X191029039Y-77155302D01*
X191135000Y-76996719D01*
X191240961Y-77155302D01*
X191449698Y-77364039D01*
X191695147Y-77528042D01*
X191967875Y-77641010D01*
X192257401Y-77698600D01*
X192552599Y-77698600D01*
X192842125Y-77641010D01*
X193114853Y-77528042D01*
X193360302Y-77364039D01*
X193569039Y-77155302D01*
X193675000Y-76996719D01*
X193780961Y-77155302D01*
X193989698Y-77364039D01*
X194235147Y-77528042D01*
X194507875Y-77641010D01*
X194797401Y-77698600D01*
X195092599Y-77698600D01*
X195382125Y-77641010D01*
X195654853Y-77528042D01*
X195900302Y-77364039D01*
X196109039Y-77155302D01*
X196215000Y-76996719D01*
X196320961Y-77155302D01*
X196529698Y-77364039D01*
X196775147Y-77528042D01*
X197047875Y-77641010D01*
X197337401Y-77698600D01*
X197632599Y-77698600D01*
X197922125Y-77641010D01*
X198194853Y-77528042D01*
X198440302Y-77364039D01*
X198649039Y-77155302D01*
X198755000Y-76996719D01*
X198860961Y-77155302D01*
X199069698Y-77364039D01*
X199315147Y-77528042D01*
X199587875Y-77641010D01*
X199877401Y-77698600D01*
X200172599Y-77698600D01*
X200462125Y-77641010D01*
X200734853Y-77528042D01*
X200980302Y-77364039D01*
X201189039Y-77155302D01*
X201295000Y-76996719D01*
X201400961Y-77155302D01*
X201609698Y-77364039D01*
X201855147Y-77528042D01*
X202127875Y-77641010D01*
X202417401Y-77698600D01*
X202712599Y-77698600D01*
X203002125Y-77641010D01*
X203274853Y-77528042D01*
X203520302Y-77364039D01*
X203729039Y-77155302D01*
X203893042Y-76909853D01*
X204006010Y-76637125D01*
X204063600Y-76347599D01*
X204063600Y-76052401D01*
X204006010Y-75762875D01*
X203893042Y-75490147D01*
X203729039Y-75244698D01*
X203520302Y-75035961D01*
X203274853Y-74871958D01*
X203002125Y-74758990D01*
X202712599Y-74701400D01*
X202417401Y-74701400D01*
X202127875Y-74758990D01*
X201855147Y-74871958D01*
X201609698Y-75035961D01*
X201400961Y-75244698D01*
X201295000Y-75403281D01*
X201189039Y-75244698D01*
X200980302Y-75035961D01*
X200734853Y-74871958D01*
X200462125Y-74758990D01*
X200172599Y-74701400D01*
X199877401Y-74701400D01*
X199587875Y-74758990D01*
X199315147Y-74871958D01*
X199069698Y-75035961D01*
X198860961Y-75244698D01*
X198755000Y-75403281D01*
X198649039Y-75244698D01*
X198440302Y-75035961D01*
X198194853Y-74871958D01*
X197922125Y-74758990D01*
X197632599Y-74701400D01*
X197337401Y-74701400D01*
X197047875Y-74758990D01*
X196775147Y-74871958D01*
X196529698Y-75035961D01*
X196320961Y-75244698D01*
X196215000Y-75403281D01*
X196109039Y-75244698D01*
X195900302Y-75035961D01*
X195654853Y-74871958D01*
X195382125Y-74758990D01*
X195092599Y-74701400D01*
X194797401Y-74701400D01*
X194507875Y-74758990D01*
X194235147Y-74871958D01*
X193989698Y-75035961D01*
X193780961Y-75244698D01*
X193675000Y-75403281D01*
X193569039Y-75244698D01*
X193360302Y-75035961D01*
X193114853Y-74871958D01*
X192842125Y-74758990D01*
X192552599Y-74701400D01*
X192257401Y-74701400D01*
X191967875Y-74758990D01*
X191695147Y-74871958D01*
X191449698Y-75035961D01*
X191240961Y-75244698D01*
X191135000Y-75403281D01*
X191029039Y-75244698D01*
X190820302Y-75035961D01*
X190574853Y-74871958D01*
X190302125Y-74758990D01*
X190012599Y-74701400D01*
X189717401Y-74701400D01*
X189427875Y-74758990D01*
X189155147Y-74871958D01*
X188909698Y-75035961D01*
X188700961Y-75244698D01*
X188595000Y-75403281D01*
X188489039Y-75244698D01*
X188280302Y-75035961D01*
X188034853Y-74871958D01*
X187762125Y-74758990D01*
X187472599Y-74701400D01*
X187177401Y-74701400D01*
X186887875Y-74758990D01*
X186615147Y-74871958D01*
X186369698Y-75035961D01*
X186160961Y-75244698D01*
X186055000Y-75403281D01*
X185949039Y-75244698D01*
X185740302Y-75035961D01*
X185494853Y-74871958D01*
X185222125Y-74758990D01*
X184932599Y-74701400D01*
X184637401Y-74701400D01*
X184347875Y-74758990D01*
X184075147Y-74871958D01*
X183829698Y-75035961D01*
X183620961Y-75244698D01*
X183456958Y-75490147D01*
X183343990Y-75762875D01*
X183286400Y-76052401D01*
X181203600Y-76052401D01*
X181146010Y-75762875D01*
X181033042Y-75490147D01*
X180869039Y-75244698D01*
X180660302Y-75035961D01*
X180414853Y-74871958D01*
X180142125Y-74758990D01*
X179852599Y-74701400D01*
X179557401Y-74701400D01*
X179267875Y-74758990D01*
X178995147Y-74871958D01*
X178749698Y-75035961D01*
X178540961Y-75244698D01*
X178435000Y-75403281D01*
X178329039Y-75244698D01*
X178120302Y-75035961D01*
X177874853Y-74871958D01*
X177602125Y-74758990D01*
X177312599Y-74701400D01*
X177017401Y-74701400D01*
X176727875Y-74758990D01*
X176455147Y-74871958D01*
X176209698Y-75035961D01*
X176000961Y-75244698D01*
X175895000Y-75403281D01*
X175789039Y-75244698D01*
X175580302Y-75035961D01*
X175334853Y-74871958D01*
X175062125Y-74758990D01*
X174772599Y-74701400D01*
X174477401Y-74701400D01*
X174187875Y-74758990D01*
X173915147Y-74871958D01*
X173669698Y-75035961D01*
X173460961Y-75244698D01*
X173355000Y-75403281D01*
X173249039Y-75244698D01*
X173040302Y-75035961D01*
X172794853Y-74871958D01*
X172522125Y-74758990D01*
X172232599Y-74701400D01*
X171937401Y-74701400D01*
X171647875Y-74758990D01*
X171375147Y-74871958D01*
X171129698Y-75035961D01*
X170920961Y-75244698D01*
X170815000Y-75403281D01*
X170709039Y-75244698D01*
X170500302Y-75035961D01*
X170254853Y-74871958D01*
X169982125Y-74758990D01*
X169692599Y-74701400D01*
X169397401Y-74701400D01*
X169107875Y-74758990D01*
X168835147Y-74871958D01*
X168589698Y-75035961D01*
X168380961Y-75244698D01*
X168275000Y-75403281D01*
X168169039Y-75244698D01*
X167960302Y-75035961D01*
X167714853Y-74871958D01*
X167442125Y-74758990D01*
X167152599Y-74701400D01*
X166857401Y-74701400D01*
X166567875Y-74758990D01*
X166295147Y-74871958D01*
X166049698Y-75035961D01*
X165840961Y-75244698D01*
X165735000Y-75403281D01*
X165629039Y-75244698D01*
X165420302Y-75035961D01*
X165174853Y-74871958D01*
X164902125Y-74758990D01*
X164612599Y-74701400D01*
X164317401Y-74701400D01*
X164027875Y-74758990D01*
X163755147Y-74871958D01*
X163509698Y-75035961D01*
X163300961Y-75244698D01*
X163195000Y-75403281D01*
X163089039Y-75244698D01*
X162880302Y-75035961D01*
X162634853Y-74871958D01*
X162362125Y-74758990D01*
X162072599Y-74701400D01*
X161777401Y-74701400D01*
X161487875Y-74758990D01*
X161215147Y-74871958D01*
X160969698Y-75035961D01*
X160760961Y-75244698D01*
X160596958Y-75490147D01*
X160483990Y-75762875D01*
X160426400Y-76052401D01*
X159359600Y-76052401D01*
X159302010Y-75762875D01*
X159189042Y-75490147D01*
X159025039Y-75244698D01*
X158816302Y-75035961D01*
X158570853Y-74871958D01*
X158298125Y-74758990D01*
X158008599Y-74701400D01*
X157713401Y-74701400D01*
X157423875Y-74758990D01*
X157151147Y-74871958D01*
X156905698Y-75035961D01*
X156696961Y-75244698D01*
X156591000Y-75403281D01*
X156485039Y-75244698D01*
X156276302Y-75035961D01*
X156030853Y-74871958D01*
X155758125Y-74758990D01*
X155468599Y-74701400D01*
X155173401Y-74701400D01*
X154883875Y-74758990D01*
X154611147Y-74871958D01*
X154365698Y-75035961D01*
X154156961Y-75244698D01*
X154051000Y-75403281D01*
X153945039Y-75244698D01*
X153736302Y-75035961D01*
X153490853Y-74871958D01*
X153218125Y-74758990D01*
X152928599Y-74701400D01*
X152633401Y-74701400D01*
X152343875Y-74758990D01*
X152071147Y-74871958D01*
X151825698Y-75035961D01*
X151616961Y-75244698D01*
X151511000Y-75403281D01*
X151405039Y-75244698D01*
X151196302Y-75035961D01*
X150950853Y-74871958D01*
X150678125Y-74758990D01*
X150388599Y-74701400D01*
X150093401Y-74701400D01*
X149803875Y-74758990D01*
X149531147Y-74871958D01*
X149285698Y-75035961D01*
X149076961Y-75244698D01*
X148971000Y-75403281D01*
X148865039Y-75244698D01*
X148656302Y-75035961D01*
X148410853Y-74871958D01*
X148138125Y-74758990D01*
X147848599Y-74701400D01*
X147553401Y-74701400D01*
X147263875Y-74758990D01*
X146991147Y-74871958D01*
X146745698Y-75035961D01*
X146536961Y-75244698D01*
X146431000Y-75403281D01*
X146325039Y-75244698D01*
X146116302Y-75035961D01*
X145870853Y-74871958D01*
X145598125Y-74758990D01*
X145308599Y-74701400D01*
X145013401Y-74701400D01*
X144723875Y-74758990D01*
X144451147Y-74871958D01*
X144205698Y-75035961D01*
X143996961Y-75244698D01*
X143891000Y-75403281D01*
X143785039Y-75244698D01*
X143576302Y-75035961D01*
X143330853Y-74871958D01*
X143058125Y-74758990D01*
X142768599Y-74701400D01*
X142473401Y-74701400D01*
X142183875Y-74758990D01*
X141911147Y-74871958D01*
X141665698Y-75035961D01*
X141456961Y-75244698D01*
X141351000Y-75403281D01*
X141245039Y-75244698D01*
X141036302Y-75035961D01*
X140790853Y-74871958D01*
X140518125Y-74758990D01*
X140228599Y-74701400D01*
X139933401Y-74701400D01*
X139643875Y-74758990D01*
X139371147Y-74871958D01*
X139125698Y-75035961D01*
X138916961Y-75244698D01*
X138811000Y-75403281D01*
X138705039Y-75244698D01*
X138496302Y-75035961D01*
X138250853Y-74871958D01*
X137978125Y-74758990D01*
X137688599Y-74701400D01*
X137393401Y-74701400D01*
X137103875Y-74758990D01*
X136831147Y-74871958D01*
X136585698Y-75035961D01*
X136376961Y-75244698D01*
X136271000Y-75403281D01*
X136165039Y-75244698D01*
X135956302Y-75035961D01*
X135710853Y-74871958D01*
X135438125Y-74758990D01*
X135148599Y-74701400D01*
X134853401Y-74701400D01*
X134563875Y-74758990D01*
X134291147Y-74871958D01*
X134045698Y-75035961D01*
X133836961Y-75244698D01*
X133672958Y-75490147D01*
X133611906Y-75637540D01*
X133594110Y-75548075D01*
X133425631Y-75141331D01*
X133181038Y-74775271D01*
X132869729Y-74463962D01*
X132654274Y-74320000D01*
X205165726Y-74320000D01*
X204950271Y-74463962D01*
X204638962Y-74775271D01*
X204394369Y-75141331D01*
X204225890Y-75548075D01*
X204140000Y-75979872D01*
X204140000Y-76420128D01*
X204225890Y-76851925D01*
X204394369Y-77258669D01*
X204638962Y-77624729D01*
X204950271Y-77936038D01*
X205316331Y-78180631D01*
X205723075Y-78349110D01*
X206154872Y-78435000D01*
X206595128Y-78435000D01*
X207026925Y-78349110D01*
X207433669Y-78180631D01*
X207799729Y-77936038D01*
X208111038Y-77624729D01*
X208355631Y-77258669D01*
X208524110Y-76851925D01*
X208610000Y-76420128D01*
X208610000Y-75979872D01*
X208524110Y-75548075D01*
X208355631Y-75141331D01*
X208111038Y-74775271D01*
X207799729Y-74463962D01*
X207584274Y-74320000D01*
X213467620Y-74320000D01*
X214605001Y-75457382D01*
X214605000Y-86327591D01*
X214601808Y-86360000D01*
X214605000Y-86392409D01*
X214605000Y-86392418D01*
X214614550Y-86489382D01*
X214645926Y-86592812D01*
X214652290Y-86613792D01*
X214713575Y-86728450D01*
X214761689Y-86787076D01*
X214796052Y-86828948D01*
X214821236Y-86849616D01*
X217145001Y-89173382D01*
X217145000Y-122916619D01*
X214821232Y-125240388D01*
X214820727Y-125240802D01*
X214874110Y-125111925D01*
X214960000Y-124680128D01*
X214960000Y-124239872D01*
X214874110Y-123808075D01*
X214705631Y-123401331D01*
X214461038Y-123035271D01*
X214149729Y-122723962D01*
X213783669Y-122479369D01*
X213376925Y-122310890D01*
X212945128Y-122225000D01*
X212504872Y-122225000D01*
X212073075Y-122310890D01*
X211666331Y-122479369D01*
X211300271Y-122723962D01*
X210988962Y-123035271D01*
X210744369Y-123401331D01*
X210575890Y-123808075D01*
X210490000Y-124239872D01*
X210490000Y-124680128D01*
X210575890Y-125111925D01*
X210744369Y-125518669D01*
X210988962Y-125884729D01*
X211300271Y-126196038D01*
X211515726Y-126340000D01*
X131384274Y-126340000D01*
X131599729Y-126196038D01*
X131911038Y-125884729D01*
X132155631Y-125518669D01*
X132324110Y-125111925D01*
X132410000Y-124680128D01*
X132410000Y-124312401D01*
X142646400Y-124312401D01*
X142646400Y-124607599D01*
X142703990Y-124897125D01*
X142816958Y-125169853D01*
X142980961Y-125415302D01*
X143189698Y-125624039D01*
X143435147Y-125788042D01*
X143707875Y-125901010D01*
X143997401Y-125958600D01*
X144292599Y-125958600D01*
X144582125Y-125901010D01*
X144854853Y-125788042D01*
X145100302Y-125624039D01*
X145309039Y-125415302D01*
X145415000Y-125256719D01*
X145520961Y-125415302D01*
X145729698Y-125624039D01*
X145975147Y-125788042D01*
X146247875Y-125901010D01*
X146537401Y-125958600D01*
X146832599Y-125958600D01*
X147122125Y-125901010D01*
X147394853Y-125788042D01*
X147640302Y-125624039D01*
X147849039Y-125415302D01*
X147955000Y-125256719D01*
X148060961Y-125415302D01*
X148269698Y-125624039D01*
X148515147Y-125788042D01*
X148787875Y-125901010D01*
X149077401Y-125958600D01*
X149372599Y-125958600D01*
X149662125Y-125901010D01*
X149934853Y-125788042D01*
X150180302Y-125624039D01*
X150389039Y-125415302D01*
X150495000Y-125256719D01*
X150600961Y-125415302D01*
X150809698Y-125624039D01*
X151055147Y-125788042D01*
X151327875Y-125901010D01*
X151617401Y-125958600D01*
X151912599Y-125958600D01*
X152202125Y-125901010D01*
X152474853Y-125788042D01*
X152720302Y-125624039D01*
X152929039Y-125415302D01*
X153093042Y-125169853D01*
X153206010Y-124897125D01*
X153263600Y-124607599D01*
X153263600Y-124312401D01*
X155346400Y-124312401D01*
X155346400Y-124607599D01*
X155403990Y-124897125D01*
X155516958Y-125169853D01*
X155680961Y-125415302D01*
X155889698Y-125624039D01*
X156135147Y-125788042D01*
X156407875Y-125901010D01*
X156697401Y-125958600D01*
X156992599Y-125958600D01*
X157282125Y-125901010D01*
X157554853Y-125788042D01*
X157800302Y-125624039D01*
X158009039Y-125415302D01*
X158115000Y-125256719D01*
X158220961Y-125415302D01*
X158429698Y-125624039D01*
X158675147Y-125788042D01*
X158947875Y-125901010D01*
X159237401Y-125958600D01*
X159532599Y-125958600D01*
X159822125Y-125901010D01*
X160094853Y-125788042D01*
X160340302Y-125624039D01*
X160549039Y-125415302D01*
X160655000Y-125256719D01*
X160760961Y-125415302D01*
X160969698Y-125624039D01*
X161215147Y-125788042D01*
X161487875Y-125901010D01*
X161777401Y-125958600D01*
X162072599Y-125958600D01*
X162362125Y-125901010D01*
X162634853Y-125788042D01*
X162880302Y-125624039D01*
X163089039Y-125415302D01*
X163253042Y-125169853D01*
X163366010Y-124897125D01*
X163423600Y-124607599D01*
X163423600Y-124312401D01*
X165506400Y-124312401D01*
X165506400Y-124607599D01*
X165563990Y-124897125D01*
X165676958Y-125169853D01*
X165840961Y-125415302D01*
X166049698Y-125624039D01*
X166295147Y-125788042D01*
X166567875Y-125901010D01*
X166857401Y-125958600D01*
X167152599Y-125958600D01*
X167442125Y-125901010D01*
X167714853Y-125788042D01*
X167960302Y-125624039D01*
X168169039Y-125415302D01*
X168275000Y-125256719D01*
X168380961Y-125415302D01*
X168589698Y-125624039D01*
X168835147Y-125788042D01*
X169107875Y-125901010D01*
X169397401Y-125958600D01*
X169692599Y-125958600D01*
X169982125Y-125901010D01*
X170254853Y-125788042D01*
X170500302Y-125624039D01*
X170709039Y-125415302D01*
X170815000Y-125256719D01*
X170920961Y-125415302D01*
X171129698Y-125624039D01*
X171375147Y-125788042D01*
X171647875Y-125901010D01*
X171937401Y-125958600D01*
X172232599Y-125958600D01*
X172522125Y-125901010D01*
X172794853Y-125788042D01*
X173040302Y-125624039D01*
X173249039Y-125415302D01*
X173355000Y-125256719D01*
X173460961Y-125415302D01*
X173669698Y-125624039D01*
X173915147Y-125788042D01*
X174187875Y-125901010D01*
X174477401Y-125958600D01*
X174772599Y-125958600D01*
X175062125Y-125901010D01*
X175334853Y-125788042D01*
X175580302Y-125624039D01*
X175789039Y-125415302D01*
X175895000Y-125256719D01*
X176000961Y-125415302D01*
X176209698Y-125624039D01*
X176455147Y-125788042D01*
X176727875Y-125901010D01*
X177017401Y-125958600D01*
X177312599Y-125958600D01*
X177602125Y-125901010D01*
X177874853Y-125788042D01*
X178120302Y-125624039D01*
X178329039Y-125415302D01*
X178435000Y-125256719D01*
X178540961Y-125415302D01*
X178749698Y-125624039D01*
X178995147Y-125788042D01*
X179267875Y-125901010D01*
X179557401Y-125958600D01*
X179852599Y-125958600D01*
X180142125Y-125901010D01*
X180414853Y-125788042D01*
X180660302Y-125624039D01*
X180869039Y-125415302D01*
X180975000Y-125256719D01*
X181080961Y-125415302D01*
X181289698Y-125624039D01*
X181535147Y-125788042D01*
X181807875Y-125901010D01*
X182097401Y-125958600D01*
X182392599Y-125958600D01*
X182682125Y-125901010D01*
X182954853Y-125788042D01*
X183200302Y-125624039D01*
X183409039Y-125415302D01*
X183515000Y-125256719D01*
X183620961Y-125415302D01*
X183829698Y-125624039D01*
X184075147Y-125788042D01*
X184347875Y-125901010D01*
X184637401Y-125958600D01*
X184932599Y-125958600D01*
X185222125Y-125901010D01*
X185494853Y-125788042D01*
X185740302Y-125624039D01*
X185949039Y-125415302D01*
X186113042Y-125169853D01*
X186226010Y-124897125D01*
X186283600Y-124607599D01*
X186283600Y-124312401D01*
X188366400Y-124312401D01*
X188366400Y-124607599D01*
X188423990Y-124897125D01*
X188536958Y-125169853D01*
X188700961Y-125415302D01*
X188909698Y-125624039D01*
X189155147Y-125788042D01*
X189427875Y-125901010D01*
X189717401Y-125958600D01*
X190012599Y-125958600D01*
X190302125Y-125901010D01*
X190574853Y-125788042D01*
X190820302Y-125624039D01*
X191029039Y-125415302D01*
X191135000Y-125256719D01*
X191240961Y-125415302D01*
X191449698Y-125624039D01*
X191695147Y-125788042D01*
X191967875Y-125901010D01*
X192257401Y-125958600D01*
X192552599Y-125958600D01*
X192842125Y-125901010D01*
X193114853Y-125788042D01*
X193360302Y-125624039D01*
X193569039Y-125415302D01*
X193675000Y-125256719D01*
X193780961Y-125415302D01*
X193989698Y-125624039D01*
X194235147Y-125788042D01*
X194507875Y-125901010D01*
X194797401Y-125958600D01*
X195092599Y-125958600D01*
X195382125Y-125901010D01*
X195654853Y-125788042D01*
X195900302Y-125624039D01*
X196109039Y-125415302D01*
X196215000Y-125256719D01*
X196320961Y-125415302D01*
X196529698Y-125624039D01*
X196775147Y-125788042D01*
X197047875Y-125901010D01*
X197337401Y-125958600D01*
X197632599Y-125958600D01*
X197922125Y-125901010D01*
X198194853Y-125788042D01*
X198440302Y-125624039D01*
X198649039Y-125415302D01*
X198755000Y-125256719D01*
X198860961Y-125415302D01*
X199069698Y-125624039D01*
X199315147Y-125788042D01*
X199587875Y-125901010D01*
X199877401Y-125958600D01*
X200172599Y-125958600D01*
X200462125Y-125901010D01*
X200734853Y-125788042D01*
X200980302Y-125624039D01*
X201189039Y-125415302D01*
X201295000Y-125256719D01*
X201400961Y-125415302D01*
X201609698Y-125624039D01*
X201855147Y-125788042D01*
X202127875Y-125901010D01*
X202417401Y-125958600D01*
X202712599Y-125958600D01*
X203002125Y-125901010D01*
X203274853Y-125788042D01*
X203520302Y-125624039D01*
X203729039Y-125415302D01*
X203835000Y-125256719D01*
X203940961Y-125415302D01*
X204149698Y-125624039D01*
X204395147Y-125788042D01*
X204667875Y-125901010D01*
X204957401Y-125958600D01*
X205252599Y-125958600D01*
X205542125Y-125901010D01*
X205814853Y-125788042D01*
X206060302Y-125624039D01*
X206269039Y-125415302D01*
X206375000Y-125256719D01*
X206480961Y-125415302D01*
X206689698Y-125624039D01*
X206935147Y-125788042D01*
X207207875Y-125901010D01*
X207497401Y-125958600D01*
X207792599Y-125958600D01*
X208082125Y-125901010D01*
X208354853Y-125788042D01*
X208600302Y-125624039D01*
X208809039Y-125415302D01*
X208973042Y-125169853D01*
X209086010Y-124897125D01*
X209143600Y-124607599D01*
X209143600Y-124312401D01*
X209086010Y-124022875D01*
X208973042Y-123750147D01*
X208809039Y-123504698D01*
X208600302Y-123295961D01*
X208354853Y-123131958D01*
X208082125Y-123018990D01*
X207792599Y-122961400D01*
X207497401Y-122961400D01*
X207207875Y-123018990D01*
X206935147Y-123131958D01*
X206689698Y-123295961D01*
X206480961Y-123504698D01*
X206375000Y-123663281D01*
X206269039Y-123504698D01*
X206060302Y-123295961D01*
X205814853Y-123131958D01*
X205542125Y-123018990D01*
X205252599Y-122961400D01*
X204957401Y-122961400D01*
X204667875Y-123018990D01*
X204395147Y-123131958D01*
X204149698Y-123295961D01*
X203940961Y-123504698D01*
X203835000Y-123663281D01*
X203729039Y-123504698D01*
X203520302Y-123295961D01*
X203274853Y-123131958D01*
X203002125Y-123018990D01*
X202712599Y-122961400D01*
X202417401Y-122961400D01*
X202127875Y-123018990D01*
X201855147Y-123131958D01*
X201609698Y-123295961D01*
X201400961Y-123504698D01*
X201295000Y-123663281D01*
X201189039Y-123504698D01*
X200980302Y-123295961D01*
X200734853Y-123131958D01*
X200462125Y-123018990D01*
X200172599Y-122961400D01*
X199877401Y-122961400D01*
X199587875Y-123018990D01*
X199315147Y-123131958D01*
X199069698Y-123295961D01*
X198860961Y-123504698D01*
X198755000Y-123663281D01*
X198649039Y-123504698D01*
X198440302Y-123295961D01*
X198194853Y-123131958D01*
X197922125Y-123018990D01*
X197632599Y-122961400D01*
X197337401Y-122961400D01*
X197047875Y-123018990D01*
X196775147Y-123131958D01*
X196529698Y-123295961D01*
X196320961Y-123504698D01*
X196215000Y-123663281D01*
X196109039Y-123504698D01*
X195900302Y-123295961D01*
X195654853Y-123131958D01*
X195382125Y-123018990D01*
X195092599Y-122961400D01*
X194797401Y-122961400D01*
X194507875Y-123018990D01*
X194235147Y-123131958D01*
X193989698Y-123295961D01*
X193780961Y-123504698D01*
X193675000Y-123663281D01*
X193569039Y-123504698D01*
X193360302Y-123295961D01*
X193114853Y-123131958D01*
X192842125Y-123018990D01*
X192552599Y-122961400D01*
X192257401Y-122961400D01*
X191967875Y-123018990D01*
X191695147Y-123131958D01*
X191449698Y-123295961D01*
X191240961Y-123504698D01*
X191135000Y-123663281D01*
X191029039Y-123504698D01*
X190820302Y-123295961D01*
X190574853Y-123131958D01*
X190302125Y-123018990D01*
X190012599Y-122961400D01*
X189717401Y-122961400D01*
X189427875Y-123018990D01*
X189155147Y-123131958D01*
X188909698Y-123295961D01*
X188700961Y-123504698D01*
X188536958Y-123750147D01*
X188423990Y-124022875D01*
X188366400Y-124312401D01*
X186283600Y-124312401D01*
X186226010Y-124022875D01*
X186113042Y-123750147D01*
X185949039Y-123504698D01*
X185740302Y-123295961D01*
X185494853Y-123131958D01*
X185222125Y-123018990D01*
X184932599Y-122961400D01*
X184637401Y-122961400D01*
X184347875Y-123018990D01*
X184075147Y-123131958D01*
X183829698Y-123295961D01*
X183620961Y-123504698D01*
X183515000Y-123663281D01*
X183409039Y-123504698D01*
X183200302Y-123295961D01*
X182954853Y-123131958D01*
X182682125Y-123018990D01*
X182392599Y-122961400D01*
X182097401Y-122961400D01*
X181807875Y-123018990D01*
X181535147Y-123131958D01*
X181289698Y-123295961D01*
X181080961Y-123504698D01*
X180975000Y-123663281D01*
X180869039Y-123504698D01*
X180660302Y-123295961D01*
X180414853Y-123131958D01*
X180142125Y-123018990D01*
X179852599Y-122961400D01*
X179557401Y-122961400D01*
X179267875Y-123018990D01*
X178995147Y-123131958D01*
X178749698Y-123295961D01*
X178540961Y-123504698D01*
X178435000Y-123663281D01*
X178329039Y-123504698D01*
X178120302Y-123295961D01*
X177874853Y-123131958D01*
X177602125Y-123018990D01*
X177312599Y-122961400D01*
X177017401Y-122961400D01*
X176727875Y-123018990D01*
X176455147Y-123131958D01*
X176209698Y-123295961D01*
X176000961Y-123504698D01*
X175895000Y-123663281D01*
X175789039Y-123504698D01*
X175580302Y-123295961D01*
X175334853Y-123131958D01*
X175062125Y-123018990D01*
X174772599Y-122961400D01*
X174477401Y-122961400D01*
X174187875Y-123018990D01*
X173915147Y-123131958D01*
X173669698Y-123295961D01*
X173460961Y-123504698D01*
X173355000Y-123663281D01*
X173249039Y-123504698D01*
X173040302Y-123295961D01*
X172794853Y-123131958D01*
X172522125Y-123018990D01*
X172232599Y-122961400D01*
X171937401Y-122961400D01*
X171647875Y-123018990D01*
X171375147Y-123131958D01*
X171129698Y-123295961D01*
X170920961Y-123504698D01*
X170815000Y-123663281D01*
X170709039Y-123504698D01*
X170500302Y-123295961D01*
X170254853Y-123131958D01*
X169982125Y-123018990D01*
X169692599Y-122961400D01*
X169397401Y-122961400D01*
X169107875Y-123018990D01*
X168835147Y-123131958D01*
X168589698Y-123295961D01*
X168380961Y-123504698D01*
X168275000Y-123663281D01*
X168169039Y-123504698D01*
X167960302Y-123295961D01*
X167714853Y-123131958D01*
X167442125Y-123018990D01*
X167152599Y-122961400D01*
X166857401Y-122961400D01*
X166567875Y-123018990D01*
X166295147Y-123131958D01*
X166049698Y-123295961D01*
X165840961Y-123504698D01*
X165676958Y-123750147D01*
X165563990Y-124022875D01*
X165506400Y-124312401D01*
X163423600Y-124312401D01*
X163366010Y-124022875D01*
X163253042Y-123750147D01*
X163089039Y-123504698D01*
X162880302Y-123295961D01*
X162634853Y-123131958D01*
X162362125Y-123018990D01*
X162072599Y-122961400D01*
X161777401Y-122961400D01*
X161487875Y-123018990D01*
X161215147Y-123131958D01*
X160969698Y-123295961D01*
X160760961Y-123504698D01*
X160655000Y-123663281D01*
X160549039Y-123504698D01*
X160340302Y-123295961D01*
X160094853Y-123131958D01*
X159822125Y-123018990D01*
X159532599Y-122961400D01*
X159237401Y-122961400D01*
X158947875Y-123018990D01*
X158675147Y-123131958D01*
X158429698Y-123295961D01*
X158220961Y-123504698D01*
X158115000Y-123663281D01*
X158009039Y-123504698D01*
X157800302Y-123295961D01*
X157554853Y-123131958D01*
X157282125Y-123018990D01*
X156992599Y-122961400D01*
X156697401Y-122961400D01*
X156407875Y-123018990D01*
X156135147Y-123131958D01*
X155889698Y-123295961D01*
X155680961Y-123504698D01*
X155516958Y-123750147D01*
X155403990Y-124022875D01*
X155346400Y-124312401D01*
X153263600Y-124312401D01*
X153206010Y-124022875D01*
X153093042Y-123750147D01*
X152929039Y-123504698D01*
X152720302Y-123295961D01*
X152474853Y-123131958D01*
X152202125Y-123018990D01*
X151912599Y-122961400D01*
X151617401Y-122961400D01*
X151327875Y-123018990D01*
X151055147Y-123131958D01*
X150809698Y-123295961D01*
X150600961Y-123504698D01*
X150495000Y-123663281D01*
X150389039Y-123504698D01*
X150180302Y-123295961D01*
X149934853Y-123131958D01*
X149662125Y-123018990D01*
X149372599Y-122961400D01*
X149077401Y-122961400D01*
X148787875Y-123018990D01*
X148515147Y-123131958D01*
X148269698Y-123295961D01*
X148060961Y-123504698D01*
X147955000Y-123663281D01*
X147849039Y-123504698D01*
X147640302Y-123295961D01*
X147394853Y-123131958D01*
X147122125Y-123018990D01*
X146832599Y-122961400D01*
X146537401Y-122961400D01*
X146247875Y-123018990D01*
X145975147Y-123131958D01*
X145729698Y-123295961D01*
X145520961Y-123504698D01*
X145415000Y-123663281D01*
X145309039Y-123504698D01*
X145100302Y-123295961D01*
X144854853Y-123131958D01*
X144582125Y-123018990D01*
X144292599Y-122961400D01*
X143997401Y-122961400D01*
X143707875Y-123018990D01*
X143435147Y-123131958D01*
X143189698Y-123295961D01*
X142980961Y-123504698D01*
X142816958Y-123750147D01*
X142703990Y-124022875D01*
X142646400Y-124312401D01*
X132410000Y-124312401D01*
X132410000Y-124239872D01*
X132324110Y-123808075D01*
X132155631Y-123401331D01*
X131911038Y-123035271D01*
X131599729Y-122723962D01*
X131233669Y-122479369D01*
X130826925Y-122310890D01*
X130395128Y-122225000D01*
X129954872Y-122225000D01*
X129523075Y-122310890D01*
X129116331Y-122479369D01*
X128750271Y-122723962D01*
X128438962Y-123035271D01*
X128194369Y-123401331D01*
X128025890Y-123808075D01*
X127940000Y-124239872D01*
X127940000Y-124680128D01*
X128025890Y-125111925D01*
X128194369Y-125518669D01*
X128438962Y-125884729D01*
X128750271Y-126196038D01*
X128965726Y-126340000D01*
X104165000Y-126340000D01*
X104165000Y-125762408D01*
X104168192Y-125729999D01*
X104165000Y-125697590D01*
X104165000Y-125697581D01*
X104155450Y-125600617D01*
X104117710Y-125476207D01*
X104056425Y-125361550D01*
X104027364Y-125326139D01*
X103994613Y-125286232D01*
X103994612Y-125286231D01*
X103973948Y-125261052D01*
X103948769Y-125240388D01*
X101625000Y-122916620D01*
X101625000Y-106685363D01*
X115510000Y-106685363D01*
X115510000Y-106928637D01*
X115557460Y-107167236D01*
X115650557Y-107391992D01*
X115785713Y-107594267D01*
X115957733Y-107766287D01*
X116160008Y-107901443D01*
X116384764Y-107994540D01*
X116623363Y-108042000D01*
X116866637Y-108042000D01*
X117105236Y-107994540D01*
X117329992Y-107901443D01*
X117532267Y-107766287D01*
X117704287Y-107594267D01*
X117839443Y-107391992D01*
X117932540Y-107167236D01*
X117980000Y-106928637D01*
X117980000Y-106685363D01*
X117932540Y-106446764D01*
X117839443Y-106222008D01*
X117704287Y-106019733D01*
X117532267Y-105847713D01*
X117329992Y-105712557D01*
X117105236Y-105619460D01*
X116866637Y-105572000D01*
X116623363Y-105572000D01*
X116384764Y-105619460D01*
X116160008Y-105712557D01*
X115957733Y-105847713D01*
X115785713Y-106019733D01*
X115650557Y-106222008D01*
X115557460Y-106446764D01*
X115510000Y-106685363D01*
X101625000Y-106685363D01*
X101625000Y-102723740D01*
X119800000Y-102723740D01*
X119800000Y-103016260D01*
X119857068Y-103303158D01*
X119969010Y-103573411D01*
X120131525Y-103816632D01*
X120338368Y-104023475D01*
X120581589Y-104185990D01*
X120851842Y-104297932D01*
X121138740Y-104355000D01*
X121431260Y-104355000D01*
X121718158Y-104297932D01*
X121988411Y-104185990D01*
X122231632Y-104023475D01*
X122438475Y-103816632D01*
X122555000Y-103642240D01*
X122671525Y-103816632D01*
X122878368Y-104023475D01*
X123121589Y-104185990D01*
X123391842Y-104297932D01*
X123678740Y-104355000D01*
X123971260Y-104355000D01*
X124258158Y-104297932D01*
X124528411Y-104185990D01*
X124771632Y-104023475D01*
X124978475Y-103816632D01*
X125095000Y-103642240D01*
X125211525Y-103816632D01*
X125418368Y-104023475D01*
X125661589Y-104185990D01*
X125931842Y-104297932D01*
X126218740Y-104355000D01*
X126511260Y-104355000D01*
X126798158Y-104297932D01*
X127068411Y-104185990D01*
X127311632Y-104023475D01*
X127518475Y-103816632D01*
X127635000Y-103642240D01*
X127751525Y-103816632D01*
X127958368Y-104023475D01*
X128201589Y-104185990D01*
X128471842Y-104297932D01*
X128758740Y-104355000D01*
X129051260Y-104355000D01*
X129338158Y-104297932D01*
X129608411Y-104185990D01*
X129851632Y-104023475D01*
X130058475Y-103816632D01*
X130175000Y-103642240D01*
X130291525Y-103816632D01*
X130498368Y-104023475D01*
X130741589Y-104185990D01*
X131011842Y-104297932D01*
X131298740Y-104355000D01*
X131591260Y-104355000D01*
X131878158Y-104297932D01*
X132148411Y-104185990D01*
X132391632Y-104023475D01*
X132598475Y-103816632D01*
X132715000Y-103642240D01*
X132831525Y-103816632D01*
X133038368Y-104023475D01*
X133281589Y-104185990D01*
X133551842Y-104297932D01*
X133838740Y-104355000D01*
X134131260Y-104355000D01*
X134418158Y-104297932D01*
X134688411Y-104185990D01*
X134931632Y-104023475D01*
X135138475Y-103816632D01*
X135255000Y-103642240D01*
X135371525Y-103816632D01*
X135578368Y-104023475D01*
X135821589Y-104185990D01*
X136091842Y-104297932D01*
X136378740Y-104355000D01*
X136671260Y-104355000D01*
X136958158Y-104297932D01*
X137228411Y-104185990D01*
X137471632Y-104023475D01*
X137678475Y-103816632D01*
X137795000Y-103642240D01*
X137911525Y-103816632D01*
X138118368Y-104023475D01*
X138361589Y-104185990D01*
X138631842Y-104297932D01*
X138918740Y-104355000D01*
X139211260Y-104355000D01*
X139498158Y-104297932D01*
X139768411Y-104185990D01*
X140011632Y-104023475D01*
X140218475Y-103816632D01*
X140335000Y-103642240D01*
X140451525Y-103816632D01*
X140658368Y-104023475D01*
X140901589Y-104185990D01*
X141171842Y-104297932D01*
X141458740Y-104355000D01*
X141751260Y-104355000D01*
X142038158Y-104297932D01*
X142308411Y-104185990D01*
X142551632Y-104023475D01*
X142758475Y-103816632D01*
X142875000Y-103642240D01*
X142991525Y-103816632D01*
X143198368Y-104023475D01*
X143441589Y-104185990D01*
X143711842Y-104297932D01*
X143998740Y-104355000D01*
X144291260Y-104355000D01*
X144578158Y-104297932D01*
X144848411Y-104185990D01*
X145091632Y-104023475D01*
X145298475Y-103816632D01*
X145415000Y-103642240D01*
X145531525Y-103816632D01*
X145738368Y-104023475D01*
X145981589Y-104185990D01*
X146251842Y-104297932D01*
X146538740Y-104355000D01*
X146831260Y-104355000D01*
X147118158Y-104297932D01*
X147388411Y-104185990D01*
X147631632Y-104023475D01*
X147838475Y-103816632D01*
X147955000Y-103642240D01*
X148071525Y-103816632D01*
X148278368Y-104023475D01*
X148521589Y-104185990D01*
X148791842Y-104297932D01*
X149078740Y-104355000D01*
X149371260Y-104355000D01*
X149658158Y-104297932D01*
X149928411Y-104185990D01*
X150171632Y-104023475D01*
X150378475Y-103816632D01*
X150495000Y-103642240D01*
X150611525Y-103816632D01*
X150818368Y-104023475D01*
X151061589Y-104185990D01*
X151331842Y-104297932D01*
X151618740Y-104355000D01*
X151911260Y-104355000D01*
X152198158Y-104297932D01*
X152468411Y-104185990D01*
X152711632Y-104023475D01*
X152918475Y-103816632D01*
X153035000Y-103642240D01*
X153151525Y-103816632D01*
X153358368Y-104023475D01*
X153601589Y-104185990D01*
X153871842Y-104297932D01*
X154158740Y-104355000D01*
X154451260Y-104355000D01*
X154738158Y-104297932D01*
X155008411Y-104185990D01*
X155251632Y-104023475D01*
X155458475Y-103816632D01*
X155575000Y-103642240D01*
X155691525Y-103816632D01*
X155898368Y-104023475D01*
X156141589Y-104185990D01*
X156411842Y-104297932D01*
X156698740Y-104355000D01*
X156991260Y-104355000D01*
X157278158Y-104297932D01*
X157548411Y-104185990D01*
X157791632Y-104023475D01*
X157998475Y-103816632D01*
X158115000Y-103642240D01*
X158231525Y-103816632D01*
X158438368Y-104023475D01*
X158681589Y-104185990D01*
X158951842Y-104297932D01*
X159238740Y-104355000D01*
X159531260Y-104355000D01*
X159818158Y-104297932D01*
X160088411Y-104185990D01*
X160331632Y-104023475D01*
X160538475Y-103816632D01*
X160655000Y-103642240D01*
X160771525Y-103816632D01*
X160978368Y-104023475D01*
X161221589Y-104185990D01*
X161491842Y-104297932D01*
X161778740Y-104355000D01*
X162071260Y-104355000D01*
X162358158Y-104297932D01*
X162628411Y-104185990D01*
X162871632Y-104023475D01*
X163078475Y-103816632D01*
X163195000Y-103642240D01*
X163311525Y-103816632D01*
X163518368Y-104023475D01*
X163761589Y-104185990D01*
X164031842Y-104297932D01*
X164318740Y-104355000D01*
X164611260Y-104355000D01*
X164898158Y-104297932D01*
X165168411Y-104185990D01*
X165411632Y-104023475D01*
X165618475Y-103816632D01*
X165735000Y-103642240D01*
X165851525Y-103816632D01*
X166058368Y-104023475D01*
X166301589Y-104185990D01*
X166571842Y-104297932D01*
X166858740Y-104355000D01*
X167151260Y-104355000D01*
X167438158Y-104297932D01*
X167708411Y-104185990D01*
X167951632Y-104023475D01*
X168158475Y-103816632D01*
X168275000Y-103642240D01*
X168391525Y-103816632D01*
X168598368Y-104023475D01*
X168841589Y-104185990D01*
X169111842Y-104297932D01*
X169398740Y-104355000D01*
X169691260Y-104355000D01*
X169978158Y-104297932D01*
X170248411Y-104185990D01*
X170491632Y-104023475D01*
X170698475Y-103816632D01*
X170815000Y-103642240D01*
X170931525Y-103816632D01*
X170950000Y-103835107D01*
X170950001Y-109926239D01*
X170950000Y-109926249D01*
X170950001Y-114330352D01*
X170966424Y-114497099D01*
X171031325Y-114711047D01*
X171136717Y-114908223D01*
X171278552Y-115081049D01*
X171451378Y-115222884D01*
X171648554Y-115328276D01*
X171862502Y-115393177D01*
X172085000Y-115415091D01*
X172307499Y-115393177D01*
X172521447Y-115328276D01*
X172718623Y-115222884D01*
X172891449Y-115081049D01*
X173033284Y-114908223D01*
X173138676Y-114711047D01*
X173203577Y-114497099D01*
X173220000Y-114330352D01*
X173220000Y-110867000D01*
X194329523Y-110867000D01*
X194373000Y-110871282D01*
X194416476Y-110867000D01*
X194416477Y-110867000D01*
X194546490Y-110854195D01*
X194713313Y-110803589D01*
X194867059Y-110721411D01*
X195001817Y-110610817D01*
X195112411Y-110476059D01*
X195194589Y-110322313D01*
X195245195Y-110155490D01*
X195262282Y-109982000D01*
X195258000Y-109938523D01*
X195258000Y-107573554D01*
X195364287Y-107467267D01*
X195499443Y-107264992D01*
X195592540Y-107040236D01*
X195640000Y-106801637D01*
X195640000Y-106558363D01*
X195592540Y-106319764D01*
X195499443Y-106095008D01*
X195364287Y-105892733D01*
X195192267Y-105720713D01*
X194989992Y-105585557D01*
X194765236Y-105492460D01*
X194526637Y-105445000D01*
X194283363Y-105445000D01*
X194044764Y-105492460D01*
X193820008Y-105585557D01*
X193617733Y-105720713D01*
X193445713Y-105892733D01*
X193310557Y-106095008D01*
X193217460Y-106319764D01*
X193170000Y-106558363D01*
X193170000Y-106801637D01*
X193217460Y-107040236D01*
X193310557Y-107264992D01*
X193445713Y-107467267D01*
X193488001Y-107509555D01*
X193488000Y-109097000D01*
X173220000Y-109097000D01*
X173220000Y-103835107D01*
X173238475Y-103816632D01*
X173355000Y-103642240D01*
X173471525Y-103816632D01*
X173678368Y-104023475D01*
X173921589Y-104185990D01*
X174191842Y-104297932D01*
X174478740Y-104355000D01*
X174771260Y-104355000D01*
X175058158Y-104297932D01*
X175328411Y-104185990D01*
X175571632Y-104023475D01*
X175778475Y-103816632D01*
X175895000Y-103642240D01*
X176011525Y-103816632D01*
X176218368Y-104023475D01*
X176461589Y-104185990D01*
X176731842Y-104297932D01*
X177018740Y-104355000D01*
X177311260Y-104355000D01*
X177598158Y-104297932D01*
X177868411Y-104185990D01*
X178111632Y-104023475D01*
X178318475Y-103816632D01*
X178435000Y-103642240D01*
X178551525Y-103816632D01*
X178758368Y-104023475D01*
X179001589Y-104185990D01*
X179271842Y-104297932D01*
X179558740Y-104355000D01*
X179851260Y-104355000D01*
X180138158Y-104297932D01*
X180408411Y-104185990D01*
X180651632Y-104023475D01*
X180858475Y-103816632D01*
X180975000Y-103642240D01*
X181091525Y-103816632D01*
X181298368Y-104023475D01*
X181541589Y-104185990D01*
X181811842Y-104297932D01*
X182098740Y-104355000D01*
X182391260Y-104355000D01*
X182678158Y-104297932D01*
X182948411Y-104185990D01*
X183191632Y-104023475D01*
X183398475Y-103816632D01*
X183515000Y-103642240D01*
X183631525Y-103816632D01*
X183838368Y-104023475D01*
X184081589Y-104185990D01*
X184351842Y-104297932D01*
X184638740Y-104355000D01*
X184931260Y-104355000D01*
X185218158Y-104297932D01*
X185488411Y-104185990D01*
X185731632Y-104023475D01*
X185938475Y-103816632D01*
X186055000Y-103642240D01*
X186171525Y-103816632D01*
X186378368Y-104023475D01*
X186621589Y-104185990D01*
X186891842Y-104297932D01*
X187178740Y-104355000D01*
X187471260Y-104355000D01*
X187758158Y-104297932D01*
X188028411Y-104185990D01*
X188271632Y-104023475D01*
X188478475Y-103816632D01*
X188595000Y-103642240D01*
X188711525Y-103816632D01*
X188918368Y-104023475D01*
X189161589Y-104185990D01*
X189431842Y-104297932D01*
X189718740Y-104355000D01*
X190011260Y-104355000D01*
X190298158Y-104297932D01*
X190568411Y-104185990D01*
X190811632Y-104023475D01*
X191018475Y-103816632D01*
X191180990Y-103573411D01*
X191292932Y-103303158D01*
X191350000Y-103016260D01*
X191350000Y-102723740D01*
X191292932Y-102436842D01*
X191180990Y-102166589D01*
X191018475Y-101923368D01*
X190811632Y-101716525D01*
X190568411Y-101554010D01*
X190481496Y-101518009D01*
X190496649Y-101511732D01*
X190715057Y-101365797D01*
X190900797Y-101180057D01*
X191046732Y-100961649D01*
X191147254Y-100718968D01*
X191198500Y-100461338D01*
X191198500Y-100198662D01*
X191182328Y-100117357D01*
X200406000Y-100117357D01*
X200406000Y-100542643D01*
X200488970Y-100959757D01*
X200651719Y-101352670D01*
X200887996Y-101706282D01*
X201188718Y-102007004D01*
X201542330Y-102243281D01*
X201935243Y-102406030D01*
X202352357Y-102489000D01*
X202777643Y-102489000D01*
X203194757Y-102406030D01*
X203587670Y-102243281D01*
X203941282Y-102007004D01*
X204242004Y-101706282D01*
X204478281Y-101352670D01*
X204641030Y-100959757D01*
X204724000Y-100542643D01*
X204724000Y-100117357D01*
X204641030Y-99700243D01*
X204478281Y-99307330D01*
X204242004Y-98953718D01*
X203941282Y-98652996D01*
X203587670Y-98416719D01*
X203194757Y-98253970D01*
X202777643Y-98171000D01*
X202352357Y-98171000D01*
X201935243Y-98253970D01*
X201542330Y-98416719D01*
X201188718Y-98652996D01*
X200887996Y-98953718D01*
X200651719Y-99307330D01*
X200488970Y-99700243D01*
X200406000Y-100117357D01*
X191182328Y-100117357D01*
X191147254Y-99941032D01*
X191046732Y-99698351D01*
X190900797Y-99479943D01*
X190715057Y-99294203D01*
X190625000Y-99234029D01*
X190625000Y-94040238D01*
X190639482Y-94038812D01*
X190759180Y-94002502D01*
X190869494Y-93943537D01*
X190966185Y-93864185D01*
X191045537Y-93767494D01*
X191104502Y-93657180D01*
X191140812Y-93537482D01*
X191153072Y-93413000D01*
X191153072Y-91913000D01*
X191140812Y-91788518D01*
X191104502Y-91668820D01*
X191045537Y-91558506D01*
X190966185Y-91461815D01*
X190869494Y-91382463D01*
X190759180Y-91323498D01*
X190724573Y-91313000D01*
X190759180Y-91302502D01*
X190869494Y-91243537D01*
X190966185Y-91164185D01*
X191045537Y-91067494D01*
X191104502Y-90957180D01*
X191140812Y-90837482D01*
X191153072Y-90713000D01*
X191153072Y-89213000D01*
X191140812Y-89088518D01*
X191104502Y-88968820D01*
X191045537Y-88858506D01*
X190966185Y-88761815D01*
X190869494Y-88682463D01*
X190759180Y-88623498D01*
X190639482Y-88587188D01*
X190625000Y-88585762D01*
X190625000Y-86547238D01*
X190639482Y-86545812D01*
X190759180Y-86509502D01*
X190869494Y-86450537D01*
X190966185Y-86371185D01*
X191045537Y-86274494D01*
X191104502Y-86164180D01*
X191140812Y-86044482D01*
X191153072Y-85920000D01*
X191153072Y-84420000D01*
X191140812Y-84295518D01*
X191104502Y-84175820D01*
X191045537Y-84065506D01*
X190966185Y-83968815D01*
X190869494Y-83889463D01*
X190759180Y-83830498D01*
X190724573Y-83820000D01*
X190759180Y-83809502D01*
X190869494Y-83750537D01*
X190966185Y-83671185D01*
X191045537Y-83574494D01*
X191104502Y-83464180D01*
X191140812Y-83344482D01*
X191153072Y-83220000D01*
X191153072Y-81720000D01*
X191140812Y-81595518D01*
X191104502Y-81475820D01*
X191045537Y-81365506D01*
X190966185Y-81268815D01*
X190869494Y-81189463D01*
X190759180Y-81130498D01*
X190639482Y-81094188D01*
X190625000Y-81092762D01*
X190625000Y-80727569D01*
X190671449Y-80689449D01*
X190813284Y-80516623D01*
X190918676Y-80319447D01*
X190983577Y-80105499D01*
X191005491Y-79883000D01*
X190983577Y-79660501D01*
X190918676Y-79446553D01*
X190813284Y-79249377D01*
X190671449Y-79076551D01*
X190498623Y-78934716D01*
X190301447Y-78829324D01*
X190087499Y-78764423D01*
X189920752Y-78748000D01*
X171886751Y-78748000D01*
X171831000Y-78742509D01*
X171775249Y-78748000D01*
X138866751Y-78748000D01*
X138811000Y-78742509D01*
X138755249Y-78748000D01*
X121102248Y-78748000D01*
X120935501Y-78764423D01*
X120721553Y-78829324D01*
X120524377Y-78934716D01*
X120351551Y-79076551D01*
X120209716Y-79249377D01*
X120104324Y-79446553D01*
X120039423Y-79660501D01*
X120017509Y-79883000D01*
X120039423Y-80105499D01*
X120104324Y-80319447D01*
X120209716Y-80516623D01*
X120351551Y-80689449D01*
X120524377Y-80831284D01*
X120525001Y-80831617D01*
X120525001Y-81139762D01*
X120510518Y-81141188D01*
X120390820Y-81177498D01*
X120280506Y-81236463D01*
X120183815Y-81315815D01*
X120104463Y-81412506D01*
X120045498Y-81522820D01*
X120009188Y-81642518D01*
X119996928Y-81767000D01*
X119996928Y-83267000D01*
X120009188Y-83391482D01*
X120045498Y-83511180D01*
X120104463Y-83621494D01*
X120183815Y-83718185D01*
X120280506Y-83797537D01*
X120390820Y-83856502D01*
X120425427Y-83867000D01*
X120390820Y-83877498D01*
X120280506Y-83936463D01*
X120183815Y-84015815D01*
X120104463Y-84112506D01*
X120045498Y-84222820D01*
X120009188Y-84342518D01*
X119996928Y-84467000D01*
X119996928Y-85967000D01*
X120009188Y-86091482D01*
X120045498Y-86211180D01*
X120104463Y-86321494D01*
X120183815Y-86418185D01*
X120280506Y-86497537D01*
X120390820Y-86556502D01*
X120510518Y-86592812D01*
X120525000Y-86594238D01*
X120525001Y-88585762D01*
X120510518Y-88587188D01*
X120390820Y-88623498D01*
X120280506Y-88682463D01*
X120183815Y-88761815D01*
X120104463Y-88858506D01*
X120045498Y-88968820D01*
X120009188Y-89088518D01*
X119996928Y-89213000D01*
X119996928Y-90713000D01*
X120009188Y-90837482D01*
X120045498Y-90957180D01*
X120104463Y-91067494D01*
X120183815Y-91164185D01*
X120280506Y-91243537D01*
X120390820Y-91302502D01*
X120425427Y-91313000D01*
X120390820Y-91323498D01*
X120280506Y-91382463D01*
X120183815Y-91461815D01*
X120104463Y-91558506D01*
X120045498Y-91668820D01*
X120009188Y-91788518D01*
X119996928Y-91913000D01*
X119996928Y-93413000D01*
X120009188Y-93537482D01*
X120045498Y-93657180D01*
X120104463Y-93767494D01*
X120183815Y-93864185D01*
X120280506Y-93943537D01*
X120390820Y-94002502D01*
X120510518Y-94038812D01*
X120525001Y-94040238D01*
X120525000Y-99234029D01*
X120434943Y-99294203D01*
X120249203Y-99479943D01*
X120103268Y-99698351D01*
X120002746Y-99941032D01*
X119951500Y-100198662D01*
X119951500Y-100461338D01*
X120002746Y-100718968D01*
X120103268Y-100961649D01*
X120249203Y-101180057D01*
X120434943Y-101365797D01*
X120653351Y-101511732D01*
X120668504Y-101518009D01*
X120581589Y-101554010D01*
X120338368Y-101716525D01*
X120131525Y-101923368D01*
X119969010Y-102166589D01*
X119857068Y-102436842D01*
X119800000Y-102723740D01*
X101625000Y-102723740D01*
X101625000Y-100117357D01*
X106426000Y-100117357D01*
X106426000Y-100542643D01*
X106508970Y-100959757D01*
X106671719Y-101352670D01*
X106907996Y-101706282D01*
X107208718Y-102007004D01*
X107562330Y-102243281D01*
X107955243Y-102406030D01*
X108372357Y-102489000D01*
X108797643Y-102489000D01*
X109214757Y-102406030D01*
X109607670Y-102243281D01*
X109961282Y-102007004D01*
X110262004Y-101706282D01*
X110498281Y-101352670D01*
X110661030Y-100959757D01*
X110744000Y-100542643D01*
X110744000Y-100117357D01*
X110661030Y-99700243D01*
X110498281Y-99307330D01*
X110262004Y-98953718D01*
X109961282Y-98652996D01*
X109607670Y-98416719D01*
X109214757Y-98253970D01*
X108797643Y-98171000D01*
X108372357Y-98171000D01*
X107955243Y-98253970D01*
X107562330Y-98416719D01*
X107208718Y-98652996D01*
X106907996Y-98953718D01*
X106671719Y-99307330D01*
X106508970Y-99700243D01*
X106426000Y-100117357D01*
X101625000Y-100117357D01*
X101625000Y-89173380D01*
X103948770Y-86849611D01*
X103973948Y-86828948D01*
X103994615Y-86803766D01*
X104056424Y-86728451D01*
X104056425Y-86728450D01*
X104117710Y-86613793D01*
X104155450Y-86489383D01*
X104165000Y-86392419D01*
X104165000Y-86392410D01*
X104168192Y-86360001D01*
X104165000Y-86327592D01*
X104165000Y-76688740D01*
X106465000Y-76688740D01*
X106465000Y-76981260D01*
X106522068Y-77268158D01*
X106634010Y-77538411D01*
X106796525Y-77781632D01*
X107003368Y-77988475D01*
X107177760Y-78105000D01*
X107003368Y-78221525D01*
X106796525Y-78428368D01*
X106634010Y-78671589D01*
X106522068Y-78941842D01*
X106465000Y-79228740D01*
X106465000Y-79521260D01*
X106522068Y-79808158D01*
X106634010Y-80078411D01*
X106796525Y-80321632D01*
X107003368Y-80528475D01*
X107177760Y-80645000D01*
X107003368Y-80761525D01*
X106796525Y-80968368D01*
X106634010Y-81211589D01*
X106522068Y-81481842D01*
X106465000Y-81768740D01*
X106465000Y-82061260D01*
X106522068Y-82348158D01*
X106634010Y-82618411D01*
X106796525Y-82861632D01*
X107003368Y-83068475D01*
X107246589Y-83230990D01*
X107516842Y-83342932D01*
X107803740Y-83400000D01*
X108096260Y-83400000D01*
X108383158Y-83342932D01*
X108653411Y-83230990D01*
X108896632Y-83068475D01*
X109103475Y-82861632D01*
X109265990Y-82618411D01*
X109377932Y-82348158D01*
X109435000Y-82061260D01*
X109435000Y-81768740D01*
X109377932Y-81481842D01*
X109265990Y-81211589D01*
X109103475Y-80968368D01*
X108896632Y-80761525D01*
X108722240Y-80645000D01*
X108896632Y-80528475D01*
X109103475Y-80321632D01*
X109265990Y-80078411D01*
X109377932Y-79808158D01*
X109435000Y-79521260D01*
X109435000Y-79228740D01*
X109377932Y-78941842D01*
X109265990Y-78671589D01*
X109213079Y-78592401D01*
X208686400Y-78592401D01*
X208686400Y-78887599D01*
X208743990Y-79177125D01*
X208856958Y-79449853D01*
X209020961Y-79695302D01*
X209229698Y-79904039D01*
X209388281Y-80010000D01*
X209229698Y-80115961D01*
X209020961Y-80324698D01*
X208856958Y-80570147D01*
X208743990Y-80842875D01*
X208686400Y-81132401D01*
X208686400Y-81427599D01*
X208743990Y-81717125D01*
X208856958Y-81989853D01*
X209020961Y-82235302D01*
X209229698Y-82444039D01*
X209388281Y-82550000D01*
X209229698Y-82655961D01*
X209020961Y-82864698D01*
X208856958Y-83110147D01*
X208743990Y-83382875D01*
X208686400Y-83672401D01*
X208686400Y-83967599D01*
X208743990Y-84257125D01*
X208856958Y-84529853D01*
X209020961Y-84775302D01*
X209229698Y-84984039D01*
X209388281Y-85090000D01*
X209229698Y-85195961D01*
X209020961Y-85404698D01*
X208856958Y-85650147D01*
X208743990Y-85922875D01*
X208686400Y-86212401D01*
X208686400Y-86507599D01*
X208743990Y-86797125D01*
X208856958Y-87069853D01*
X209020961Y-87315302D01*
X209229698Y-87524039D01*
X209388281Y-87630000D01*
X209229698Y-87735961D01*
X209020961Y-87944698D01*
X208856958Y-88190147D01*
X208743990Y-88462875D01*
X208686400Y-88752401D01*
X208686400Y-89047599D01*
X208743990Y-89337125D01*
X208856958Y-89609853D01*
X209020961Y-89855302D01*
X209229698Y-90064039D01*
X209388281Y-90170000D01*
X209229698Y-90275961D01*
X209020961Y-90484698D01*
X208856958Y-90730147D01*
X208743990Y-91002875D01*
X208686400Y-91292401D01*
X208686400Y-91587599D01*
X208743990Y-91877125D01*
X208856958Y-92149853D01*
X209020961Y-92395302D01*
X209229698Y-92604039D01*
X209388281Y-92710000D01*
X209229698Y-92815961D01*
X209020961Y-93024698D01*
X208856958Y-93270147D01*
X208743990Y-93542875D01*
X208686400Y-93832401D01*
X208686400Y-94127599D01*
X208743990Y-94417125D01*
X208856958Y-94689853D01*
X209020961Y-94935302D01*
X209229698Y-95144039D01*
X209388281Y-95250000D01*
X209229698Y-95355961D01*
X209020961Y-95564698D01*
X208856958Y-95810147D01*
X208743990Y-96082875D01*
X208686400Y-96372401D01*
X208686400Y-96667599D01*
X208743990Y-96957125D01*
X208856958Y-97229853D01*
X209020961Y-97475302D01*
X209229698Y-97684039D01*
X209388281Y-97790000D01*
X209229698Y-97895961D01*
X209020961Y-98104698D01*
X208856958Y-98350147D01*
X208743990Y-98622875D01*
X208686400Y-98912401D01*
X208686400Y-99207599D01*
X208743990Y-99497125D01*
X208856958Y-99769853D01*
X209020961Y-100015302D01*
X209229698Y-100224039D01*
X209388281Y-100330000D01*
X209229698Y-100435961D01*
X209020961Y-100644698D01*
X208856958Y-100890147D01*
X208743990Y-101162875D01*
X208686400Y-101452401D01*
X208686400Y-101747599D01*
X208743990Y-102037125D01*
X208856958Y-102309853D01*
X209020961Y-102555302D01*
X209229698Y-102764039D01*
X209388281Y-102870000D01*
X209229698Y-102975961D01*
X209020961Y-103184698D01*
X208856958Y-103430147D01*
X208743990Y-103702875D01*
X208686400Y-103992401D01*
X208686400Y-104287599D01*
X208743990Y-104577125D01*
X208856958Y-104849853D01*
X209020961Y-105095302D01*
X209229698Y-105304039D01*
X209388281Y-105410000D01*
X209229698Y-105515961D01*
X209020961Y-105724698D01*
X208856958Y-105970147D01*
X208743990Y-106242875D01*
X208686400Y-106532401D01*
X208686400Y-106827599D01*
X208743990Y-107117125D01*
X208856958Y-107389853D01*
X209020961Y-107635302D01*
X209229698Y-107844039D01*
X209388281Y-107950000D01*
X209229698Y-108055961D01*
X209020961Y-108264698D01*
X208856958Y-108510147D01*
X208743990Y-108782875D01*
X208686400Y-109072401D01*
X208686400Y-109367599D01*
X208743990Y-109657125D01*
X208856958Y-109929853D01*
X209020961Y-110175302D01*
X209229698Y-110384039D01*
X209388281Y-110490000D01*
X209229698Y-110595961D01*
X209020961Y-110804698D01*
X208856958Y-111050147D01*
X208743990Y-111322875D01*
X208686400Y-111612401D01*
X208686400Y-111907599D01*
X208743990Y-112197125D01*
X208856958Y-112469853D01*
X209020961Y-112715302D01*
X209229698Y-112924039D01*
X209388281Y-113030000D01*
X209229698Y-113135961D01*
X209020961Y-113344698D01*
X208856958Y-113590147D01*
X208743990Y-113862875D01*
X208686400Y-114152401D01*
X208686400Y-114447599D01*
X208743990Y-114737125D01*
X208856958Y-115009853D01*
X209020961Y-115255302D01*
X209229698Y-115464039D01*
X209388281Y-115570000D01*
X209229698Y-115675961D01*
X209020961Y-115884698D01*
X208856958Y-116130147D01*
X208743990Y-116402875D01*
X208686400Y-116692401D01*
X208686400Y-116987599D01*
X208743990Y-117277125D01*
X208856958Y-117549853D01*
X209020961Y-117795302D01*
X209229698Y-118004039D01*
X209388281Y-118110000D01*
X209229698Y-118215961D01*
X209020961Y-118424698D01*
X208856958Y-118670147D01*
X208743990Y-118942875D01*
X208686400Y-119232401D01*
X208686400Y-119527599D01*
X208743990Y-119817125D01*
X208856958Y-120089853D01*
X209020961Y-120335302D01*
X209229698Y-120544039D01*
X209475147Y-120708042D01*
X209747875Y-120821010D01*
X210037401Y-120878600D01*
X210332599Y-120878600D01*
X210622125Y-120821010D01*
X210894853Y-120708042D01*
X211140302Y-120544039D01*
X211349039Y-120335302D01*
X211455000Y-120176719D01*
X211560961Y-120335302D01*
X211769698Y-120544039D01*
X212015147Y-120708042D01*
X212287875Y-120821010D01*
X212577401Y-120878600D01*
X212872599Y-120878600D01*
X213162125Y-120821010D01*
X213434853Y-120708042D01*
X213680302Y-120544039D01*
X213889039Y-120335302D01*
X214053042Y-120089853D01*
X214166010Y-119817125D01*
X214223600Y-119527599D01*
X214223600Y-119232401D01*
X214166010Y-118942875D01*
X214053042Y-118670147D01*
X213889039Y-118424698D01*
X213680302Y-118215961D01*
X213521719Y-118110000D01*
X213680302Y-118004039D01*
X213889039Y-117795302D01*
X214053042Y-117549853D01*
X214166010Y-117277125D01*
X214223600Y-116987599D01*
X214223600Y-116692401D01*
X214166010Y-116402875D01*
X214053042Y-116130147D01*
X213889039Y-115884698D01*
X213680302Y-115675961D01*
X213521719Y-115570000D01*
X213680302Y-115464039D01*
X213889039Y-115255302D01*
X214053042Y-115009853D01*
X214166010Y-114737125D01*
X214223600Y-114447599D01*
X214223600Y-114152401D01*
X214166010Y-113862875D01*
X214053042Y-113590147D01*
X213889039Y-113344698D01*
X213680302Y-113135961D01*
X213521719Y-113030000D01*
X213680302Y-112924039D01*
X213889039Y-112715302D01*
X214053042Y-112469853D01*
X214166010Y-112197125D01*
X214223600Y-111907599D01*
X214223600Y-111612401D01*
X214166010Y-111322875D01*
X214053042Y-111050147D01*
X213889039Y-110804698D01*
X213680302Y-110595961D01*
X213521719Y-110490000D01*
X213680302Y-110384039D01*
X213889039Y-110175302D01*
X214053042Y-109929853D01*
X214166010Y-109657125D01*
X214223600Y-109367599D01*
X214223600Y-109072401D01*
X214166010Y-108782875D01*
X214053042Y-108510147D01*
X213889039Y-108264698D01*
X213680302Y-108055961D01*
X213521719Y-107950000D01*
X213680302Y-107844039D01*
X213889039Y-107635302D01*
X214053042Y-107389853D01*
X214166010Y-107117125D01*
X214223600Y-106827599D01*
X214223600Y-106532401D01*
X214166010Y-106242875D01*
X214053042Y-105970147D01*
X213889039Y-105724698D01*
X213680302Y-105515961D01*
X213521719Y-105410000D01*
X213680302Y-105304039D01*
X213889039Y-105095302D01*
X214053042Y-104849853D01*
X214166010Y-104577125D01*
X214223600Y-104287599D01*
X214223600Y-103992401D01*
X214166010Y-103702875D01*
X214053042Y-103430147D01*
X213889039Y-103184698D01*
X213680302Y-102975961D01*
X213521719Y-102870000D01*
X213680302Y-102764039D01*
X213889039Y-102555302D01*
X214053042Y-102309853D01*
X214166010Y-102037125D01*
X214223600Y-101747599D01*
X214223600Y-101452401D01*
X214166010Y-101162875D01*
X214053042Y-100890147D01*
X213889039Y-100644698D01*
X213680302Y-100435961D01*
X213521719Y-100330000D01*
X213680302Y-100224039D01*
X213889039Y-100015302D01*
X214053042Y-99769853D01*
X214166010Y-99497125D01*
X214223600Y-99207599D01*
X214223600Y-98912401D01*
X214166010Y-98622875D01*
X214053042Y-98350147D01*
X213889039Y-98104698D01*
X213680302Y-97895961D01*
X213521719Y-97790000D01*
X213680302Y-97684039D01*
X213889039Y-97475302D01*
X214053042Y-97229853D01*
X214166010Y-96957125D01*
X214223600Y-96667599D01*
X214223600Y-96372401D01*
X214166010Y-96082875D01*
X214053042Y-95810147D01*
X213889039Y-95564698D01*
X213680302Y-95355961D01*
X213521719Y-95250000D01*
X213680302Y-95144039D01*
X213889039Y-94935302D01*
X214053042Y-94689853D01*
X214166010Y-94417125D01*
X214223600Y-94127599D01*
X214223600Y-93832401D01*
X214166010Y-93542875D01*
X214053042Y-93270147D01*
X213889039Y-93024698D01*
X213680302Y-92815961D01*
X213521719Y-92710000D01*
X213680302Y-92604039D01*
X213889039Y-92395302D01*
X214053042Y-92149853D01*
X214166010Y-91877125D01*
X214223600Y-91587599D01*
X214223600Y-91292401D01*
X214166010Y-91002875D01*
X214053042Y-90730147D01*
X213889039Y-90484698D01*
X213680302Y-90275961D01*
X213521719Y-90170000D01*
X213680302Y-90064039D01*
X213889039Y-89855302D01*
X214053042Y-89609853D01*
X214166010Y-89337125D01*
X214223600Y-89047599D01*
X214223600Y-88752401D01*
X214166010Y-88462875D01*
X214053042Y-88190147D01*
X213889039Y-87944698D01*
X213680302Y-87735961D01*
X213521719Y-87630000D01*
X213680302Y-87524039D01*
X213889039Y-87315302D01*
X214053042Y-87069853D01*
X214166010Y-86797125D01*
X214223600Y-86507599D01*
X214223600Y-86212401D01*
X214166010Y-85922875D01*
X214053042Y-85650147D01*
X213889039Y-85404698D01*
X213680302Y-85195961D01*
X213521719Y-85090000D01*
X213680302Y-84984039D01*
X213889039Y-84775302D01*
X214053042Y-84529853D01*
X214166010Y-84257125D01*
X214223600Y-83967599D01*
X214223600Y-83672401D01*
X214166010Y-83382875D01*
X214053042Y-83110147D01*
X213889039Y-82864698D01*
X213680302Y-82655961D01*
X213521719Y-82550000D01*
X213680302Y-82444039D01*
X213889039Y-82235302D01*
X214053042Y-81989853D01*
X214166010Y-81717125D01*
X214223600Y-81427599D01*
X214223600Y-81132401D01*
X214166010Y-80842875D01*
X214053042Y-80570147D01*
X213889039Y-80324698D01*
X213680302Y-80115961D01*
X213521719Y-80010000D01*
X213680302Y-79904039D01*
X213889039Y-79695302D01*
X214053042Y-79449853D01*
X214166010Y-79177125D01*
X214223600Y-78887599D01*
X214223600Y-78592401D01*
X214166010Y-78302875D01*
X214053042Y-78030147D01*
X213889039Y-77784698D01*
X213680302Y-77575961D01*
X213434853Y-77411958D01*
X213162125Y-77298990D01*
X212872599Y-77241400D01*
X212577401Y-77241400D01*
X212287875Y-77298990D01*
X212015147Y-77411958D01*
X211769698Y-77575961D01*
X211560961Y-77784698D01*
X211455000Y-77943281D01*
X211349039Y-77784698D01*
X211140302Y-77575961D01*
X210894853Y-77411958D01*
X210622125Y-77298990D01*
X210332599Y-77241400D01*
X210037401Y-77241400D01*
X209747875Y-77298990D01*
X209475147Y-77411958D01*
X209229698Y-77575961D01*
X209020961Y-77784698D01*
X208856958Y-78030147D01*
X208743990Y-78302875D01*
X208686400Y-78592401D01*
X109213079Y-78592401D01*
X109103475Y-78428368D01*
X108896632Y-78221525D01*
X108722240Y-78105000D01*
X108896632Y-77988475D01*
X109103475Y-77781632D01*
X109265990Y-77538411D01*
X109377932Y-77268158D01*
X109435000Y-76981260D01*
X109435000Y-76688740D01*
X109377932Y-76401842D01*
X109265990Y-76131589D01*
X109103475Y-75888368D01*
X108896632Y-75681525D01*
X108653411Y-75519010D01*
X108383158Y-75407068D01*
X108096260Y-75350000D01*
X107803740Y-75350000D01*
X107516842Y-75407068D01*
X107246589Y-75519010D01*
X107003368Y-75681525D01*
X106796525Y-75888368D01*
X106634010Y-76131589D01*
X106522068Y-76401842D01*
X106465000Y-76688740D01*
X104165000Y-76688740D01*
X104165000Y-75457380D01*
X105302381Y-74320000D01*
X130235726Y-74320000D01*
X130020271Y-74463962D01*
G37*
%TD.AperFunction*%
%TD*%
M02*
