M48
; DRILL file {KiCad (5.1.9)-1} date 01/16/21 23:23:22
; FORMAT={-:-/ absolute / metric / decimal}
; #@! TF.CreationDate,2021-01-16T23:23:22+11:00
; #@! TF.GenerationSoftware,Kicad,Pcbnew,(5.1.9)-1
; #@! TF.FileFunction,Plated,1,2,PTH
FMAT,2
METRIC
T1C0.400
T2C0.600
T3C0.813
T4C1.000
T5C1.016
T6C2.540
%
G90
G05
T1
X172.085Y-114.3
T2
X116.745Y-106.807
X118.745Y-106.807
X192.405Y-106.68
X194.405Y-106.68
T3
X118.745Y-100.33
X121.285Y-100.33
X123.825Y-100.33
X126.365Y-100.33
X128.905Y-100.33
X131.445Y-100.33
X133.985Y-100.33
X136.525Y-100.33
X139.065Y-100.33
X141.605Y-100.33
X144.145Y-100.33
X146.685Y-100.33
X149.225Y-100.33
X151.765Y-100.33
X154.305Y-100.33
X156.845Y-100.33
X159.385Y-100.33
X161.925Y-100.33
X164.465Y-100.33
X167.005Y-100.33
X169.545Y-100.33
X172.085Y-100.33
X174.625Y-100.33
X177.165Y-100.33
X179.705Y-100.33
X182.245Y-100.33
X184.785Y-100.33
X187.325Y-100.33
X189.865Y-100.33
X192.405Y-100.33
T4
X107.95Y-76.835
X107.95Y-79.375
X107.95Y-81.915
X107.95Y-84.455
X118.745Y-102.87
X121.285Y-102.87
X123.825Y-102.87
X126.365Y-102.87
X128.905Y-102.87
X131.445Y-102.87
X133.985Y-102.87
X136.525Y-102.87
X139.065Y-102.87
X141.605Y-102.87
X144.145Y-102.87
X146.685Y-102.87
X149.225Y-102.87
X151.765Y-102.87
X154.305Y-102.87
X156.845Y-102.87
X159.385Y-102.87
X161.925Y-102.87
X164.465Y-102.87
X167.005Y-102.87
X169.545Y-102.87
X172.085Y-102.87
X174.625Y-102.87
X177.165Y-102.87
X179.705Y-102.87
X182.245Y-102.87
X184.785Y-102.87
X187.325Y-102.87
X189.865Y-102.87
X192.405Y-102.87
T5
X135.001Y-76.2
X137.541Y-76.2
X140.081Y-76.2
X142.621Y-76.2
X144.145Y-124.46
X145.161Y-76.2
X146.685Y-124.46
X147.701Y-76.2
X149.225Y-124.46
X150.241Y-76.2
X151.765Y-124.46
X152.781Y-76.2
X154.305Y-124.46
X155.321Y-76.2
X156.845Y-124.46
X157.861Y-76.2
X159.385Y-124.46
X161.925Y-76.2
X161.925Y-124.46
X164.465Y-76.2
X167.005Y-76.2
X167.005Y-124.46
X169.545Y-76.2
X169.545Y-124.46
X172.085Y-76.2
X172.085Y-124.46
X174.625Y-76.2
X174.625Y-124.46
X177.165Y-76.2
X177.165Y-124.46
X179.705Y-76.2
X179.705Y-124.46
X182.245Y-124.46
X184.785Y-76.2
X184.785Y-124.46
X187.325Y-76.2
X189.865Y-76.2
X189.865Y-124.46
X192.405Y-76.2
X192.405Y-124.46
X194.945Y-76.2
X194.945Y-124.46
X197.485Y-76.2
X197.485Y-124.46
X200.025Y-76.2
X200.025Y-124.46
X202.565Y-76.2
X202.565Y-124.46
X205.105Y-124.46
X207.645Y-124.46
X210.185Y-76.2
X210.185Y-78.74
X210.185Y-81.28
X210.185Y-83.82
X210.185Y-86.36
X210.185Y-88.9
X210.185Y-91.44
X210.185Y-93.98
X210.185Y-96.52
X210.185Y-99.06
X210.185Y-101.6
X210.185Y-104.14
X210.185Y-106.68
X210.185Y-109.22
X210.185Y-111.76
X210.185Y-114.3
X210.185Y-116.84
X210.185Y-119.38
X212.725Y-76.2
X212.725Y-78.74
X212.725Y-81.28
X212.725Y-83.82
X212.725Y-86.36
X212.725Y-88.9
X212.725Y-91.44
X212.725Y-93.98
X212.725Y-96.52
X212.725Y-99.06
X212.725Y-101.6
X212.725Y-104.14
X212.725Y-106.68
X212.725Y-109.22
X212.725Y-111.76
X212.725Y-114.3
X212.725Y-116.84
X212.725Y-119.38
T6
X108.585Y-100.33
X202.565Y-100.33
T0
M30
